STARTFONT 2.1
COMMENT
COMMENT Converted from OpenType font "BeVietnam-Regular.ttf" by "otf2bdf 3.0".
COMMENT
FONT -FreeType-Be Vietnam-Medium-R-Normal--89-640-100-100-P-410-ISO10646-1
SIZE 64 100 100
FONTBOUNDINGBOX 136 120 -33 -22
STARTPROPERTIES 19
FOUNDRY "FreeType"
FAMILY_NAME "Be Vietnam"
WEIGHT_NAME "Medium"
SLANT "R"
SETWIDTH_NAME "Normal"
ADD_STYLE_NAME ""
PIXEL_SIZE 89
POINT_SIZE 640
RESOLUTION_X 100
RESOLUTION_Y 100
SPACING "P"
AVERAGE_WIDTH 410
CHARSET_REGISTRY "ISO10646"
CHARSET_ENCODING "1"
FONT_ASCENT 106
FONT_DESCENT 23
COPYRIGHT "Copyright 2019 The Bevietnam Project Authors (https://github.com/bettergui/beVietnam)"
_OTF_FONTFILE "BeVietnam-Regular.ttf"
_OTF_PSNAME "BeVietnam-Regular"
ENDPROPERTIES
CHARS 445
STARTCHAR 000D
ENCODING 13
SWIDTH 596 0
DWIDTH 53 0
BBX 0 0 0 0
BITMAP
ENDCHAR
STARTCHAR 0020
ENCODING 32
SWIDTH 225 0
DWIDTH 20 0
BBX 0 0 0 0
BITMAP
ENDCHAR
STARTCHAR 0021
ENCODING 33
SWIDTH 236 0
DWIDTH 21 0
BBX 10 68 6 -1
BITMAP
7F80
7F80
7F80
7F80
7F80
7F80
7F80
7F80
7F80
7F80
7F80
7F80
7F80
7F80
7F80
7F80
7F80
7F80
7F80
7F80
7F80
7F80
7F80
7F80
7F80
7F00
7F00
7F00
7F00
7F00
7F00
3F00
3F00
3F00
3F00
3F00
3F00
3F00
3F00
3F00
3F00
3F00
3F00
3F00
3F00
3F00
3F00
3F00
3F00
3F00
3F00
0000
0000
0000
0000
0000
0000
0000
1E00
7F80
FF80
FFC0
FFC0
FFC0
FFC0
7F80
3F00
1C00
ENDCHAR
STARTCHAR 0022
ENCODING 34
SWIDTH 506 0
DWIDTH 45 0
BBX 32 23 7 45
BITMAP
00400004
01C0003C
07C0007C
0FC000F8
1F0001F0
3E0003C0
3C0003C0
78000780
78000780
78000780
78000F80
F8000F80
F8000F80
FC000FF0
FFE00FFE
FFE00FFE
FFF00FFF
FFF00FFF
7FF00FFF
7FF007FF
7FE007FE
3FE003FC
0F800070
ENDCHAR
STARTCHAR 0023
ENCODING 35
SWIDTH 877 0
DWIDTH 78 0
BBX 64 62 7 0
BITMAP
000000FE0001FC00
000000FC0001F800
000000FC0001F800
000001FC0003F800
000001FC0003F800
000001FC0003F800
000001F80003F000
000003F80003F000
000003F80007F000
000003F80007F000
000003F80007F000
000003F00007E000
000007F0000FE000
000007F0000FE000
000007F0000FE000
000007E0000FC000
000007E0000FC000
07FFFFFFFFFFFFFF
07FFFFFFFFFFFFFE
07FFFFFFFFFFFFFE
0FFFFFFFFFFFFFFE
0FFFFFFFFFFFFFFE
0FFFFFFFFFFFFFFE
00001FC0003F8000
00001FC0003F8000
00001F80003F0000
00003F80007F0000
00003F80007F0000
00003F80007F0000
00003F00007E0000
00003F00007E0000
00007F0000FE0000
00007F0000FE0000
00007F0000FE0000
00007E0000FC0000
0000FE0001FC0000
0000FE0001FC0000
0000FE0001FC0000
0000FE0001FC0000
7FFFFFFFFFFFFFF0
7FFFFFFFFFFFFFF0
7FFFFFFFFFFFFFF0
7FFFFFFFFFFFFFE0
7FFFFFFFFFFFFFE0
FFFFFFFFFFFFFFE0
0003F80007F00000
0003F80007F00000
0003F80007F00000
0003F00007E00000
0007F0000FE00000
0007F0000FE00000
0007F0000FE00000
0007F0000FE00000
0007E0000FC00000
000FE0001FC00000
000FE0001FC00000
000FE0001FC00000
000FC0001F800000
001FC0003F800000
001FC0003F800000
001FC0003F800000
001FC0003F800000
ENDCHAR
STARTCHAR 0024
ENCODING 36
SWIDTH 562 0
DWIDTH 50 0
BBX 43 74 4 -7
BITMAP
00000E000000
00000E000000
00000E000000
00000E000000
00000E000000
00003F800000
0007FFFC0000
001FFFFF0000
007FFFFFC000
00FFFFFFE000
03FFFFFFF000
07FFFFFFF800
07FF0E1FFC00
0FFC0E07FE00
1FF80E03FE00
1FF00E01FF00
3FE00E00FF00
3FC00E00FF80
3FC00E007F80
3F800E007F80
3F800E003FC0
3F800E003FC0
3F800E003FC0
3F800E003FC0
3F800E000000
3FC00E000000
3FC00E000000
3FE00E000000
3FF00E000000
1FF80E000000
1FFC0E000000
0FFF8E000000
07FFFE000000
03FFFFE00000
01FFFFFE0000
007FFFFF8000
003FFFFFE000
0007FFFFF800
00007FFFFC00
00000FFFFE00
00000E0FFF00
00000E03FF80
00000E00FFC0
00000E007FC0
00000E003FC0
00000E001FE0
00000E001FE0
FF000E001FE0
FF000E001FE0
FF000E000FE0
FF000E000FE0
7F800E000FE0
7F800E001FE0
7FC00E001FE0
3FC00E001FC0
3FE00E003FC0
1FF00E007FC0
1FF80E00FF80
0FFC0E01FF80
07FF0E07FF00
07FFCE1FFE00
03FFFFFFFE00
01FFFFFFFC00
007FFFFFF000
003FFFFFE000
000FFFFF8000
0003FFFC0000
00001FC00000
00000E000000
00000E000000
00000E000000
00000E000000
00000E000000
00000E000000
ENDCHAR
STARTCHAR 0025
ENCODING 37
SWIDTH 821 0
DWIDTH 73 0
BBX 68 64 3 -1
BITMAP
01FF00000000000000
07FFC0000003F80000
0FFFF0000003F00000
1FFFF8000007F00000
3FC7F800000FE00000
3F00FC00000FE00000
7E007C00001FC00000
7E007E00001FC00000
FC007E00003F800000
FC003E00003F800000
FC003E00007F000000
FC003F00007F000000
FC003F0000FE000000
FC003F0000FE000000
FC003E0001FC000000
FC003E0001FC000000
FC003E0003F8000000
7E007E0003F8000000
7E007E0007F0000000
7F00FC0007F0000000
3F81FC000FE0000000
1FFFF8000FE0000000
1FFFF0001FC0000000
07FFE0001F80000000
03FFC0003F80000000
001800003F00000000
000000007F00000000
000000007E00000000
00000000FE00000000
00000000FC00000000
00000001FC00000000
00000001F800000000
00000003F800000000
00000003F000000000
00000007F000000000
00000007E000000000
0000000FE000000000
0000001FC000000000
0000001FC00007E000
0000003F80003FFC00
0000003F8000FFFE00
0000007F0001FFFF00
0000007F0003FFFF80
000000FE0003F81FC0
000000FE0007E00FC0
000001FC0007E007E0
000001FC000FC007E0
000003F8000FC003E0
000003F8000FC003E0
000007F0000FC003F0
000007F0000FC003F0
00000FE0000FC003F0
00000FE0000FC003F0
00001FC0000FC003E0
00001F80000FC003E0
00003F80000FC007E0
00003F000007E007E0
00007F000007E00FC0
00007E000003F81FC0
0000FE000003FFFF80
0000FC000001FFFF00
0001FC000000FFFE00
0001F80000003FFC00
0000000000000FE000
ENDCHAR
STARTCHAR 0026
ENCODING 38
SWIDTH 630 0
DWIDTH 56 0
BBX 53 64 5 -1
BITMAP
00001FFE000000
00007FFFC00000
0001FFFFF00000
0003FFFFF80000
000FFFFFFC0000
000FFFFFFE0000
001FFF1FFF0000
003FF003FF8000
003FE001FF8000
007FC000FFC000
007F80007FC000
007F80003FC000
007F00003FC000
00FF00001FE000
00FF00001FE000
00FF00001FE000
00FF00001FE000
007F00001FE000
007F0000000000
007F8000000000
007F8000000000
003FC000000000
003FC000000000
001FE000000000
001FF000000000
000FF800000000
0007FC00000000
0003FE00000000
0003FE00000000
0001FF00000000
0003FF80000000
001FFFC000FF00
007FFFE001FE00
00FFFFF001FC00
03FFEFF803FC00
07FF07FC07F800
0FFC07FC07F800
1FF003FE0FF000
3FE001FF0FE000
3FC000FF9FE000
7F80007FDFC000
7F80003FFFC000
7F00001FFF8000
FF00000FFF0000
FF000007FF0000
FE000007FE0000
FE000003FE0000
FE000001FF0000
FE000003FF8000
FF000003FFC000
FF000007FFE000
FF00000FFFF000
7F80001FFFF000
7FC0003FCFF800
7FE0007FC7FC00
3FF000FF83FE00
3FFE07FF01FF00
1FFFFFFE00FF80
0FFFFFFC007FC0
07FFFFF8003FE0
03FFFFF0001FE0
00FFFFC0001FF0
003FFF00000FF8
0000E000000000
ENDCHAR
STARTCHAR 0027
ENCODING 39
SWIDTH 292 0
DWIDTH 26 0
BBX 12 23 7 48
BITMAP
0600
3FC0
7FE0
7FE0
FFF0
FFF0
FFF0
7FF0
7FF0
1FF0
01F0
01F0
00F0
00F0
01E0
01E0
01E0
03C0
0780
1F00
3E00
3C00
3000
ENDCHAR
STARTCHAR 0028
ENCODING 40
SWIDTH 450 0
DWIDTH 40 0
BBX 24 89 10 -19
BITMAP
00000C
00001E
00007E
0000FC
0001F8
0003F8
0007F0
000FE0
000FC0
001FC0
003F80
007F00
007F00
00FE00
01FE00
01FC00
03FC00
03F800
07F800
07F000
0FF000
0FF000
0FE000
1FE000
1FE000
1FC000
3FC000
3FC000
3FC000
7F8000
7F8000
7F8000
7F8000
7F8000
7F0000
FF0000
FF0000
FF0000
FF0000
FF0000
FF0000
FF0000
FF0000
FF0000
FF0000
FF0000
FF0000
FF0000
FF0000
FF0000
FF0000
FF0000
FF0000
FF0000
7F8000
7F8000
7F8000
7F8000
7F8000
3F8000
3FC000
3FC000
3FC000
1FE000
1FE000
1FE000
0FF000
0FF000
07F000
07F800
03F800
03FC00
01FC00
01FC00
00FE00
00FE00
007F00
003F80
003F80
001FC0
000FE0
0007E0
0003F0
0001F8
0000FC
00007E
00003F
00000E
000004
ENDCHAR
STARTCHAR 0029
ENCODING 41
SWIDTH 483 0
DWIDTH 43 0
BBX 24 89 10 -19
BITMAP
600000
F80000
FC0000
7E0000
3F0000
1F8000
0FC000
0FE000
07F000
03F800
03F800
01FC00
00FE00
00FE00
007F00
007F80
003F80
003FC0
001FC0
001FE0
001FE0
000FE0
000FF0
000FF0
0007F8
0007F8
0007F8
0003FC
0003FC
0003FC
0003FC
0001FC
0001FE
0001FE
0001FE
0001FE
0001FE
0001FE
0000FE
0000FF
0000FF
0000FF
0000FF
0000FF
0000FF
0000FF
0000FF
0000FF
0000FF
0000FF
0001FE
0001FE
0001FE
0001FE
0001FE
0001FE
0001FE
0003FC
0003FC
0003FC
0003FC
0003F8
0007F8
0007F8
0007F0
000FF0
000FF0
000FE0
001FE0
001FC0
003FC0
003F80
003F80
007F00
007F00
00FE00
01FC00
01FC00
03F800
03F000
07E000
0FE000
1FC000
1F8000
3F0000
7E0000
F80000
F00000
600000
ENDCHAR
STARTCHAR 002A
ENCODING 42
SWIDTH 506 0
DWIDTH 45 0
BBX 31 32 7 36
BITMAP
0007C000
0007C000
0007C000
0007C000
0007C000
1007C000
3807C038
3C07C078
7F07C1FC
7F87C3FC
FFE3CFFE
3FF39FF8
0FFFBFE0
01FFFF00
007FFC00
001FF000
003FF800
00FFFE00
03FFFF80
0FFBBFE0
7FF39FFC
7FC7C7FE
7F87C3FC
3E07C0F8
3C07C078
1007C010
0007C000
0007C000
0007C000
0007C000
0007C000
0007C000
ENDCHAR
STARTCHAR 002B
ENCODING 43
SWIDTH 573 0
DWIDTH 51 0
BBX 35 35 8 10
BITMAP
0003F80000
0003F80000
0003F80000
0003F80000
0003F80000
0003F80000
0003F80000
0003F80000
0003F80000
0003F80000
0003F80000
0003F80000
0003F80000
0003F80000
FFFFFFFFE0
FFFFFFFFE0
FFFFFFFFE0
FFFFFFFFE0
FFFFFFFFE0
FFFFFFFFE0
FFFFFFFFE0
0003F80000
0003F80000
0003F80000
0003F80000
0003F80000
0003F80000
0003F80000
0003F80000
0003F80000
0003F80000
0003F80000
0003F80000
0003F80000
0003F80000
ENDCHAR
STARTCHAR 002C
ENCODING 44
SWIDTH 281 0
DWIDTH 25 0
BBX 12 23 7 -14
BITMAP
3F00
7FC0
FFE0
FFE0
FFE0
FFE0
FFF0
FFF0
7FF0
0FF0
01F0
01F0
01E0
01E0
01E0
01E0
03C0
07C0
0F80
1F00
3E00
3C00
3000
ENDCHAR
STARTCHAR 002D
ENCODING 45
SWIDTH 596 0
DWIDTH 53 0
BBX 33 6 10 25
BITMAP
FFFFFFFF80
FFFFFFFF80
FFFFFFFF80
FFFFFFFF80
FFFFFFFF80
FFFFFFFF80
ENDCHAR
STARTCHAR 002E
ENCODING 46
SWIDTH 270 0
DWIDTH 24 0
BBX 10 11 7 -1
BITMAP
0C00
3F80
7F80
FFC0
FFC0
FFC0
FFC0
FFC0
7F80
3F00
0C00
ENDCHAR
STARTCHAR 002F
ENCODING 47
SWIDTH 506 0
DWIDTH 45 0
BBX 38 85 5 -14
BITMAP
00000003FC
00000003F8
00000003F8
00000007F8
00000007F0
0000000FF0
0000000FF0
0000000FE0
0000001FE0
0000001FC0
0000001FC0
0000003FC0
0000003F80
0000003F80
0000007F80
0000007F00
000000FF00
000000FF00
000000FE00
000001FE00
000001FE00
000001FC00
000003FC00
000003F800
000003F800
000007F800
000007F000
00000FF000
00000FF000
00000FE000
00001FE000
00001FE000
00001FC000
00003FC000
00003F8000
00003F8000
00007F8000
00007F0000
00007F0000
0000FF0000
0000FE0000
0001FE0000
0001FE0000
0001FC0000
0003FC0000
0003F80000
0003F80000
0007F80000
0007F00000
0007F00000
000FF00000
000FE00000
001FE00000
001FE00000
001FC00000
003FC00000
003FC00000
003F800000
007F800000
007F000000
007F000000
00FF000000
00FE000000
01FE000000
01FE000000
01FC000000
03FC000000
03FC000000
03F8000000
07F8000000
07F0000000
07F0000000
0FF0000000
0FE0000000
0FE0000000
1FE0000000
1FC0000000
3FC0000000
3FC0000000
3F80000000
7F80000000
7F00000000
7F00000000
FF00000000
FE00000000
ENDCHAR
STARTCHAR 0030
ENCODING 48
SWIDTH 596 0
DWIDTH 53 0
BBX 44 64 5 -1
BITMAP
0001FFF80000
000FFFFF0000
003FFFFFC000
007FFFFFE000
01FFFFFFF000
03FFFFFFF800
03FFF0FFFC00
07FF000FFE00
0FFC0007FE00
0FF80003FF00
1FF00001FF80
3FE00000FF80
3FE000007FC0
3FC000007FC0
7FC000003FC0
7F8000003FE0
7F8000003FE0
FF8000001FE0
FF8000001FE0
FF0000001FE0
FF0000001FF0
FF0000001FF0
FF0000000FF0
FF0000000FF0
FF0000000FF0
FF0000000FF0
FF0000000FF0
FF0000000FF0
FF0000000FF0
FF0000000FF0
FF0000000FF0
FF0000000FF0
FF0000000FF0
FF0000000FF0
FF0000000FF0
FF0000000FF0
FF0000000FF0
FF0000000FF0
FF0000000FF0
FF0000000FF0
FF0000000FF0
FF0000001FF0
FF0000001FF0
FF0000001FF0
FF8000001FE0
FF8000001FE0
7F8000001FE0
7F8000003FE0
7FC000003FC0
3FC000007FC0
3FE000007FC0
3FE00000FF80
1FF00000FF80
1FF80001FF00
0FFC0003FF00
07FE000FFE00
07FFC03FFC00
03FFFFFFFC00
01FFFFFFF800
00FFFFFFE000
007FFFFFC000
001FFFFF0000
0007FFFC0000
00007FC00000
ENDCHAR
STARTCHAR 0031
ENCODING 49
SWIDTH 483 0
DWIDTH 43 0
BBX 32 62 8 0
BITMAP
000FF000
001FF000
003FF000
007FF000
00FFF000
01FFF000
03FFF000
07FFF000
0FFFF000
3FF7F000
7FE7F000
FFC7F000
FF87F000
FF07F000
FE07F000
FC07F000
F807F000
F007F000
E007F000
C007F000
8007F000
0007F000
0007F000
0007F000
0007F000
0007F000
0007F000
0007F000
0007F000
0007F000
0007F000
0007F000
0007F000
0007F000
0007F000
0007F000
0007F000
0007F000
0007F000
0007F000
0007F000
0007F000
0007F000
0007F000
0007F000
0007F000
0007F000
0007F000
0007F000
0007F000
0007F000
0007F000
0007F000
0007F000
0007F000
7FFFFFFF
7FFFFFFF
7FFFFFFF
7FFFFFFF
7FFFFFFF
7FFFFFFF
7FFFFFFF
ENDCHAR
STARTCHAR 0032
ENCODING 50
SWIDTH 585 0
DWIDTH 52 0
BBX 41 64 6 0
BITMAP
00000C000000
0003FFF80000
001FFFFE0000
007FFFFF8000
00FFFFFFC000
01FFFFFFE000
03FFFFFFF000
07FF80FFF800
0FFC001FFC00
0FF80007FC00
1FF00003FE00
1FE00001FE00
3FC00000FF00
3FC00000FF00
3F8000007F00
7F8000007F00
7F8000007F80
7F8000007F80
7F0000007F80
7F0000007F80
7F0000007F80
000000007F80
000000007F00
000000007F00
00000000FF00
00000000FF00
00000000FE00
00000001FE00
00000003FE00
00000003FC00
00000007FC00
0000000FF800
0000001FF000
0000001FF000
0000003FE000
0000007FC000
000000FF8000
000003FF0000
000007FE0000
00000FFC0000
00001FF80000
00003FF00000
00007FE00000
0000FFC00000
0001FF800000
0007FF000000
000FFC000000
001FF8000000
003FF0000000
007FE0000000
00FFC0000000
01FF80000000
03FF00000000
07FC00000000
1FF800000000
3FF000000000
7FE000000000
FFFFFFFFFF80
FFFFFFFFFF80
FFFFFFFFFF80
FFFFFFFFFF80
FFFFFFFFFF80
FFFFFFFFFF80
FFFFFFFFFF80
ENDCHAR
STARTCHAR 0033
ENCODING 51
SWIDTH 585 0
DWIDTH 52 0
BBX 42 65 6 -1
BITMAP
00001F000000
0007FFF80000
003FFFFE0000
00FFFFFF8000
01FFFFFFE000
03FFFFFFF000
07FFFFFFF800
0FFF007FFC00
0FFC000FFC00
1FF00007FE00
1FE00003FE00
3FC00001FF00
3FC00000FF00
7F800000FF00
7F8000007F80
7F0000007F80
000000007F80
000000007F80
000000007F80
000000007F80
000000007F80
000000007F00
000000007F00
00000000FF00
00000001FE00
00000003FE00
00000007FC00
0000001FF800
000001FFF000
0001FFFFE000
0001FFFFC000
0001FFFE0000
0001FFFF0000
0001FFFFC000
0001FFFFF000
0000003FF800
0000000FFC00
00000003FE00
00000001FE00
00000000FF00
000000007F00
000000007F80
000000003F80
000000003F80
000000003F80
000000003FC0
000000003FC0
000000003FC0
000000003F80
FF0000003F80
FF0000007F80
FF0000007F80
7F800000FF80
7FC00000FF00
7FE00001FF00
3FF00003FE00
1FFC000FFE00
1FFFC0FFFC00
0FFFFFFFF800
07FFFFFFF000
03FFFFFFE000
00FFFFFFC000
003FFFFF0000
000FFFF80000
00007F800000
ENDCHAR
STARTCHAR 0034
ENCODING 52
SWIDTH 596 0
DWIDTH 53 0
BBX 45 62 4 0
BITMAP
0000003FF000
0000007FF000
0000007FF000
000000FFF000
000001FFF000
000001FFF000
000003FFF000
000007FFF000
000007FFF000
00000FF7F000
00001FF7F000
00001FE7F000
00003FC7F000
00007FC7F000
00007F87F000
0000FF07F000
0001FF07F000
0001FE07F000
0003FC07F000
0007FC07F000
0007F807F000
000FF007F000
001FF007F000
001FE007F000
003FC007F000
007FC007F000
007F8007F000
00FF0007F000
01FE0007F000
01FE0007F000
03FC0007F000
07F80007F000
07F80007F000
0FF00007F000
1FE00007F000
1FE00007F000
3FC00007F000
7F800007F000
7F800007F000
FF000007F000
FFFFFFFFFFF8
FFFFFFFFFFF8
FFFFFFFFFFF8
FFFFFFFFFFF8
FFFFFFFFFFF8
FFFFFFFFFFF8
FFFFFFFFFFF8
00000007F000
00000007F000
00000007F000
00000007F000
00000007F000
00000007F000
00000007F000
00000007F000
00000007F000
00000007F000
00000007F000
00000007F000
00000007F000
00000007F000
00000007F000
ENDCHAR
STARTCHAR 0035
ENCODING 53
SWIDTH 596 0
DWIDTH 53 0
BBX 42 62 7 0
BITMAP
3FFFFFFFFC00
3FFFFFFFFC00
3FFFFFFFFC00
3FFFFFFFFC00
3FFFFFFFFC00
3FFFFFFFFC00
3FFFFFFFFC00
3F8000000000
3F8000000000
3F8000000000
3F0000000000
3F0000000000
3F0000000000
3F0000000000
7F0000000000
7F0000000000
7F0000000000
7F0000000000
7F0000000000
7F0000000000
7F003FE00000
7F03FFFC0000
7F0FFFFF0000
7F1FFFFFC000
7F3FFFFFE000
7F7FFFFFF000
7FFF007FF800
7FF8001FFC00
7FF00007FE00
7FE00003FE00
7FC00001FF00
7FC00000FF00
7F8000007F80
078000007F80
000000007F80
000000003F80
000000003FC0
000000003FC0
000000003FC0
000000003FC0
000000003FC0
000000003FC0
000000003FC0
000000003FC0
000000003FC0
000000003F80
FE0000007F80
FF0000007F80
FF0000007F80
7F800000FF00
7FC00001FF00
7FC00003FE00
3FF00007FE00
1FF8000FFC00
1FFE003FFC00
0FFFFFFFF800
07FFFFFFF000
03FFFFFFE000
00FFFFFFC000
007FFFFF0000
001FFFFC0000
0003FFE00000
ENDCHAR
STARTCHAR 0036
ENCODING 54
SWIDTH 585 0
DWIDTH 52 0
BBX 42 63 5 -1
BITMAP
00000FF00000
00001FE00000
00001FC00000
00003FC00000
00007F800000
0000FF000000
0000FF000000
0001FE000000
0003FC000000
0003FC000000
0007F8000000
000FF0000000
000FF0000000
001FE0000000
003FC0000000
003FC0000000
007F80000000
00FF00000000
00FF00000000
01FE00000000
03FC00000000
03FC00000000
07F81FE00000
07F0FFFC0000
0FF3FFFF8000
0FEFFFFFC000
1FDFFFFFF000
1FFFFFFFF800
3FFFC0FFFC00
3FFE001FFC00
3FF80007FE00
7FF00003FF00
7FE00001FF00
7FC00000FF80
7F8000007F80
FF8000007F80
FF0000003FC0
FF0000003FC0
FF0000001FC0
FF0000001FC0
FF0000001FC0
FF0000001FC0
FE0000001FC0
FE0000001FC0
FF0000001FC0
FF0000001FC0
7F0000001FC0
7F0000003FC0
7F8000003FC0
7F8000007F80
3FC000007F80
3FE00000FF00
1FE00001FF00
1FF80003FE00
0FFC000FFE00
07FF003FFC00
03FFFFFFF800
01FFFFFFF000
00FFFFFFE000
007FFFFF8000
001FFFFF0000
0003FFF80000
00003F800000
ENDCHAR
STARTCHAR 0037
ENCODING 55
SWIDTH 506 0
DWIDTH 45 0
BBX 40 62 2 0
BITMAP
FFFFFFFFFF
FFFFFFFFFF
FFFFFFFFFF
FFFFFFFFFF
FFFFFFFFFF
FFFFFFFFFF
FFFFFFFFFF
00000000FF
00000000FE
00000001FE
00000001FE
00000003FC
00000003FC
00000007F8
00000007F8
00000007F0
0000000FF0
0000000FE0
0000001FE0
0000001FE0
0000003FC0
0000003FC0
0000007F80
0000007F80
0000007F00
000000FF00
000000FF00
000001FE00
000001FE00
000003FC00
000003FC00
000007F800
000007F800
000007F800
00000FF000
00000FF000
00001FE000
00001FE000
00003FC000
00003FC000
00007FC000
00007F8000
00007F8000
0000FF0000
0000FF0000
0001FE0000
0001FE0000
0003FE0000
0003FC0000
0007FC0000
0007F80000
0007F80000
000FF00000
000FF00000
001FE00000
001FE00000
003FE00000
003FC00000
007FC00000
007F800000
007F800000
00FF000000
ENDCHAR
STARTCHAR 0038
ENCODING 56
SWIDTH 607 0
DWIDTH 54 0
BBX 45 64 5 -1
BITMAP
0001FFFC0000
000FFFFF8000
001FFFFFC000
007FFFFFF000
00FFFFFFF800
01FFFFFFFC00
03FFC01FFE00
07FE0007FF00
07FC0001FF00
0FF80000FF80
0FF000007F80
1FE000007F80
1FE000003FC0
1FC000003FC0
1FC000001FC0
1FC000001FC0
1FC000001FC0
1FC000001FC0
1FC000001FC0
1FC000001FC0
1FC000003FC0
1FE000003FC0
0FE000003F80
0FF000007F80
07F80000FF00
07FC0001FE00
03FE0007FE00
01FFC01FFC00
00FFFFFFF800
007FFFFFE000
001FFFFFC000
007FFFFFF000
01FFFFFFFC00
03FF800FFE00
07FC0003FF00
0FF80000FF80
1FE000007FC0
1FE000003FC0
3FC000001FE0
7F8000000FE0
7F8000000FF0
7F0000000FF0
7F00000007F0
FF00000007F0
FF00000007F8
FF00000007F8
FF00000007F8
FF00000007F8
FF0000000FF0
FF8000000FF0
7F8000000FF0
7FC000001FF0
7FC000003FE0
3FE000007FE0
3FF00000FFC0
1FFC0001FFC0
0FFF000FFF80
07FFFFFFFF00
03FFFFFFFE00
01FFFFFFFC00
00FFFFFFF800
003FFFFFE000
000FFFFF0000
00007FF80000
ENDCHAR
STARTCHAR 0039
ENCODING 57
SWIDTH 585 0
DWIDTH 52 0
BBX 42 63 5 0
BITMAP
0003FFF00000
001FFFFE0000
007FFFFF8000
00FFFFFFC000
01FFFFFFE000
03FFFFFFF800
07FF807FF800
0FFE000FFC00
1FF80007FE00
1FF00001FF00
3FE00000FF00
3FC00000FF80
7F8000007F80
7F8000003F80
7F0000003FC0
FF0000003FC0
FF0000001FC0
FF0000001FC0
FE0000001FC0
FE0000001FC0
FE0000001FC0
FE0000001FC0
FF0000001FC0
FF0000001FC0
FF0000003FC0
7F0000003FC0
7F8000003FC0
7F8000007FC0
3FC000007FC0
3FE00000FF80
3FF00001FF80
1FF80003FF80
0FFC000FFF80
0FFF003FFF00
07FFFFFFFF00
03FFFFFF7E00
01FFFFFEFE00
007FFFF9FC00
001FFFF3FC00
0007FF83F800
00000007F800
0000000FF000
0000000FF000
0000001FE000
0000003FC000
0000003FC000
0000007F8000
000000FF0000
000000FF0000
000001FE0000
000003FC0000
000003FC0000
000007F80000
00000FF00000
00000FF00000
00001FE00000
00003FC00000
00007FC00000
00007F800000
0000FF000000
0001FF000000
0001FE000000
0003FC000000
ENDCHAR
STARTCHAR 003A
ENCODING 58
SWIDTH 292 0
DWIDTH 26 0
BBX 11 47 6 -1
BITMAP
1F80
7FC0
7FC0
FFE0
FFE0
FFE0
7FC0
7FC0
3F80
1F00
0000
0000
0000
0000
0000
0000
0000
0000
0000
0000
0000
0000
0000
0000
0000
0000
0000
0000
0000
0000
0000
0000
0000
0000
0000
0000
0600
3F80
7FC0
7FC0
FFE0
FFE0
FFE0
7FC0
7FC0
3F80
0400
ENDCHAR
STARTCHAR 003B
ENCODING 59
SWIDTH 315 0
DWIDTH 28 0
BBX 12 60 8 -14
BITMAP
3F00
7F80
FFC0
FFC0
FFC0
FFC0
FFC0
7F80
3F80
1E00
0000
0000
0000
0000
0000
0000
0000
0000
0000
0000
0000
0000
0000
0000
0000
0000
0000
0000
0000
0000
0000
0000
0000
0000
0000
0000
0000
3F80
7FC0
FFE0
FFE0
FFE0
FFF0
FFF0
FFF0
7FF0
07F0
01F0
01F0
01E0
01E0
01E0
01E0
03C0
07C0
0F80
1F00
3E00
3C00
3000
ENDCHAR
STARTCHAR 003C
ENCODING 60
SWIDTH 562 0
DWIDTH 50 0
BBX 32 39 9 10
BITMAP
00000001
00000007
0000001F
0000007F
000000FF
000003FF
00000FFF
00003FFF
0000FFFC
0003FFF0
000FFFC0
001FFF00
007FFC00
01FFF000
07FFC000
1FFF0000
7FFC0000
FFF00000
FFC00000
FF000000
FF800000
FFE00000
FFF80000
3FFE0000
0FFF8000
07FFC000
01FFF000
007FFC00
001FFF00
0007FFC0
0001FFF0
00007FFC
00003FFF
00000FFF
000003FF
000000FF
0000003F
0000000F
00000003
ENDCHAR
STARTCHAR 003D
ENCODING 61
SWIDTH 708 0
DWIDTH 63 0
BBX 41 26 11 15
BITMAP
FFFFFFFFFF80
FFFFFFFFFF80
FFFFFFFFFF80
FFFFFFFFFF80
FFFFFFFFFF80
FFFFFFFFFF80
FFFFFFFFFF80
000000000000
000000000000
000000000000
000000000000
000000000000
000000000000
000000000000
000000000000
000000000000
000000000000
000000000000
000000000000
000000000000
FFFFFFFFFF80
FFFFFFFFFF80
FFFFFFFFFF80
FFFFFFFFFF80
FFFFFFFFFF80
FFFFFFFFFF80
ENDCHAR
STARTCHAR 003E
ENCODING 62
SWIDTH 562 0
DWIDTH 50 0
BBX 32 39 9 10
BITMAP
80000000
E0000000
F8000000
FE000000
FF800000
FFE00000
FFF80000
7FFC0000
1FFF0000
07FFC000
01FFF000
007FFC00
001FFF00
0007FF80
0003FFE0
0000FFF8
00003FFE
00000FFF
000003FF
000000FF
000000FF
000003FF
00000FFF
00003FFE
0000FFF8
0003FFE0
000FFF80
003FFE00
00FFF800
03FFF000
0FFFC000
3FFF0000
FFFC0000
FFF00000
FFC00000
FF000000
FE000000
F8000000
E0000000
ENDCHAR
STARTCHAR 003F
ENCODING 63
SWIDTH 573 0
DWIDTH 51 0
BBX 41 65 5 -1
BITMAP
00003F000000
0003FFF80000
001FFFFF0000
007FFFFF8000
00FFFFFFE000
03FFFFFFF000
07FFFFFFF800
07FFFFFFFC00
0FFF001FFE00
1FFC0007FE00
1FF00003FF00
3FE00001FF00
3FC00000FF80
7FC000007F80
7F8000007F80
7F8000007F80
7F8000003F80
FF0000003F80
FF0000003F80
FF0000003F80
FF0000007F80
000000007F80
000000007F80
000000007F80
00000000FF00
00000001FF00
00000001FE00
00000003FE00
00000007FC00
0000000FF800
0000001FF000
0000003FE000
0000007FC000
000000FF8000
000001FF0000
000003FE0000
000007FC0000
00000FF80000
00001FF00000
00001FE00000
00003FC00000
00007FC00000
00007F800000
00007F800000
0000FF000000
0000FF000000
0000FF000000
0000FF000000
000000000000
000000000000
000000000000
000000000000
000000000000
000000000000
000000000000
00003C000000
00007F000000
0000FF000000
0001FF800000
0001FF800000
0001FF800000
0000FF800000
0000FF000000
00007E000000
00003C000000
ENDCHAR
STARTCHAR 0040
ENCODING 64
SWIDTH 1001 0
DWIDTH 89 0
BBX 78 78 6 -15
BITMAP
00000001FFFF00000000
0000001FFFFFF0000000
000000FFFFFFFE000000
000007FFFFFFFF800000
00001FFFFFFFFFE00000
00003FFFFFFFFFF80000
0000FFFE0001FFFC0000
0001FFE000001FFF0000
0007FF00000003FF8000
000FFC00000000FFC000
001FF8000000003FE000
003FE0000000001FF000
007FC00000000007F800
00FF800000000003FC00
00FE000000000001FE00
01FC000000000000FF00
03FC0000000000007F00
03F80000000000003F80
07F00000000000003F80
0FE00000000000001FC0
0FE00001FE0000000FC0
0FC0000FFF83F0000FE0
1FC0001FFFE3F00007E0
1F80003FFFF3F00007F0
3F80007FFFFBF00003F0
3F8000FFE7FBF00003F0
3F0001FF007FF00003F8
7F0003FC003FF00001F8
7F0003F8001FF00001F8
7E0003F8000FF00001F8
7E0007F0000FF00001F8
7E0007F00007F00001F8
7E0007E00007F00001FC
FE000FE00003F00000FC
FE000FE00003F00000FC
FE000FE00003F00000FC
FC000FC00003F00000FC
FC000FC00003F00000FC
FC000FC00003F00000FC
FC000FC00003F00000F8
FC000FC00003F00001F8
FE000FE00003F00001F8
FE000FE00003F00001F8
FE000FE00003F80001F8
7E0007E00007F80003F0
7E0007F00007F80003F0
7E0007F0000FF80003F0
7E0007F8000FFC0007E0
7F0003F8001EFC000FE0
7F0003FC003EFE001FC0
3F0001FF007C7F003F80
3F8000FFF7FC3FC0FF00
3F8000FFFFF83FFFFE00
1F80007FFFF01FFFFC00
1FC0001FFFE007FFF800
1FC0000FFFC003FFE000
0FE00003FF00007E0000
0FE00000000000000000
07F00000000000000000
07F80000000000000000
03FC0000000000000000
01FC0000000000000000
01FE0000000000000000
00FF0000000000000000
007FC000000000000000
003FE000000000000000
001FF800000000000000
000FFC00000000000000
0007FF00000000000000
0003FFE0000000000000
0001FFFC000000000000
00007FFFF00000000000
00003FFFFFFFFFFF0000
00000FFFFFFFFFFF0000
000003FFFFFFFFFF0000
0000007FFFFFFFFF0000
00000007FFFFFFFF0000
000000000FFFFFFF0000
ENDCHAR
STARTCHAR 0041
ENCODING 65
SWIDTH 675 0
DWIDTH 60 0
BBX 54 62 3 0
BITMAP
000001FE000000
000001FF000000
000001FF000000
000003FF000000
000003FF800000
000007FF800000
000007FF800000
000007FFC00000
00000FFFC00000
00000FFFE00000
00000FEFE00000
00001FCFE00000
00001FCFF00000
00003FC7F00000
00003F87F00000
00003F83F80000
00007F03F80000
00007F03FC0000
00007F01FC0000
0000FE01FC0000
0000FE01FE0000
0001FE00FE0000
0001FC00FE0000
0001FC00FF0000
0003FC007F0000
0003F8007F8000
0003F8003F8000
0007F8003F8000
0007F0003FC000
000FF0001FC000
000FE0001FE000
000FE0001FE000
001FE0000FE000
001FC0000FF000
001FC00007F000
003FC00007F000
003F800007F800
007F800003F800
007FFFFFFFFC00
007FFFFFFFFC00
00FFFFFFFFFC00
00FFFFFFFFFE00
00FFFFFFFFFE00
01FFFFFFFFFE00
01FC000000FF00
03FC0000007F00
03FC0000007F80
03F80000007F80
07F80000003F80
07F80000003FC0
07F00000003FC0
0FF00000001FC0
0FE00000001FE0
1FE00000001FE0
1FE00000000FF0
1FC00000000FF0
3FC000000007F0
3FC000000007F8
3F8000000007F8
7F8000000003F8
7F8000000003FC
FF0000000003FC
ENDCHAR
STARTCHAR 0042
ENCODING 66
SWIDTH 618 0
DWIDTH 55 0
BBX 45 62 7 0
BITMAP
FFFFFFFE0000
FFFFFFFF8000
FFFFFFFFE000
FFFFFFFFF800
FFFFFFFFFC00
FFFFFFFFFE00
FE00007FFE00
FE000007FF00
FE000001FF80
FE000000FF80
FE0000007F80
FE0000003FC0
FE0000003FC0
FE0000003FC0
FE0000001FC0
FE0000001FC0
FE0000001FC0
FE0000001FC0
FE0000001FC0
FE0000003FC0
FE0000003F80
FE0000003F80
FE0000007F00
FE000000FF00
FE000001FE00
FE000007FC00
FE00001FF800
FFFFFFFFF000
FFFFFFFFC000
FFFFFFFF0000
FFFFFFFFE000
FFFFFFFFFC00
FFFFFFFFFE00
FE00000FFF00
FE000001FF80
FE0000007FC0
FE0000001FE0
FE0000000FE0
FE0000000FF0
FE00000007F0
FE00000007F8
FE00000007F8
FE00000007F8
FE00000007F8
FE00000007F8
FE00000007F8
FE00000007F8
FE00000007F8
FE00000007F0
FE0000000FF0
FE0000000FF0
FE0000001FE0
FE0000003FE0
FE0000007FE0
FE000003FFC0
FE0000FFFF80
FFFFFFFFFF00
FFFFFFFFFE00
FFFFFFFFFC00
FFFFFFFFF000
FFFFFFFFC000
FFFFFFFE0000
ENDCHAR
STARTCHAR 0043
ENCODING 67
SWIDTH 708 0
DWIDTH 63 0
BBX 54 65 5 -1
BITMAP
00000038000000
00000FFFF00000
00007FFFFE0000
0001FFFFFF8000
0007FFFFFFE000
000FFFFFFFF000
003FFFFFFFF800
007FFFE3FFFC00
00FFF8001FFE00
01FFE00007FF00
03FF800001FF80
03FF000000FFC0
07FE0000007FC0
0FFC0000003FE0
0FF80000001FF0
1FF00000000FF0
1FF00000000FF8
1FE000000007F8
3FE000000007F8
3FC000000003FC
3FC000000003FC
7F8000000001FC
7F800000000000
7F800000000000
7F800000000000
FF800000000000
FF000000000000
FF000000000000
FF000000000000
FF000000000000
FF000000000000
FF000000000000
FF000000000000
FF000000000000
FF000000000000
FF000000000000
FF000000000000
FF000000000000
FF000000000000
FF800000000000
7F800000000000
7F800000000000
7F800000000000
7F800000000000
7FC000000003FC
3FC000000003FC
3FE000000007F8
1FE000000007F8
1FF00000000FF0
1FF00000000FF0
0FF80000001FE0
0FFC0000003FE0
07FE0000007FC0
03FF000000FFC0
03FF800001FF80
01FFE00007FF00
00FFF8001FFE00
007FFFE7FFFC00
003FFFFFFFF800
001FFFFFFFF000
0007FFFFFFE000
0001FFFFFF8000
00007FFFFE0000
00001FFFF00000
0000003C000000
ENDCHAR
STARTCHAR 0044
ENCODING 68
SWIDTH 686 0
DWIDTH 61 0
BBX 50 62 7 0
BITMAP
FFFFFFF8000000
FFFFFFFF800000
FFFFFFFFE00000
FFFFFFFFF80000
FFFFFFFFFC0000
FFFFFFFFFF0000
FFFFFFFFFF8000
FE00000FFFC000
FE000003FFE000
FE000000FFF000
FE0000003FF000
FE0000001FF800
FE0000000FFC00
FE00000007FC00
FE00000003FE00
FE00000003FE00
FE00000001FF00
FE00000001FF00
FE00000000FF00
FE00000000FF80
FE000000007F80
FE000000007F80
FE000000007F80
FE000000007FC0
FE000000003FC0
FE000000003FC0
FE000000003FC0
FE000000003FC0
FE000000003FC0
FE000000003FC0
FE000000003FC0
FE000000003FC0
FE000000003FC0
FE000000003FC0
FE000000003FC0
FE000000003FC0
FE000000003FC0
FE000000007FC0
FE000000007FC0
FE000000007F80
FE000000007F80
FE00000000FF80
FE00000000FF80
FE00000000FF00
FE00000001FF00
FE00000001FF00
FE00000003FE00
FE00000007FE00
FE00000007FC00
FE0000000FFC00
FE0000001FF800
FE0000007FF000
FE000000FFF000
FE000007FFE000
FE00003FFFC000
FFFFFFFFFF8000
FFFFFFFFFE0000
FFFFFFFFFC0000
FFFFFFFFF80000
FFFFFFFFE00000
FFFFFFFF000000
FFFFFFF0000000
ENDCHAR
STARTCHAR 0045
ENCODING 69
SWIDTH 562 0
DWIDTH 50 0
BBX 38 62 7 0
BITMAP
FFFFFFFFFC
FFFFFFFFFC
FFFFFFFFFC
FFFFFFFFFC
FFFFFFFFFC
FFFFFFFFFC
FFFFFFFFFC
FE00000000
FE00000000
FE00000000
FE00000000
FE00000000
FE00000000
FE00000000
FE00000000
FE00000000
FE00000000
FE00000000
FE00000000
FE00000000
FE00000000
FE00000000
FE00000000
FE00000000
FE00000000
FE00000000
FE00000000
FFFFFFFFC0
FFFFFFFFC0
FFFFFFFFC0
FFFFFFFFC0
FFFFFFFFC0
FFFFFFFFC0
FE00000000
FE00000000
FE00000000
FE00000000
FE00000000
FE00000000
FE00000000
FE00000000
FE00000000
FE00000000
FE00000000
FE00000000
FE00000000
FE00000000
FE00000000
FE00000000
FE00000000
FE00000000
FE00000000
FE00000000
FE00000000
FE00000000
FFFFFFFFFC
FFFFFFFFFC
FFFFFFFFFC
FFFFFFFFFC
FFFFFFFFFC
FFFFFFFFFC
FFFFFFFFFC
ENDCHAR
STARTCHAR 0046
ENCODING 70
SWIDTH 506 0
DWIDTH 45 0
BBX 37 62 7 0
BITMAP
FFFFFFFFF8
FFFFFFFFF8
FFFFFFFFF8
FFFFFFFFF8
FFFFFFFFF8
FFFFFFFFF8
FFFFFFFFF8
FE00000000
FE00000000
FE00000000
FE00000000
FE00000000
FE00000000
FE00000000
FE00000000
FE00000000
FE00000000
FE00000000
FE00000000
FE00000000
FE00000000
FE00000000
FE00000000
FE00000000
FE00000000
FE00000000
FE00000000
FFFFFFFF80
FFFFFFFF80
FFFFFFFF80
FFFFFFFF80
FFFFFFFF80
FFFFFFFF80
FE00000000
FE00000000
FE00000000
FE00000000
FE00000000
FE00000000
FE00000000
FE00000000
FE00000000
FE00000000
FE00000000
FE00000000
FE00000000
FE00000000
FE00000000
FE00000000
FE00000000
FE00000000
FE00000000
FE00000000
FE00000000
FE00000000
FE00000000
FE00000000
FE00000000
FE00000000
FE00000000
FE00000000
FE00000000
ENDCHAR
STARTCHAR 0047
ENCODING 71
SWIDTH 708 0
DWIDTH 63 0
BBX 53 65 5 -1
BITMAP
00000034000000
00001FFFF00000
0000FFFFFC0000
0003FFFFFF8000
0007FFFFFFC000
001FFFFFFFE000
003FFFFFFFF800
007FFFEFFFFC00
00FFF8003FFE00
01FFC00007FF00
03FF800003FF00
03FE000000FF80
07FC0000007FC0
0FF80000003FC0
0FF80000003FE0
1FF00000001FE0
1FE00000000FF0
3FE00000000FF0
3FC00000000FF8
3FC000000007F8
7F800000000000
7F800000000000
7F800000000000
7F800000000000
FF000000000000
FF000000000000
FF000000000000
FF000000000000
FF000000000000
FF000000000000
FF000000000000
FF000000000000
FF000007FFFFF8
FF000007FFFFF8
FF000007FFFFF8
FF000007FFFFF8
FF000007FFFFF8
FF000007FFFFF8
FF0000000003F8
FF0000000003F8
FF0000000003F8
7F0000000003F8
7F8000000003F8
7F8000000003F8
7F8000000007F8
3FC000000007F8
3FC000000007F8
3FC00000000FF8
1FE00000000FF8
1FF00000001FF8
0FF00000001FF8
0FF80000003FF8
07FC0000007FF8
07FE000000FFF8
03FF000001FDF8
01FFC00003F9F8
00FFE0000FF9F8
007FFC007FF1F8
003FFFFFFFE1F8
001FFFFFFFC1F8
000FFFFFFF81F8
0003FFFFFE01F8
0000FFFFF801F8
00003FFFE001F8
00000078000000
ENDCHAR
STARTCHAR 0048
ENCODING 72
SWIDTH 675 0
DWIDTH 60 0
BBX 47 62 7 0
BITMAP
FE00000001FE
FE00000001FE
FE00000001FE
FE00000001FE
FE00000001FE
FE00000001FE
FE00000001FE
FE00000001FE
FE00000001FE
FE00000001FE
FE00000001FE
FE00000001FE
FE00000001FE
FE00000001FE
FE00000001FE
FE00000001FE
FE00000001FE
FE00000001FE
FE00000001FE
FE00000001FE
FE00000001FE
FE00000001FE
FE00000001FE
FE00000001FE
FE00000001FE
FE00000001FE
FE00000001FE
FE00000001FE
FFFFFFFFFFFE
FFFFFFFFFFFE
FFFFFFFFFFFE
FFFFFFFFFFFE
FFFFFFFFFFFE
FFFFFFFFFFFE
FE00000001FE
FE00000001FE
FE00000001FE
FE00000001FE
FE00000001FE
FE00000001FE
FE00000001FE
FE00000001FE
FE00000001FE
FE00000001FE
FE00000001FE
FE00000001FE
FE00000001FE
FE00000001FE
FE00000001FE
FE00000001FE
FE00000001FE
FE00000001FE
FE00000001FE
FE00000001FE
FE00000001FE
FE00000001FE
FE00000001FE
FE00000001FE
FE00000001FE
FE00000001FE
FE00000001FE
FE00000001FE
ENDCHAR
STARTCHAR 0049
ENCODING 73
SWIDTH 236 0
DWIDTH 21 0
BBX 8 62 7 0
BITMAP
FF
FF
FF
FF
FF
FF
FF
FF
FF
FF
FF
FF
FF
FF
FF
FF
FF
FF
FF
FF
FF
FF
FF
FF
FF
FF
FF
FF
FF
FF
FF
FF
FF
FF
FF
FF
FF
FF
FF
FF
FF
FF
FF
FF
FF
FF
FF
FF
FF
FF
FF
FF
FF
FF
FF
FF
FF
FF
FF
FF
FF
FF
ENDCHAR
STARTCHAR 004A
ENCODING 74
SWIDTH 337 0
DWIDTH 30 0
BBX 19 62 4 0
BITMAP
000FE0
000FE0
000FE0
000FE0
000FE0
000FE0
000FE0
000FE0
000FE0
000FE0
000FE0
000FE0
000FE0
000FE0
000FE0
000FE0
000FE0
000FE0
000FE0
000FE0
000FE0
000FE0
000FE0
000FE0
000FE0
000FE0
000FE0
000FE0
000FE0
000FE0
000FE0
000FE0
000FE0
000FE0
000FE0
000FE0
000FE0
000FE0
000FE0
000FE0
000FE0
000FE0
000FE0
000FE0
000FE0
000FE0
000FE0
000FE0
000FE0
000FE0
001FE0
001FE0
001FE0
001FE0
003FE0
007FC0
FFFFC0
FFFF80
FFFF80
FFFF00
FFFE00
FFF000
ENDCHAR
STARTCHAR 004B
ENCODING 75
SWIDTH 618 0
DWIDTH 55 0
BBX 44 62 6 0
BITMAP
FF0000007FC0
FF000000FF80
FF000001FF00
FF000003FE00
FF000007FC00
FF00000FF800
FF00001FF000
FF00003FF000
FF00007FE000
FF00007FC000
FF0000FF8000
FF0001FF0000
FF0003FE0000
FF0007FC0000
FF000FF80000
FF001FF00000
FF003FE00000
FF007FC00000
FF00FF800000
FF00FF800000
FF01FF000000
FF03FE000000
FF07FC000000
FF0FF8000000
FF1FF0000000
FF3FE0000000
FF7FC0000000
FFFFE0000000
FFFFF0000000
FFFFF0000000
FFFFF8000000
FFFFFC000000
FFFBFE000000
FFF3FE000000
FFE1FF000000
FFC0FF800000
FF807FC00000
FF007FC00000
FF003FE00000
FF001FF00000
FF000FF00000
FF000FF80000
FF0007FC0000
FF0003FE0000
FF0001FE0000
FF0001FF0000
FF0000FF8000
FF00007FC000
FF00007FC000
FF00003FE000
FF00001FF000
FF00000FF800
FF00000FF800
FF000007FC00
FF000003FE00
FF000001FF00
FF000001FF00
FF000000FF80
FF0000007FC0
FF0000003FE0
FF0000003FE0
FF0000001FF0
ENDCHAR
STARTCHAR 004C
ENCODING 76
SWIDTH 528 0
DWIDTH 47 0
BBX 36 62 7 0
BITMAP
FE00000000
FE00000000
FE00000000
FE00000000
FE00000000
FE00000000
FE00000000
FE00000000
FE00000000
FE00000000
FE00000000
FE00000000
FE00000000
FE00000000
FE00000000
FE00000000
FE00000000
FE00000000
FE00000000
FE00000000
FE00000000
FE00000000
FE00000000
FE00000000
FE00000000
FE00000000
FE00000000
FE00000000
FE00000000
FE00000000
FE00000000
FE00000000
FE00000000
FE00000000
FE00000000
FE00000000
FE00000000
FE00000000
FE00000000
FE00000000
FE00000000
FE00000000
FE00000000
FE00000000
FE00000000
FE00000000
FE00000000
FE00000000
FE00000000
FE00000000
FE00000000
FE00000000
FE00000000
FE00000000
FE00000000
FFFFFFFFF0
FFFFFFFFF0
FFFFFFFFF0
FFFFFFFFF0
FFFFFFFFF0
FFFFFFFFF0
FFFFFFFFF0
ENDCHAR
STARTCHAR 004D
ENCODING 77
SWIDTH 821 0
DWIDTH 73 0
BBX 59 62 7 0
BITMAP
FFE000000000FFE0
FFF000000000FFE0
FFF000000001FFE0
FFF000000001FFE0
FFF800000003FFE0
FFF800000003FFE0
FFFC00000003FFE0
FFFC00000007FFE0
FFFC00000007FFE0
FFFE0000000FFFE0
FFFE0000000FFFE0
FFFF0000000FFFE0
FEFF0000001FEFE0
FEFF0000001FEFE0
FE7F8000003FCFE0
FE7F8000003FCFE0
FE7F8000003FCFE0
FE3FC000007F8FE0
FE3FC000007F8FE0
FE1FE000007F8FE0
FE1FE00000FF0FE0
FE1FE00000FF0FE0
FE0FF00001FE0FE0
FE0FF00001FE0FE0
FE0FF80001FE0FE0
FE07F80003FC0FE0
FE07F80003FC0FE0
FE03FC0007FC0FE0
FE03FC0007F80FE0
FE03FC0007F80FE0
FE01FE000FF00FE0
FE01FE000FF00FE0
FE00FF001FF00FE0
FE00FF001FE00FE0
FE00FF001FE00FE0
FE007F803FC00FE0
FE007F803FC00FE0
FE007FC03FC00FE0
FE003FC07F800FE0
FE003FC07F800FE0
FE001FE0FF800FE0
FE001FE0FF000FE0
FE001FF0FF000FE0
FE000FF1FE000FE0
FE000FF1FE000FE0
FE000FFBFE000FE0
FE0007FBFC000FE0
FE0007FFFC000FE0
FE0003FFF8000FE0
FE0003FFF8000FE0
FE0003FFF8000FE0
FE0001FFF0000FE0
FE0001FFF0000FE0
FE0000FFF0000FE0
FE0000FFE0000FE0
FE0000FFE0000FE0
FE00007FC0000FE0
FE00007FC0000FE0
FE00007FC0000FE0
FE00003F80000FE0
FE00003F80000FE0
FE00001F80000FE0
ENDCHAR
STARTCHAR 004E
ENCODING 78
SWIDTH 708 0
DWIDTH 63 0
BBX 50 62 7 0
BITMAP
FF800000003FC0
FF800000003FC0
FFC00000003FC0
FFE00000003FC0
FFE00000003FC0
FFF00000003FC0
FFF80000003FC0
FFF80000003FC0
FFFC0000003FC0
FFFE0000003FC0
FFFE0000003FC0
FFFF0000003FC0
FFFF8000003FC0
FEFF8000003FC0
FE7FC000003FC0
FE7FE000003FC0
FE3FE000003FC0
FE1FF000003FC0
FE1FF800003FC0
FE0FF800003FC0
FE07FC00003FC0
FE07FE00003FC0
FE03FE00003FC0
FE01FF00003FC0
FE01FF80003FC0
FE00FF80003FC0
FE007FC0003FC0
FE003FE0003FC0
FE003FE0003FC0
FE001FF0003FC0
FE000FF8003FC0
FE000FF8003FC0
FE0007FC003FC0
FE0003FE003FC0
FE0003FE003FC0
FE0001FF003FC0
FE0000FF803FC0
FE0000FF803FC0
FE00007FC03FC0
FE00003FE03FC0
FE00003FE03FC0
FE00001FF03FC0
FE00000FF83FC0
FE00000FF83FC0
FE000007FC3FC0
FE000003FE3FC0
FE000003FE3FC0
FE000001FF3FC0
FE000000FFBFC0
FE000000FFBFC0
FE0000007FFFC0
FE0000003FFFC0
FE0000003FFFC0
FE0000001FFFC0
FE0000000FFFC0
FE0000000FFFC0
FE00000007FFC0
FE00000003FFC0
FE00000003FFC0
FE00000001FFC0
FE00000000FFC0
FE00000000FFC0
ENDCHAR
STARTCHAR 004F
ENCODING 79
SWIDTH 731 0
DWIDTH 65 0
BBX 56 65 5 -1
BITMAP
0000001C000000
00001FFFF00000
00007FFFFE0000
0003FFFFFF8000
0007FFFFFFE000
001FFFFFFFF000
003FFFFFFFF800
007FFFEFFFFC00
00FFF8003FFE00
01FFE0000FFF00
03FF800003FF80
07FF000001FFC0
07FE000000FFC0
0FFC0000007FE0
0FF80000003FF0
1FF00000001FF0
1FF00000000FF8
3FE00000000FF8
3FE000000007F8
7FC000000007FC
7FC000000003FC
7F8000000003FC
7F8000000003FE
FF8000000001FE
FF0000000001FE
FF0000000001FE
FF0000000001FE
FF0000000001FE
FF0000000001FE
FF0000000000FF
FF0000000000FF
FF0000000000FF
FF0000000000FF
FF0000000000FF
FF0000000000FF
FF0000000001FF
FF0000000001FE
FF0000000001FE
FF0000000001FE
FF0000000001FE
FF0000000001FE
FF8000000001FE
7F8000000003FE
7F8000000003FC
7FC000000003FC
7FC000000007FC
3FC000000007F8
3FE00000000FF8
1FF00000000FF8
1FF00000001FF0
1FF80000003FF0
0FFC0000007FE0
07FE0000007FE0
07FF000001FFC0
03FF800003FF80
01FFE0000FFF00
00FFF8003FFF00
007FFFEFFFFE00
003FFFFFFFF800
001FFFFFFFF000
000FFFFFFFE000
0003FFFFFF8000
0000FFFFFE0000
00001FFFF00000
000000BC000000
ENDCHAR
STARTCHAR 0050
ENCODING 80
SWIDTH 585 0
DWIDTH 52 0
BBX 42 62 7 0
BITMAP
FFFFFFF00000
FFFFFFFE0000
FFFFFFFF8000
FFFFFFFFC000
FFFFFFFFF000
FFFFFFFFF800
FFFFFFFFFC00
FE00003FFC00
FE00000FFE00
FE000003FF00
FE000001FF00
FE000000FF80
FE0000007F80
FE0000003F80
FE0000003FC0
FE0000003FC0
FE0000001FC0
FE0000001FC0
FE0000001FC0
FE0000001FC0
FE0000001FC0
FE0000001FC0
FE0000001FC0
FE0000001FC0
FE0000003FC0
FE0000003FC0
FE0000003F80
FE0000007F80
FE0000007F80
FE000000FF00
FE000001FF00
FE000007FE00
FE00001FFE00
FE0000FFFC00
FFFFFFFFF800
FFFFFFFFF000
FFFFFFFFE000
FFFFFFFF8000
FFFFFFFE0000
FFFFFFF80000
FE0000000000
FE0000000000
FE0000000000
FE0000000000
FE0000000000
FE0000000000
FE0000000000
FE0000000000
FE0000000000
FE0000000000
FE0000000000
FE0000000000
FE0000000000
FE0000000000
FE0000000000
FE0000000000
FE0000000000
FE0000000000
FE0000000000
FE0000000000
FE0000000000
FE0000000000
ENDCHAR
STARTCHAR 0051
ENCODING 81
SWIDTH 731 0
DWIDTH 65 0
BBX 56 69 5 -5
BITMAP
0000001C000000
00001FFFF00000
00007FFFFE0000
0003FFFFFF8000
0007FFFFFFE000
001FFFFFFFF000
003FFFFFFFF800
007FFFEFFFFC00
00FFF8003FFE00
01FFE0000FFF00
03FF800003FF80
07FF000001FFC0
07FE000000FFC0
0FFC0000007FE0
0FF80000003FF0
1FF00000001FF0
1FF00000000FF8
3FE00000000FF8
3FE000000007F8
7FC000000007FC
7FC000000003FC
7F8000000003FC
7F8000000003FE
FF8000000001FE
FF0000000001FE
FF0000000001FE
FF0000000001FE
FF0000000001FE
FF0000000001FE
FF0000000000FF
FF0000000000FF
FF0000000000FF
FF0000000000FF
FF0000000000FF
FF0000000000FF
FF0000000001FF
FF0000000001FE
FF0000000001FE
FF0000000001FE
FF0000000001FE
FF0000FF0001FE
FF80007F0001FE
7F80003F8003FE
7F80003FC003FC
7FC0001FE003FC
7FC0000FE007FC
3FC00007F007F8
3FE00003F80FF8
1FF00003FC0FF8
1FF00001FE1FF0
1FF80000FE3FF0
0FFC00007F7FE0
07FE00003FFFE0
07FF00003FFFC0
03FF80001FFF80
01FFE0000FFF00
00FFF8003FFF00
007FFFEFFFFE00
003FFFFFFFFC00
001FFFFFFFFE00
000FFFFFFFFE00
0003FFFFFFFF00
0000FFFFFE3F80
00001FFFF03FC0
000000BC001FC0
00000000000FE0
000000000007F0
000000000007F8
000000000003FC
ENDCHAR
STARTCHAR 0052
ENCODING 82
SWIDTH 596 0
DWIDTH 53 0
BBX 43 62 7 0
BITMAP
FFFFFFF00000
FFFFFFFE0000
FFFFFFFF8000
FFFFFFFFE000
FFFFFFFFF000
FFFFFFFFF800
FFFFFFFFFC00
FE00003FFE00
FE000007FF00
FE000001FF00
FE000000FF80
FE0000007F80
FE0000003F80
FE0000003FC0
FE0000003FC0
FE0000001FC0
FE0000001FC0
FE0000001FC0
FE0000001FC0
FE0000001FC0
FE0000001FC0
FE0000001FC0
FE0000003FC0
FE0000003FC0
FE0000003F80
FE0000007F80
FE000000FF80
FE000001FF00
FE000007FF00
FE00001FFE00
FE0003FFFC00
FFFFFFFFF800
FFFFFFFFF000
FFFFFFFFE000
FFFFFFFF8000
FFFFFFFE0000
FFFFFFF00000
FE001FE00000
FE001FF00000
FE000FF00000
FE0007F80000
FE0007FC0000
FE0003FC0000
FE0003FE0000
FE0001FE0000
FE0000FF0000
FE0000FF8000
FE00007F8000
FE00003FC000
FE00003FE000
FE00001FE000
FE00000FF000
FE00000FF800
FE000007F800
FE000003FC00
FE000003FE00
FE000001FE00
FE000000FF00
FE000000FF80
FE0000007F80
FE0000007FC0
FE0000003FE0
ENDCHAR
STARTCHAR 0053
ENCODING 83
SWIDTH 596 0
DWIDTH 53 0
BBX 44 65 5 -1
BITMAP
00000F000000
0003FFF80000
001FFFFF0000
007FFFFFC000
00FFFFFFE000
01FFFFFFF800
03FFFFFFFC00
07FFC0FFFE00
0FFE000FFE00
1FF80007FF00
1FF00001FF80
3FE00000FF80
3FE00000FFC0
3FC000007FC0
3FC000003FC0
7F8000003FE0
7F8000003FE0
7F8000001FE0
7F8000001FE0
7F8000001FE0
7F8000000000
7FC000000000
3FC000000000
3FE000000000
3FF000000000
1FF800000000
1FFE00000000
0FFF80000000
07FFFC000000
03FFFFE00000
01FFFFFE0000
007FFFFFC000
003FFFFFF000
0007FFFFF800
00007FFFFE00
000003FFFF00
0000001FFF80
00000003FF80
00000000FFC0
000000007FE0
000000003FE0
000000001FE0
000000001FF0
000000001FF0
FF0000000FF0
FF0000000FF0
FF0000000FF0
FF0000000FF0
FF8000000FF0
FF8000001FF0
7FC000001FF0
7FC000001FE0
7FE000003FE0
3FF000007FE0
3FF80000FFC0
1FFC0001FF80
0FFF0007FF80
07FFF07FFF00
03FFFFFFFE00
01FFFFFFFC00
00FFFFFFF800
007FFFFFE000
001FFFFF8000
0003FFFE0000
00003FC00000
ENDCHAR
STARTCHAR 0054
ENCODING 84
SWIDTH 585 0
DWIDTH 52 0
BBX 44 62 4 0
BITMAP
FFFFFFFFFFF0
FFFFFFFFFFF0
FFFFFFFFFFF0
FFFFFFFFFFF0
FFFFFFFFFFF0
FFFFFFFFFFF0
FFFFFFFFFFF0
00003FC00000
00003FC00000
00003FC00000
00003FC00000
00003FC00000
00003FC00000
00003FC00000
00003FC00000
00003FC00000
00003FC00000
00003FC00000
00003FC00000
00003FC00000
00003FC00000
00003FC00000
00003FC00000
00003FC00000
00003FC00000
00003FC00000
00003FC00000
00003FC00000
00003FC00000
00003FC00000
00003FC00000
00003FC00000
00003FC00000
00003FC00000
00003FC00000
00003FC00000
00003FC00000
00003FC00000
00003FC00000
00003FC00000
00003FC00000
00003FC00000
00003FC00000
00003FC00000
00003FC00000
00003FC00000
00003FC00000
00003FC00000
00003FC00000
00003FC00000
00003FC00000
00003FC00000
00003FC00000
00003FC00000
00003FC00000
00003FC00000
00003FC00000
00003FC00000
00003FC00000
00003FC00000
00003FC00000
00003FC00000
ENDCHAR
STARTCHAR 0055
ENCODING 85
SWIDTH 675 0
DWIDTH 60 0
BBX 49 63 6 -1
BITMAP
FE000000007F80
FE000000007F80
FE000000007F80
FE000000007F80
FE000000007F80
FE000000007F80
FE000000007F80
FE000000007F80
FE000000007F80
FE000000007F80
FE000000007F80
FE000000007F80
FE000000007F80
FE000000007F80
FE000000007F80
FE000000007F80
FE000000007F80
FE000000007F80
FE000000007F80
FE000000007F80
FE000000007F80
FE000000007F80
FE000000007F80
FE000000007F80
FE000000007F80
FE000000007F80
FE000000007F80
FE000000007F80
FE000000007F80
FE000000007F80
FE000000007F80
FE000000007F80
FE000000007F80
FE000000007F80
FE000000007F80
FE000000007F80
FE000000007F80
FE000000007F80
FF000000007F80
FF000000007F80
FF000000007F80
FF000000007F00
FF00000000FF00
7F80000000FF00
7F80000000FF00
7F80000001FF00
7FC0000001FE00
3FC0000001FE00
3FE0000003FE00
3FE0000003FC00
1FF0000007FC00
1FF800000FF800
0FFC00001FF800
07FE00007FF000
07FFC001FFE000
03FFFFFFFFE000
01FFFFFFFFC000
00FFFFFFFF8000
007FFFFFFE0000
001FFFFFFC0000
0007FFFFF00000
0001FFFF800000
000007F0000000
ENDCHAR
STARTCHAR 0056
ENCODING 86
SWIDTH 630 0
DWIDTH 56 0
BBX 53 62 2 0
BITMAP
FE0000000007F8
FF0000000007F0
FF000000000FF0
7F000000000FF0
7F800000000FE0
7F800000001FE0
3F800000001FE0
3FC00000001FC0
3FC00000003FC0
1FC00000003FC0
1FE00000003F80
1FE00000007F80
0FE00000007F80
0FF00000007F00
0FF0000000FF00
07F8000000FF00
07F8000001FE00
07F8000001FE00
03FC000001FE00
03FC000003FC00
03FC000003FC00
01FE000003FC00
01FE000007F800
01FE000007F800
00FF000007F000
00FF00000FF000
007F00000FF000
007F80000FE000
007F80001FE000
003F80001FE000
003FC0001FC000
003FC0003FC000
001FC0003FC000
001FE0003F8000
001FE0007F8000
000FE0007F8000
000FF0007F0000
000FF000FF0000
0007F000FF0000
0007F800FE0000
0007F801FE0000
0003F801FE0000
0003FC03FC0000
0003FC03FC0000
0001FE03FC0000
0001FE07F80000
0001FE07F80000
0000FF07F80000
0000FF0FF00000
0000FF0FF00000
00007F8FF00000
00007F9FE00000
00003F9FE00000
00003FDFC00000
00003FFFC00000
00001FFFC00000
00001FFF800000
00001FFF800000
00000FFF800000
00000FFF000000
00000FFF000000
000007FF000000
ENDCHAR
STARTCHAR 0057
ENCODING 87
SWIDTH 990 0
DWIDTH 88 0
BBX 85 62 2 0
BITMAP
FE00000003FC00000007F8
FE00000003FC00000007F0
FF00000003FE00000007F0
FF00000007FE0000000FF0
7F00000007FE0000000FF0
7F00000007FE0000000FE0
7F8000000FFF0000000FE0
7F8000000FFF0000001FE0
3F8000000FFF0000001FE0
3FC000001FFF8000001FC0
3FC000001FFF8000003FC0
3FC000001FFF8000003FC0
1FC000003FFFC000003FC0
1FE000003FFFC000003F80
1FE000003F9FC000007F80
0FE000007F9FE000007F80
0FE000007F9FE000007F00
0FF000007F0FE000007F00
0FF000007F0FF00000FF00
07F00000FF0FF00000FF00
07F00000FE07F00000FE00
07F80000FE07F80000FE00
07F80001FE07F80001FE00
03F80001FE03F80001FE00
03F80001FC03FC0001FC00
03FC0003FC03FC0001FC00
03FC0003FC01FC0003FC00
01FC0003F801FE0003FC00
01FC0007F801FE0003F800
01FE0007F800FE0007F800
00FE0007F000FF0007F800
00FE000FF000FF0007F000
00FF000FF0007F0007F000
00FF000FE0007F800FF000
007F001FE0007F800FF000
007F001FE0003F800FE000
007F801FC0003FC00FE000
007F803FC0003FC01FE000
003F803FC0001FC01FE000
003F803F80001FC01FC000
003FC07F80001FE01FC000
003FC07F80001FE03FC000
001FC07F00000FE03F8000
001FC0FF00000FF03F8000
001FE0FF00000FF03F8000
000FE0FE000007F07F8000
000FE1FE000007F87F0000
000FE1FE000007F87F0000
000FF1FC000003F8FF0000
0007F3FC000003FCFF0000
0007F3FC000003FCFE0000
0007F3F8000001FCFE0000
0007FFF8000001FFFE0000
0003FFF8000001FFFE0000
0003FFF8000000FFFC0000
0003FFF0000000FFFC0000
0003FFF0000000FFFC0000
0001FFF00000007FF80000
0001FFE00000007FF80000
0001FFE00000007FF80000
0000FFE00000003FF80000
0000FFC00000003FF00000
ENDCHAR
STARTCHAR 0058
ENCODING 88
SWIDTH 652 0
DWIDTH 58 0
BBX 51 62 4 0
BITMAP
FF800000003FE0
7F800000007FC0
7FC00000007F80
3FE0000000FF80
1FE0000001FF00
1FF0000001FE00
0FF8000003FE00
07F8000007FC00
07FC000007F800
03FE00000FF800
01FE00001FF000
01FF00001FE000
00FF80003FE000
007F80003FC000
007FC0007F8000
003FE000FF8000
001FE000FF0000
001FF001FE0000
000FF803FE0000
0007F803FC0000
0007FC07F80000
0003FE0FF80000
0001FE0FF00000
0001FF1FE00000
0000FFBFE00000
00007FFFC00000
00007FFF800000
00003FFF800000
00001FFF000000
00001FFE000000
00000FFE000000
00000FFE000000
00001FFF000000
00001FFF000000
00003FFF800000
00007FFFC00000
00007FBFC00000
0000FF3FE00000
0001FF1FF00000
0001FE0FF00000
0003FC0FF80000
0007FC07FC0000
0007F803FC0000
000FF003FE0000
001FF001FF0000
001FE000FF0000
003FC000FF8000
007FC0007FC000
007F80003FC000
00FF00003FE000
01FF00001FE000
01FE00000FF000
03FC00000FF800
07FC000007F800
07F8000003FC00
0FF0000003FE00
1FF0000001FE00
1FE0000000FF00
3FE0000000FF80
7FC00000007F80
7F800000007FC0
FF800000003FE0
ENDCHAR
STARTCHAR 0059
ENCODING 89
SWIDTH 607 0
DWIDTH 54 0
BBX 48 62 3 0
BITMAP
FF80000001FF
7F80000001FE
7FC0000003FE
3FC0000003FC
3FE0000007FC
1FE0000007F8
1FF0000007F8
0FF000000FF0
0FF800000FF0
07F800001FE0
07FC00001FE0
03FC00003FC0
03FE00003FC0
01FE00007F80
00FF00007F80
00FF0000FF00
007F8000FF00
007F8001FE00
003FC001FE00
003FC003FC00
001FE003FC00
001FE007F800
000FF007F800
000FF00FF000
0007F80FF000
0007F81FE000
0003FC1FE000
0003FC3FC000
0001FE3FC000
0001FE7F8000
0000FF7F8000
0000FFFF0000
00007FFF0000
00007FFE0000
00003FFE0000
00003FFC0000
00001FFC0000
00001FF80000
00000FF80000
00000FF00000
00000FF00000
00000FF00000
00000FF00000
00000FF00000
00000FF00000
00000FF00000
00000FF00000
00000FF00000
00000FF00000
00000FF00000
00000FF00000
00000FF00000
00000FF00000
00000FF00000
00000FF00000
00000FF00000
00000FF00000
00000FF00000
00000FF00000
00000FF00000
00000FF00000
00000FF00000
ENDCHAR
STARTCHAR 005A
ENCODING 90
SWIDTH 607 0
DWIDTH 54 0
BBX 44 62 5 0
BITMAP
FFFFFFFFFFF0
FFFFFFFFFFF0
FFFFFFFFFFF0
FFFFFFFFFFF0
FFFFFFFFFFF0
FFFFFFFFFFF0
FFFFFFFFFFF0
000000003FE0
000000007FC0
000000007FC0
00000000FF80
00000001FF00
00000003FF00
00000003FE00
00000007FC00
0000000FF800
0000001FF800
0000001FF000
0000003FE000
0000007FE000
0000007FC000
000000FF8000
000001FF0000
000003FF0000
000003FE0000
000007FC0000
00000FF80000
00001FF80000
00001FF00000
00003FE00000
00007FE00000
00007FC00000
0000FF800000
0001FF000000
0003FF000000
0003FE000000
0007FC000000
000FF8000000
001FF8000000
001FF0000000
003FE0000000
007FE0000000
007FC0000000
00FF80000000
01FF00000000
03FF00000000
03FE00000000
07FC00000000
0FF800000000
0FF800000000
1FF000000000
3FE000000000
7FE000000000
7FC000000000
FF8000000000
FFFFFFFFFFF0
FFFFFFFFFFF0
FFFFFFFFFFF0
FFFFFFFFFFF0
FFFFFFFFFFF0
FFFFFFFFFFF0
FFFFFFFFFFF0
ENDCHAR
STARTCHAR 005B
ENCODING 91
SWIDTH 438 0
DWIDTH 39 0
BBX 25 89 7 -16
BITMAP
FFFFFF80
FFFFFF80
FFFFFF80
FFFFFF80
FFFFFF80
FFFFFF80
FFFFFF80
FC000000
FC000000
FC000000
FC000000
FC000000
FC000000
FC000000
FC000000
FC000000
FC000000
FC000000
FC000000
FC000000
FC000000
FC000000
FC000000
FC000000
FC000000
FC000000
FC000000
FC000000
FC000000
FC000000
FC000000
FC000000
FC000000
FC000000
FC000000
FC000000
FC000000
FC000000
FC000000
FC000000
FC000000
FC000000
FC000000
FC000000
FC000000
FC000000
FC000000
FC000000
FC000000
FC000000
FC000000
FC000000
FC000000
FC000000
FC000000
FC000000
FC000000
FC000000
FC000000
FC000000
FC000000
FC000000
FC000000
FC000000
FC000000
FC000000
FC000000
FC000000
FC000000
FC000000
FC000000
FC000000
FC000000
FC000000
FC000000
FC000000
FC000000
FC000000
FC000000
FC000000
FC000000
FC000000
FC000000
FFFFFF80
FFFFFF80
FFFFFF80
FFFFFF80
FFFFFF80
FFFFFF80
ENDCHAR
STARTCHAR 005C
ENCODING 92
SWIDTH 506 0
DWIDTH 45 0
BBX 37 85 3 -14
BITMAP
FE00000000
FE00000000
FF00000000
7F00000000
7F80000000
7F80000000
3F80000000
3FC0000000
1FC0000000
1FC0000000
1FE0000000
0FE0000000
0FE0000000
0FF0000000
07F0000000
07F8000000
07F8000000
03F8000000
03FC000000
03FC000000
01FC000000
01FE000000
00FE000000
00FE000000
00FF000000
007F000000
007F000000
007F800000
003F800000
003FC00000
003FC00000
001FC00000
001FE00000
000FE00000
000FE00000
000FF00000
0007F00000
0007F00000
0007F80000
0003F80000
0003FC0000
0003FC0000
0001FC0000
0001FE0000
0000FE0000
0000FE0000
0000FF0000
00007F0000
00007F0000
00007F8000
00003F8000
00003F8000
00003FC000
00001FC000
00001FE000
00000FE000
00000FE000
00000FF000
000007F000
000007F000
000007F800
000003F800
000003F800
000003FC00
000001FC00
000001FE00
000000FE00
000000FE00
000000FF00
0000007F00
0000007F00
0000007F80
0000003F80
0000003F80
0000003FC0
0000001FC0
0000001FE0
0000001FE0
0000000FE0
0000000FF0
00000007F0
00000007F0
00000007F8
00000003F8
00000003F8
ENDCHAR
STARTCHAR 005D
ENCODING 93
SWIDTH 427 0
DWIDTH 38 0
BBX 26 89 6 -16
BITMAP
FFFFFFC0
FFFFFFC0
FFFFFFC0
FFFFFFC0
FFFFFFC0
FFFFFFC0
FFFFFFC0
00001FC0
00001FC0
00001FC0
00001FC0
00001FC0
00001FC0
00001FC0
00001FC0
00001FC0
00001FC0
00001FC0
00001FC0
00001FC0
00001FC0
00001FC0
00001FC0
00001FC0
00001FC0
00001FC0
00001FC0
00001FC0
00001FC0
00001FC0
00001FC0
00001FC0
00001FC0
00001FC0
00001FC0
00001FC0
00001FC0
00001FC0
00001FC0
00001FC0
00001FC0
00001FC0
00001FC0
00001FC0
00001FC0
00001FC0
00001FC0
00001FC0
00001FC0
00001FC0
00001FC0
00001FC0
00001FC0
00001FC0
00001FC0
00001FC0
00001FC0
00001FC0
00001FC0
00001FC0
00001FC0
00001FC0
00001FC0
00001FC0
00001FC0
00001FC0
00001FC0
00001FC0
00001FC0
00001FC0
00001FC0
00001FC0
00001FC0
00001FC0
00001FC0
00001FC0
00001FC0
00001FC0
00001FC0
00001FC0
00001FC0
00001FC0
00001FC0
FFFFFFC0
FFFFFFC0
FFFFFFC0
FFFFFFC0
FFFFFFC0
FFFFFFC0
ENDCHAR
STARTCHAR 005E
ENCODING 94
SWIDTH 416 0
DWIDTH 37 0
BBX 31 17 3 50
BITMAP
001FF000
003FF800
007FFC00
00FFFC00
00FEFE00
01FCFF00
03FC7F80
03F83F80
07F01FC0
0FF01FE0
1FE00FE0
1FC007F0
3F8007F8
7F8003FC
FF0001FC
FE0000FE
FE0000FE
ENDCHAR
STARTCHAR 005F
ENCODING 95
SWIDTH 697 0
DWIDTH 62 0
BBX 43 6 10 0
BITMAP
FFFFFFFFFFE0
FFFFFFFFFFE0
FFFFFFFFFFE0
FFFFFFFFFFE0
FFFFFFFFFFE0
FFFFFFFFFFE0
ENDCHAR
STARTCHAR 0060
ENCODING 96
SWIDTH 247 0
DWIDTH 22 0
BBX 16 16 3 55
BITMAP
FF00
7F80
7F80
3FC0
1FC0
1FE0
0FE0
07F0
07F8
03F8
01FC
00FC
00FE
007E
003F
003F
ENDCHAR
STARTCHAR 0061
ENCODING 97
SWIDTH 618 0
DWIDTH 55 0
BBX 44 49 4 -1
BITMAP
0001FF800000
000FFFF007F0
003FFFFC07F0
007FFFFE07F0
00FFFFFF07F0
01FFFFFF87F0
03FFFFFFC7F0
07FF800FE7F0
0FFE0007E7F0
0FF80001F7F0
1FF00000FFF0
1FF000007FF0
3FE000007FF0
3FC000003FF0
3FC000003FF0
7F8000001FF0
7F8000001FF0
7F8000001FF0
7F8000000FF0
FF0000000FF0
FF0000000FF0
FF0000000FF0
FF0000000FF0
FF0000000FF0
FF0000000FF0
FF0000000FF0
FF0000000FF0
FF0000000FF0
FF0000000FF0
7F0000000FF0
7F8000000FF0
7F8000001FF0
7F8000001FF0
7FC000001FF0
3FC000003FF0
3FE000003FF0
3FE000007FF0
1FF00000FFF0
1FF80001F7F0
0FFC0003E7F0
0FFF0007E7F0
07FFC03FC7F0
03FFFFFF87F0
01FFFFFF07F0
00FFFFFE07F0
007FFFFC07F0
001FFFF807F0
0007FFE007F0
00003C000000
ENDCHAR
STARTCHAR 0062
ENCODING 98
SWIDTH 607 0
DWIDTH 54 0
BBX 44 68 7 -1
BITMAP
FE0000000000
FE0000000000
FE0000000000
FE0000000000
FE0000000000
FE0000000000
FE0000000000
FE0000000000
FE0000000000
FE0000000000
FE0000000000
FE0000000000
FE0000000000
FE0000000000
FE0000000000
FE0000000000
FE0000000000
FE0000000000
FE0000000000
FE001FF80000
FE00FFFF0000
FE03FFFFC000
FE07FFFFE000
FE0FFFFFF000
FE1FFFFFF800
FE3FFFFFFC00
FE7F001FFE00
FE7C0007FF00
FEF80003FF00
FFF00001FF80
FFE00000FF80
FFC000007FC0
FFC000007FC0
FF8000003FC0
FF8000003FE0
FF8000001FE0
FF0000001FE0
FF0000001FE0
FF0000001FE0
FF0000001FE0
FF0000000FF0
FF0000000FF0
FE0000000FF0
FE0000000FF0
FE0000000FF0
FF0000000FF0
FF0000000FF0
FF0000001FE0
FF0000001FE0
FF0000001FE0
FF0000001FE0
FF8000003FE0
FF8000003FC0
FFC000003FC0
FFC000007FC0
FFE00000FF80
FFF00000FF80
FEF00001FF80
FE7C0003FF00
FE7E000FFE00
FE3FC03FFE00
FE1FFFFFFC00
FE0FFFFFF800
FE07FFFFF000
FE03FFFFC000
FE01FFFF8000
FE007FFE0000
000007E00000
ENDCHAR
STARTCHAR 0063
ENCODING 99
SWIDTH 573 0
DWIDTH 51 0
BBX 42 49 5 -1
BITMAP
0000FFE00000
0007FFFC0000
001FFFFF0000
007FFFFFC000
00FFFFFFE000
01FFFFFFF000
03FFF9FFF800
07FF001FFC00
0FFC0007FE00
1FF80003FE00
1FF00001FF00
3FE00000FF00
3FC000007F80
7FC000007F80
7F8000003F80
7F8000003FC0
FF0000003FC0
FF0000001FC0
FF0000000000
FF0000000000
FF0000000000
FE0000000000
FE0000000000
FE0000000000
FE0000000000
FE0000000000
FE0000000000
FE0000000000
FF0000000000
FF0000000000
FF0000001FC0
FF0000001FC0
7F8000003FC0
7F8000003FC0
7F8000003F80
3FC000007F80
3FE000007F80
1FE00000FF00
1FF00001FF00
0FF80003FE00
0FFE0007FC00
07FF803FFC00
03FFFFFFF800
01FFFFFFF000
00FFFFFFE000
003FFFFF8000
000FFFFF0000
0003FFF80000
00000E800000
ENDCHAR
STARTCHAR 0064
ENCODING 100
SWIDTH 618 0
DWIDTH 55 0
BBX 44 68 4 -1
BITMAP
0000000007F0
0000000007F0
0000000007F0
0000000007F0
0000000007F0
0000000007F0
0000000007F0
0000000007F0
0000000007F0
0000000007F0
0000000007F0
0000000007F0
0000000007F0
0000000007F0
0000000007F0
0000000007F0
0000000007F0
0000000007F0
0000000007F0
0001FF8007F0
000FFFF007F0
003FFFFC07F0
007FFFFE07F0
00FFFFFF07F0
01FFFFFF87F0
03FFFFFFC7F0
07FF800FE7F0
0FFE0003E7F0
0FFC0001F7F0
1FF80000FFF0
1FF000007FF0
3FE000007FF0
3FE000003FF0
3FC000001FF0
7FC000001FF0
7F8000001FF0
7F8000000FF0
7F8000000FF0
7F8000000FF0
7F0000000FF0
FF0000000FF0
FF0000000FF0
FF00000007F0
FF00000007F0
FF0000000FF0
FF0000000FF0
FF0000000FF0
7F0000000FF0
7F8000000FF0
7F8000000FF0
7F8000000FF0
7F8000001FF0
3FC000001FF0
3FC000003FF0
3FE000003FF0
1FE000007FF0
1FF00000FFF0
1FF80000F7F0
0FFC0003E7F0
07FF0007E7F0
07FFC03FC7F0
03FFFFFF87F0
01FFFFFF07F0
00FFFFFE07F0
007FFFFC07F0
001FFFF807F0
0007FFE007F0
00007E000000
ENDCHAR
STARTCHAR 0065
ENCODING 101
SWIDTH 573 0
DWIDTH 51 0
BBX 42 49 5 -1
BITMAP
0000FFE00000
0007FFFC0000
001FFFFF0000
007FFFFFC000
00FFFFFFE000
01FFFFFFF000
03FF807FF800
07FE000FFC00
0FF80003FC00
1FF00001FE00
1FE00000FE00
3FC00000FF00
3FC000007F00
7F8000007F80
7F8000003F80
7F0000003F80
FF0000003F80
FF0000003FC0
FF0000003FC0
FE0000001FC0
FE0000001FC0
FFFFFFFFFFC0
FFFFFFFFFFC0
FFFFFFFFFFC0
FFFFFFFFFFC0
FFFFFFFFFFC0
FE0000000000
FE0000000000
FE0000000000
FE0000000000
FF0000000000
FF0000000000
7F0000000000
7F0000000000
7F8000003F80
3FC000007F80
3FC00000FF80
1FE00000FF00
1FF00001FF00
0FF80003FE00
0FFE000FFC00
07FF803FF800
03FFFFFFF800
01FFFFFFF000
00FFFFFFC000
003FFFFF8000
001FFFFE0000
0003FFF80000
00003E000000
ENDCHAR
STARTCHAR 0066
ENCODING 102
SWIDTH 371 0
DWIDTH 33 0
BBX 25 66 4 0
BITMAP
00003C00
0007FF80
001FFF80
003FFF80
007FFF80
00FFFF80
00FFC000
01FF0000
01FE0000
01FE0000
01FE0000
01FC0000
01FC0000
01FC0000
01FC0000
01FC0000
01FC0000
01FC0000
01FC0000
FFFFFF80
FFFFFF80
FFFFFF80
FFFFFF80
FFFFFF80
FFFFFF80
01FC0000
01FC0000
01FC0000
01FC0000
01FC0000
01FC0000
01FC0000
01FC0000
01FC0000
01FC0000
01FC0000
01FC0000
01FC0000
01FC0000
01FC0000
01FC0000
01FC0000
01FC0000
01FC0000
01FC0000
01FC0000
01FC0000
01FC0000
01FC0000
01FC0000
01FC0000
01FC0000
01FC0000
01FC0000
01FC0000
01FC0000
01FC0000
01FC0000
01FC0000
01FC0000
01FC0000
01FC0000
01FC0000
01FC0000
01FC0000
01FC0000
ENDCHAR
STARTCHAR 0067
ENCODING 103
SWIDTH 618 0
DWIDTH 55 0
BBX 44 67 5 -19
BITMAP
0003FF800000
001FFFE00FF0
007FFFF80FF0
00FFFFFC0FF0
01FFFFFE0FF0
03FFFFFF0FF0
07FFF9FF8FF0
0FFF001FCFF0
1FFC0007CFF0
1FF80003EFF0
3FF00001FFF0
3FE00000FFF0
7FC000007FF0
7FC000007FF0
7F8000003FF0
FF8000003FF0
FF8000001FF0
FF0000001FF0
FF0000001FF0
FF0000001FF0
FF0000000FF0
FF0000000FF0
FF0000000FF0
FF0000000FF0
FF0000000FF0
FF0000000FF0
FF0000001FF0
FF0000001FF0
FF0000001FF0
FF0000001FF0
FF8000001FF0
FF8000003FF0
7F8000003FF0
7FC000007FF0
7FC000007FF0
3FE00000FFF0
3FF00001FFF0
1FF80003EFF0
1FFC0007EFF0
0FFF001FCFF0
07FFF0FF8FF0
03FFFFFF0FF0
01FFFFFE0FF0
00FFFFFC0FF0
007FFFF80FF0
001FFFE00FF0
0003FF000FF0
000000000FF0
000000000FE0
000000000FE0
000000001FE0
000000001FE0
000000001FE0
000000003FC0
000000003FC0
000000007FC0
00000000FF80
00000001FF80
00000007FF00
0001803FFE00
0001FFFFFC00
0001FFFFF800
0001FFFFF000
0001FFFFE000
0001FFFF8000
0001FFFE0000
00000FE00000
ENDCHAR
STARTCHAR 0068
ENCODING 104
SWIDTH 607 0
DWIDTH 54 0
BBX 41 66 7 0
BITMAP
FE0000000000
FE0000000000
FE0000000000
FE0000000000
FE0000000000
FE0000000000
FE0000000000
FE0000000000
FE0000000000
FE0000000000
FE0000000000
FE0000000000
FE0000000000
FE0000000000
FE0000000000
FE0000000000
FE0000000000
FE0000000000
FE001FF80000
FE00FFFE0000
FE03FFFF8000
FE07FFFFE000
FE0FFFFFF000
FE1FFFFFF800
FE3FFFFFF800
FE7F007FFC00
FE7C000FFE00
FEF00007FE00
FFE00003FF00
FFC00001FF00
FFC00000FF00
FF800000FF80
FF8000007F80
FF0000007F80
FF0000007F80
FF0000007F80
FE0000003F80
FE0000003F80
FE0000003F80
FE0000003F80
FE0000003F80
FE0000003F80
FE0000003F80
FE0000003F80
FE0000003F80
FE0000003F80
FE0000003F80
FE0000003F80
FE0000003F80
FE0000003F80
FE0000003F80
FE0000003F80
FE0000003F80
FE0000003F80
FE0000003F80
FE0000003F80
FE0000003F80
FE0000003F80
FE0000003F80
FE0000003F80
FE0000003F80
FE0000003F80
FE0000003F80
FE0000003F80
FE0000003F80
FE0000003F80
ENDCHAR
STARTCHAR 0069
ENCODING 105
SWIDTH 247 0
DWIDTH 22 0
BBX 10 66 6 0
BITMAP
0400
3F00
7F80
FFC0
FFC0
FFC0
FFC0
FFC0
7F80
3F00
0000
0000
0000
0000
0000
0000
0000
0000
0000
7F80
7F80
7F80
7F80
7F80
7F80
7F80
7F80
7F80
7F80
7F80
7F80
7F80
7F80
7F80
7F80
7F80
7F80
7F80
7F80
7F80
7F80
7F80
7F80
7F80
7F80
7F80
7F80
7F80
7F80
7F80
7F80
7F80
7F80
7F80
7F80
7F80
7F80
7F80
7F80
7F80
7F80
7F80
7F80
7F80
7F80
7F80
ENDCHAR
STARTCHAR 006A
ENCODING 106
SWIDTH 247 0
DWIDTH 22 0
BBX 20 85 -3 -19
BITMAP
000200
000FC0
001FE0
003FE0
003FF0
003FF0
003FF0
003FE0
001FE0
000FC0
000000
000000
000000
000000
000000
000000
000000
000000
000000
001FC0
001FC0
001FC0
001FC0
001FC0
001FC0
001FC0
001FC0
001FC0
001FC0
001FC0
001FC0
001FC0
001FC0
001FC0
001FC0
001FC0
001FC0
001FC0
001FC0
001FC0
001FC0
001FC0
001FC0
001FC0
001FC0
001FC0
001FC0
001FC0
001FC0
001FC0
001FC0
001FC0
001FC0
001FC0
001FC0
001FC0
001FC0
001FC0
001FC0
001FC0
001FC0
001FC0
001FC0
001FC0
001FC0
001FC0
001FC0
001FC0
001FC0
001FC0
001FC0
001FC0
001FC0
001FC0
003FC0
003FC0
003FC0
007FC0
00FFC0
E7FF80
FFFF80
FFFF00
FFFE00
FFFC00
FFF000
ENDCHAR
STARTCHAR 006B
ENCODING 107
SWIDTH 506 0
DWIDTH 45 0
BBX 35 66 7 0
BITMAP
FF00000000
FF00000000
FF00000000
FF00000000
FF00000000
FF00000000
FF00000000
FF00000000
FF00000000
FF00000000
FF00000000
FF00000000
FF00000000
FF00000000
FF00000000
FF00000000
FF00000000
FF00000000
FF00000000
FF00007FC0
FF0000FF80
FF0001FF00
FF0003FE00
FF0007FC00
FF000FF800
FF001FF000
FF003FE000
FF007FC000
FF00FF8000
FF01FF0000
FF03FE0000
FF07FC0000
FF0FF80000
FF1FF00000
FF3FE00000
FF7FC00000
FFFF800000
FFFF000000
FFFE000000
FFFE000000
FFFC000000
FFFE000000
FFFF000000
FFFF800000
FF7F800000
FF3FC00000
FF1FE00000
FF0FF00000
FF0FF80000
FF07FC0000
FF03FC0000
FF01FE0000
FF00FF0000
FF00FF8000
FF007FC000
FF003FE000
FF001FE000
FF000FF000
FF000FF800
FF0007FC00
FF0003FE00
FF0001FF00
FF0000FF00
FF00007F80
FF00007FC0
FF00003FE0
ENDCHAR
STARTCHAR 006C
ENCODING 108
SWIDTH 303 0
DWIDTH 27 0
BBX 17 67 7 0
BITMAP
FF0000
FF0000
FF0000
FF0000
FF0000
FF0000
FF0000
FF0000
FF0000
FF0000
FF0000
FF0000
FF0000
FF0000
FF0000
FF0000
FF0000
FF0000
FF0000
FF0000
FF0000
FF0000
FF0000
FF0000
FF0000
FF0000
FF0000
FF0000
FF0000
FF0000
FF0000
FF0000
FF0000
FF0000
FF0000
FF0000
FF0000
FF0000
FF0000
FF0000
FF0000
FF0000
FF0000
FF0000
FF0000
FF0000
FF0000
FF0000
FF0000
FF0000
FF0000
FF0000
FF0000
FF0000
FF0000
FF0000
FF0000
FF0000
FF0000
FF8000
FF8000
7FF080
7FFF80
3FFF80
3FFF80
0FFF80
07FF80
ENDCHAR
STARTCHAR 006D
ENCODING 109
SWIDTH 956 0
DWIDTH 85 0
BBX 72 48 7 0
BITMAP
00003FF000003FF000
FE00FFFC0001FFFE00
FE03FFFF0007FFFF00
FE07FFFF800FFFFFC0
FE1FFFFFC01FFFFFE0
FE3FFFFFE03FFFFFE0
FE3FFFFFF03FFFFFF0
FE7F00FFF07F00FFF8
FEFC003FF8FC003FF8
FEF0000FFCF8000FFC
FFE00007FDE00007FC
FFC00003FFC00003FE
FF800003FFC00001FE
FF800001FF800001FE
FF000001FF800000FF
FF000001FF000000FF
FF000000FF000000FF
FE000000FF000000FF
FE000000FF000000FF
FE000000FF0000007F
FE000000FF0000007F
FE000000FF0000007F
FE000000FF0000007F
FE000000FF0000007F
FE000000FF0000007F
FE000000FF0000007F
FE000000FF0000007F
FE000000FF0000007F
FE000000FF0000007F
FE000000FF0000007F
FE000000FF0000007F
FE000000FF0000007F
FE000000FF0000007F
FE000000FF0000007F
FE000000FF0000007F
FE000000FF0000007F
FE000000FF0000007F
FE000000FF0000007F
FE000000FF0000007F
FE000000FF0000007F
FE000000FF0000007F
FE000000FF0000007F
FE000000FF0000007F
FE000000FF0000007F
FE000000FF0000007F
FE000000FF0000007F
FE000000FF0000007F
FE000000FF0000007F
ENDCHAR
STARTCHAR 006E
ENCODING 110
SWIDTH 607 0
DWIDTH 54 0
BBX 41 48 7 0
BITMAP
00001FF80000
FE00FFFE0000
FE03FFFF8000
FE07FFFFE000
FE0FFFFFF000
FE1FFFFFF800
FE3FFFFFF800
FE7F007FFC00
FE7C000FFE00
FEF00007FE00
FFE00003FF00
FFC00001FF00
FFC00000FF00
FF800000FF80
FF8000007F80
FF0000007F80
FF0000007F80
FF0000007F80
FE0000003F80
FE0000003F80
FE0000003F80
FE0000003F80
FE0000003F80
FE0000003F80
FE0000003F80
FE0000003F80
FE0000003F80
FE0000003F80
FE0000003F80
FE0000003F80
FE0000003F80
FE0000003F80
FE0000003F80
FE0000003F80
FE0000003F80
FE0000003F80
FE0000003F80
FE0000003F80
FE0000003F80
FE0000003F80
FE0000003F80
FE0000003F80
FE0000003F80
FE0000003F80
FE0000003F80
FE0000003F80
FE0000003F80
FE0000003F80
ENDCHAR
STARTCHAR 006F
ENCODING 111
SWIDTH 585 0
DWIDTH 52 0
BBX 43 49 5 -1
BITMAP
0000FFE00000
0007FFFC0000
001FFFFF0000
007FFFFFC000
00FFFFFFE000
01FFFFFFF000
03FFF3FFF800
07FF001FFC00
0FFC0007FE00
1FF80003FE00
1FF00001FF00
3FE00000FF80
3FC000007F80
7FC000007F80
7F8000003FC0
7F8000003FC0
FF0000001FC0
FF0000001FE0
FF0000001FE0
FF0000001FE0
FE0000001FE0
FE0000000FE0
FE0000000FE0
FE0000000FE0
FE0000000FE0
FE0000000FE0
FE0000000FE0
FE0000001FE0
FE0000001FE0
FF0000001FE0
FF0000001FE0
FF0000001FC0
7F8000003FC0
7F8000003FC0
7F8000007FC0
3FC000007F80
3FE00000FF80
1FE00001FF00
1FF00003FF00
0FFC0007FE00
0FFE000FFC00
07FFC07FFC00
03FFFFFFF800
01FFFFFFF000
00FFFFFFC000
003FFFFF8000
000FFFFE0000
0003FFF80000
00001E000000
ENDCHAR
STARTCHAR 0070
ENCODING 112
SWIDTH 618 0
DWIDTH 55 0
BBX 44 66 7 -18
BITMAP
00001FF80000
FE00FFFF0000
FE03FFFFC000
FE07FFFFE000
FE0FFFFFF000
FE1FFFFFF800
FE3FFFFFFC00
FE7F001FFE00
FE7C0007FF00
FEF80003FF00
FFF00001FF80
FFE00000FF80
FFC000007FC0
FFC000007FC0
FF8000003FC0
FF8000003FE0
FF8000001FE0
FF0000001FE0
FF0000001FE0
FF0000001FE0
FF0000001FE0
FF0000000FF0
FF0000000FF0
FE0000000FF0
FE0000000FF0
FE0000000FF0
FF0000000FF0
FF0000000FF0
FF0000001FE0
FF0000001FE0
FF0000001FE0
FF0000001FE0
FF8000003FE0
FF8000003FC0
FFC000003FC0
FFC000007FC0
FFE00000FF80
FFF00000FF80
FEF00001FF80
FE7C0003FF00
FE7E000FFE00
FE3FC03FFE00
FE1FFFFFFC00
FE0FFFFFF800
FE07FFFFF000
FE03FFFFC000
FE01FFFF8000
FE007FFE0000
FE0007E00000
FE0000000000
FE0000000000
FE0000000000
FE0000000000
FE0000000000
FE0000000000
FE0000000000
FE0000000000
FE0000000000
FE0000000000
FE0000000000
FE0000000000
FE0000000000
FE0000000000
FE0000000000
FE0000000000
FE0000000000
ENDCHAR
STARTCHAR 0071
ENCODING 113
SWIDTH 618 0
DWIDTH 55 0
BBX 44 66 5 -18
BITMAP
0003FF800000
001FFFE00FF0
003FFFF80FF0
00FFFFFC0FF0
01FFFFFE0FF0
03FFFFFF0FF0
07FFFFFF8FF0
0FFF001FCFF0
0FFC0007EFF0
1FF80003EFF0
1FF00001FFF0
3FE00000FFF0
3FC000007FF0
7FC000007FF0
7F8000003FF0
7F8000003FF0
FF8000001FF0
FF0000001FF0
FF0000001FF0
FF0000001FF0
FF0000000FF0
FF0000000FF0
FF0000000FF0
FF0000000FF0
FF0000000FF0
FF0000000FF0
FF0000000FF0
FF0000000FF0
FF0000001FF0
FF0000001FF0
FF0000001FF0
FF0000001FF0
7F8000003FF0
7F8000003FF0
7FC000003FF0
7FC000007FF0
3FE00000FFF0
3FF00000FFF0
1FF00001EFF0
1FFC0003EFF0
0FFE000FCFF0
07FFC03F8FF0
07FFFFFF8FF0
03FFFFFF0FF0
01FFFFFE0FF0
007FFFF80FF0
003FFFF00FF0
0007FFC00FF0
000078000FF0
000000000FF0
000000000FF0
000000000FF0
000000000FF0
000000000FF0
000000000FF0
000000000FF0
000000000FF0
000000000FF0
000000000FF0
000000000FF0
000000000FF0
000000000FF0
000000000FF0
000000000FF0
000000000FF0
000000000FF0
ENDCHAR
STARTCHAR 0072
ENCODING 114
SWIDTH 348 0
DWIDTH 31 0
BBX 24 47 6 0
BITMAP
FF007E
FF03FF
FF0FFF
FF1FFF
FF3FFF
FF3FFF
FF7FFF
FF7FCF
FFFC00
FFF000
FFE000
FFC000
FFC000
FF8000
FF8000
FF0000
FF0000
FF0000
FF0000
FF0000
FF0000
FF0000
FF0000
FF0000
FF0000
FF0000
FF0000
FF0000
FF0000
FF0000
FF0000
FF0000
FF0000
FF0000
FF0000
FF0000
FF0000
FF0000
FF0000
FF0000
FF0000
FF0000
FF0000
FF0000
FF0000
FF0000
FF0000
ENDCHAR
STARTCHAR 0073
ENCODING 115
SWIDTH 495 0
DWIDTH 44 0
BBX 36 49 4 -1
BITMAP
0007FE0000
003FFFC000
00FFFFF000
03FFFFFC00
07FFFFFE00
0FFFFFFF00
1FFC03FF80
1FF000FF80
3FC0007FC0
3FC0003FC0
3F80001FE0
3F80001FE0
7F00001FE0
7F00000FE0
7F80000FE0
3F80000000
3F80000000
3FC0000000
3FE0000000
1FF8000000
1FFF800000
0FFFFE0000
07FFFFE000
01FFFFF800
00FFFFFE00
001FFFFF00
0001FFFF80
000003FFC0
0000007FE0
0000003FE0
0000001FF0
0000000FF0
00000007F0
FF000007F0
FF000007F0
FF000007F0
7F800007F0
7F80000FF0
7FC0000FF0
3FE0001FE0
3FF0003FE0
1FFC00FFC0
0FFFFFFF80
07FFFFFF80
03FFFFFE00
01FFFFFC00
007FFFF000
001FFFC000
0000F00000
ENDCHAR
STARTCHAR 0074
ENCODING 116
SWIDTH 382 0
DWIDTH 34 0
BBX 27 62 3 0
BITMAP
007F0000
007F0000
007F0000
007F0000
007F0000
007F0000
007F0000
007F0000
007F0000
007F0000
007F0000
007F0000
007F0000
007F0000
007F0000
FFFFFFE0
FFFFFFE0
FFFFFFE0
FFFFFFE0
FFFFFFE0
FFFFFFE0
007F0000
007F0000
007F0000
007F0000
007F0000
007F0000
007F0000
007F0000
007F0000
007F0000
007F0000
007F0000
007F0000
007F0000
007F0000
007F0000
007F0000
007F0000
007F0000
007F0000
007F0000
007F0000
007F0000
007F0000
007F0000
007F0000
007F0000
007F0000
007F0000
007F0000
007F0000
007F0000
007F8000
007F8000
007FC000
007FF860
003FFFE0
003FFFE0
001FFFE0
000FFFE0
0003FFE0
ENDCHAR
STARTCHAR 0075
ENCODING 117
SWIDTH 596 0
DWIDTH 53 0
BBX 40 48 7 -1
BITMAP
FE0000007F
FE0000007F
FE0000007F
FE0000007F
FE0000007F
FE0000007F
FE0000007F
FE0000007F
FE0000007F
FE0000007F
FE0000007F
FE0000007F
FE0000007F
FE0000007F
FE0000007F
FE0000007F
FE0000007F
FE0000007F
FE0000007F
FE0000007F
FE0000007F
FE0000007F
FE0000007F
FE0000007F
FE0000007F
FE0000007F
FE0000007F
FE0000007F
FE0000007F
FE0000007F
FF000000FF
FF000000FF
FF000000FF
FF000001FF
FF800001FF
7F800003FF
7FC00003FF
7FE00007FF
3FF0000F7F
3FFC003E7F
1FFF00FE7F
0FFFFFFC7F
0FFFFFF87F
07FFFFF07F
01FFFFE07F
00FFFFC07F
003FFF007F
0007F00000
ENDCHAR
STARTCHAR 0076
ENCODING 118
SWIDTH 551 0
DWIDTH 49 0
BBX 43 47 3 0
BITMAP
FE0000000FE0
FF0000001FE0
7F0000001FC0
7F8000001FC0
7F8000003FC0
3F8000003F80
3FC000003F80
1FC000007F80
1FC000007F00
1FE00000FF00
0FE00000FF00
0FE00000FE00
0FF00001FE00
07F00001FC00
07F80001FC00
07F80003FC00
03F80003F800
03FC0003F800
03FC0007F800
01FC0007F000
01FE000FF000
00FE000FF000
00FE000FE000
00FF001FE000
007F001FC000
007F801FC000
007F803FC000
003F803F8000
003FC03F8000
003FC07F8000
001FC07F0000
001FE0FF0000
000FE0FF0000
000FE0FE0000
000FF1FE0000
0007F1FC0000
0007F1FC0000
0007FBFC0000
0003FBF80000
0003FFF80000
0003FFF80000
0001FFF00000
0001FFF00000
0000FFF00000
0000FFE00000
0000FFE00000
00007FC00000
ENDCHAR
STARTCHAR 0077
ENCODING 119
SWIDTH 810 0
DWIDTH 72 0
BBX 67 47 3 0
BITMAP
FE000003F800001FE0
FF000007F800001FC0
7F000007FC00001FC0
7F000007FC00001FC0
7F000007FC00003FC0
7F80000FFC00003F80
3F80000FFE00003F80
3F80000FFE00003F80
3F80001FFE00007F80
1FC0001FFF00007F00
1FC0001FFF00007F00
1FC0003FFF0000FF00
1FE0003FFF8000FE00
0FE0003FBF8000FE00
0FE0007FBF8000FE00
0FE0007F1FC001FE00
0FF0007F1FC001FC00
07F0007F1FC001FC00
07F000FE1FE001FC00
07F000FE0FE003F800
03F800FE0FE003F800
03F801FC0FE003F800
03F801FC07F003F800
03FC01FC07F007F000
01FC03FC07F007F000
01FC03F803F807F000
01FC03F803F80FF000
00FE07F803F80FE000
00FE07F003FC0FE000
00FE07F001FC0FE000
00FE07F001FC1FC000
007F0FE001FE1FC000
007F0FE000FE1FC000
007F0FE000FE1FC000
007F9FE000FF3F8000
003F9FC0007F3F8000
003F9FC0007F3F8000
003FBFC0007F3F8000
001FFF80003FFF0000
001FFF80003FFF0000
001FFF80003FFF0000
001FFF00003FFE0000
000FFF00001FFE0000
000FFF00001FFE0000
000FFE00001FFE0000
000FFE00000FFC0000
0007FE00000FFC0000
ENDCHAR
STARTCHAR 0078
ENCODING 120
SWIDTH 551 0
DWIDTH 49 0
BBX 41 47 3 0
BITMAP
FF8000007F80
7F800000FF80
3FC00001FF00
3FE00001FE00
1FE00003FE00
0FF00007FC00
0FF80007F800
07F8000FF800
03FC000FF000
03FE001FE000
01FE003FE000
00FF003FC000
00FF007F8000
007F80FF8000
007FC0FF0000
003FC1FE0000
001FE1FE0000
001FF3FC0000
000FF7F80000
0007FFF80000
0007FFF00000
0003FFE00000
0001FFE00000
0001FFC00000
0001FFE00000
0003FFE00000
0003FFF00000
0007FFF80000
000FF7F80000
000FF3FC0000
001FE3FE0000
003FE1FE0000
003FC0FF0000
007F80FF8000
00FF807F8000
00FF003FC000
01FE003FC000
03FE001FE000
03FC001FF000
07F8000FF000
0FF80007F800
0FF00007FC00
1FF00003FC00
3FE00001FE00
3FC00001FF00
7FC00000FF00
FF800000FF80
ENDCHAR
STARTCHAR 0079
ENCODING 121
SWIDTH 528 0
DWIDTH 47 0
BBX 43 65 3 -18
BITMAP
FF0000001FE0
FF0000003FC0
FF0000003FC0
7F8000003FC0
7F8000007F80
3FC000007F80
3FC00000FF00
3FC00000FF00
1FE00000FE00
1FE00001FE00
0FE00001FE00
0FF00001FC00
0FF00003FC00
07F00003F800
07F80007F800
03F80007F800
03F80007F000
03FC000FF000
01FC000FE000
01FE000FE000
01FE001FE000
00FE001FC000
00FF003FC000
007F003F8000
007F003F8000
007F807F0000
003F807F0000
003F80FF0000
001FC0FE0000
001FC0FE0000
001FE1FC0000
000FE1FC0000
000FE1FC0000
0007F3F80000
0007F3F80000
0007F7F00000
0003FFF00000
0003FFF00000
0003FFE00000
0001FFE00000
0001FFC00000
0000FFC00000
0000FFC00000
0000FF800000
00007F800000
00007F000000
0000FF000000
0000FE000000
0001FE000000
0001FE000000
0001FC000000
0003FC000000
0003F8000000
0007F8000000
0007F8000000
000FF0000000
001FF0000000
003FE0000000
00FFE0000000
7FFFC0000000
7FFF80000000
7FFF00000000
7FFE00000000
7FFC00000000
7FE000000000
ENDCHAR
STARTCHAR 007A
ENCODING 122
SWIDTH 495 0
DWIDTH 44 0
BBX 35 47 5 0
BITMAP
7FFFFFFFE0
7FFFFFFFE0
7FFFFFFFE0
7FFFFFFFE0
7FFFFFFFE0
7FFFFFFFE0
0000001FE0
0000003FC0
0000007FC0
0000007F80
000000FF00
000001FE00
000003FC00
000007FC00
000007F800
00000FF000
00001FE000
00003FC000
00007FC000
00007F8000
0000FF0000
0001FE0000
0003FC0000
0007FC0000
0007F80000
000FF00000
001FE00000
003FE00000
007FC00000
007F800000
00FF000000
01FE000000
03FE000000
07FC000000
07F8000000
0FF0000000
1FE0000000
3FE0000000
7FC0000000
7F80000000
FF00000000
FFFFFFFFE0
FFFFFFFFE0
FFFFFFFFE0
FFFFFFFFE0
FFFFFFFFE0
FFFFFFFFE0
ENDCHAR
STARTCHAR 007B
ENCODING 123
SWIDTH 450 0
DWIDTH 40 0
BBX 27 93 9 -19
BITMAP
0001FFE0
000FFFE0
001FFFE0
003FFFE0
007FFFE0
007FF000
00FF0000
00FE0000
00FC0000
00FC0000
01FC0000
01FC0000
01FC0000
01FC0000
01FC0000
01FC0000
01FC0000
01FC0000
01FC0000
01FC0000
01FC0000
01FC0000
01FC0000
01FC0000
01FC0000
01FC0000
01FC0000
01FC0000
01FC0000
01FC0000
01FC0000
01FC0000
01FC0000
01FC0000
01FC0000
01FC0000
01FC0000
01FC0000
01FC0000
01FC0000
01FC0000
01F80000
01F80000
03F80000
1FF00000
FFE00000
FFC00000
FFE00000
FFF00000
03F80000
01F80000
01F80000
01FC0000
01FC0000
01FC0000
01FC0000
01FC0000
01FC0000
01FC0000
01FC0000
01FC0000
01FC0000
01FC0000
01FC0000
01FC0000
01FC0000
01FC0000
01FC0000
01FC0000
01FC0000
01FC0000
01FC0000
01FC0000
01FC0000
01FC0000
01FC0000
01FC0000
01FC0000
01FC0000
01FC0000
01FC0000
01FC0000
01FC0000
00FC0000
00FC0000
00FE0000
00FF0000
007FE000
007FFFE0
003FFFE0
001FFFE0
000FFFE0
0001FFE0
ENDCHAR
STARTCHAR 007C
ENCODING 124
SWIDTH 281 0
DWIDTH 25 0
BBX 6 105 10 -21
BITMAP
FC
FC
FC
FC
FC
FC
FC
FC
FC
FC
FC
FC
FC
FC
FC
FC
FC
FC
FC
FC
FC
FC
FC
FC
FC
FC
FC
FC
FC
FC
FC
FC
FC
FC
FC
FC
FC
FC
FC
FC
FC
FC
FC
FC
FC
FC
FC
FC
FC
FC
FC
FC
FC
FC
FC
FC
FC
FC
FC
FC
FC
FC
FC
FC
FC
FC
FC
FC
FC
FC
FC
FC
FC
FC
FC
FC
FC
FC
FC
FC
FC
FC
FC
FC
FC
FC
FC
FC
FC
FC
FC
FC
FC
FC
FC
FC
FC
FC
FC
FC
FC
FC
FC
FC
FC
ENDCHAR
STARTCHAR 007D
ENCODING 125
SWIDTH 461 0
DWIDTH 41 0
BBX 28 93 10 -19
BITMAP
FFF00000
FFFE0000
FFFF8000
FFFFC000
FFFFC000
01FFE000
001FE000
000FE000
0007F000
0007F000
0007F000
0007F000
0007F000
0007F000
0007F000
0007F000
0007F000
0007F000
0007F000
0007F000
0007F000
0007F000
0007F000
0007F000
0007F000
0007F000
0007F000
0007F000
0007F000
0007F000
0007F000
0007F000
0007F000
0007F000
0007F000
0007F000
0007F000
0007F000
0003F000
0003F000
0003F000
0003F000
0003F800
0003F800
0001FF00
0000FFF0
00003FF0
0000FFF0
0001FFE0
0003FC00
0003F800
0003F000
0003F000
0003F000
0007F000
0007F000
0007F000
0007F000
0007F000
0007F000
0007F000
0007F000
0007F000
0007F000
0007F000
0007F000
0007F000
0007F000
0007F000
0007F000
0007F000
0007F000
0007F000
0007F000
0007F000
0007F000
0007F000
0007F000
0007F000
0007F000
0007F000
0007F000
0007F000
0007F000
0007F000
000FE000
000FE000
00FFE000
FFFFC000
FFFFC000
FFFF8000
FFFE0000
FFF80000
ENDCHAR
STARTCHAR 007E
ENCODING 126
SWIDTH 562 0
DWIDTH 50 0
BBX 34 10 8 29
BITMAP
01FC000FC0
07FF000FC0
0FFFC01F80
1FFFF03F80
3FFFFFFF80
3FFFFFFF00
7E03FFFE00
7C00FFFC00
7C003FF800
FC0007C000
ENDCHAR
STARTCHAR 00A0
ENCODING 160
SWIDTH 225 0
DWIDTH 20 0
BBX 0 0 0 0
BITMAP
ENDCHAR
STARTCHAR 00A1
ENCODING 161
SWIDTH 225 0
DWIDTH 20 0
BBX 10 67 6 -21
BITMAP
3F00
7F80
FF80
FFC0
FFC0
FFC0
FF80
7F80
3F00
0000
0000
0000
0000
0000
0000
0000
0000
3F00
3F00
3F00
3F00
3F00
3F00
3F00
3F00
3F00
3F00
3F00
3F00
3F00
3F00
3F00
3F00
3F00
3F00
7F00
7F00
7F00
7F00
7F00
7F00
7F00
7F00
7F80
7F80
7F80
7F80
7F80
7F80
7F80
7F80
7F80
7F80
7F80
7F80
7F80
7F80
7F80
7F80
7F80
7F80
7F80
7F80
7F80
7F80
7F80
7F80
ENDCHAR
STARTCHAR 00A2
ENCODING 162
SWIDTH 596 0
DWIDTH 53 0
BBX 42 60 5 -6
BITMAP
00001E000000
00001E000000
00001E000000
00001E000000
00001E000000
00001E000000
0000FFE00000
0007FFFC0000
001FFFFF0000
007FFFFFC000
00FFFFFFE000
01FFFFFFF000
03FFFFFFF800
07FF1E1FFC00
0FFC1E07FE00
1FF81E03FE00
1FF01E01FF00
3FE01E00FF00
3FC01E007F80
7FC01E007F80
7F801E003F80
7F801E003FC0
FF001E003FC0
FF001E001FC0
FF001E000000
FF001E000000
FF001E000000
FE001E000000
FE001E000000
FE001E000000
FE001E000000
FE001E000000
FE001E000000
FE001E000000
FF001E000000
FF001E000000
FF001E001FC0
FF001E001FC0
7F801E003FC0
7F801E003FC0
7F801E003F80
3FC01E007F80
3FE01E007F80
1FE01E00FF00
1FF01E01FF00
0FF81E03FE00
0FFE1E07FC00
07FF9E3FFC00
03FFFFFFF800
01FFFFFFF000
00FFFFFFE000
003FFFFF8000
000FFFFF0000
0003FFF80000
00001F000000
00001E000000
00001E000000
00001E000000
00001E000000
00001E000000
ENDCHAR
STARTCHAR 00A3
ENCODING 163
SWIDTH 596 0
DWIDTH 53 0
BBX 44 64 4 0
BITMAP
00000F800000
0001FFFE0000
000FFFFF8000
003FFFFFE000
007FFFFFF000
01FFFFFFF800
03FFFFFFFC00
03FFE03FFE00
07FF0007FF00
0FFE0003FF00
0FFC0001FF80
0FF80000FF80
1FF000007FC0
1FF000007FC0
1FE000003FC0
1FE000003FC0
1FE000003FC0
3FE000003FE0
3FE000003FE0
1FE000003FE0
1FE000000000
1FF000000000
1FF000000000
1FF800000000
0FF800000000
0FFC00000000
07FC00000000
07FE00000000
03FF00000000
01FF00000000
01FF80000000
00FFC0000000
007FC0000000
007FE0000000
003FE0000000
7FFFFFFFC000
7FFFFFFFC000
7FFFFFFFC000
7FFFFFFFC000
7FFFFFFFC000
0007F8000000
0007F8000000
0007F8000000
0007F8000000
0007F8000000
0007F8000000
0007F0000000
0007F0000000
0007F0000000
000FE0000000
000FE0000000
001FC0000000
001F80000000
003F00000000
007E00000000
01FC00000000
07F000000000
FFFFFFFFFFF0
FFFFFFFFFFF0
FFFFFFFFFFF0
FFFFFFFFFFF0
FFFFFFFFFFF0
FFFFFFFFFFF0
FFFFFFFFFFF0
ENDCHAR
STARTCHAR 00A4
ENCODING 164
SWIDTH 585 0
DWIDTH 52 0
BBX 40 42 6 10
BITMAP
0800000018
3C0000003C
7E007E007E
FF07FFE0FF
7F9FFFF9FE
3FFFFFFFFC
1FFFFFFFF8
0FFFFFFFF8
0FFFE7FFF0
07FE007FE0
0FF8001FF0
0FE0000FF0
1FC00003F8
1FC00003F8
3F800001FC
3F000000FC
3F000000FE
7F0000007E
7E0000007E
7E0000007E
7E0000007E
7E0000007E
7E0000007E
7E0000007E
7E0000007E
7F000000FE
3F000000FC
3F000000FC
3F800001FC
1FC00003F8
1FE00007F8
0FF0000FF0
07F8001FF0
0FFE007FF0
1FFFFFFFF8
3FFFFFFFFC
3FFFFFFFFE
7FBFFFFCFE
FF0FFFF0FF
7E03FFC07F
3C0018003C
1800000018
ENDCHAR
STARTCHAR 00A5
ENCODING 165
SWIDTH 618 0
DWIDTH 55 0
BBX 48 62 3 0
BITMAP
FF80000001FF
7F80000001FE
7FC0000003FE
3FC0000003FC
3FE0000007FC
1FE0000007F8
1FF0000007F8
0FF000000FF0
0FF800000FF0
07F800001FE0
07FC00001FE0
03FC00003FC0
03FE00003FC0
01FE00007F80
00FF00007F80
00FF0000FF00
007F8000FF00
007F8001FE00
003FC001FE00
003FC003FC00
001FE003FC00
001FE007F800
000FF007F800
000FF00FF000
0007F80FF000
0007F81FE000
0003FC1FE000
0003FC3FC000
0001FE3FC000
0001FE7F8000
0000FF7F8000
0000FFFF0000
00007FFF0000
00007FFE0000
00003FFE0000
00003FFC0000
01FFFFFFFF80
01FFFFFFFF80
01FFFFFFFF80
01FFFFFFFF80
01FFFFFFFF80
00000FF00000
00000FF00000
00000FF00000
00000FF00000
00000FF00000
01FFFFFFFF80
01FFFFFFFF80
01FFFFFFFF80
01FFFFFFFF80
01FFFFFFFF80
00000FF00000
00000FF00000
00000FF00000
00000FF00000
00000FF00000
00000FF00000
00000FF00000
00000FF00000
00000FF00000
00000FF00000
00000FF00000
ENDCHAR
STARTCHAR 00A6
ENCODING 166
SWIDTH 281 0
DWIDTH 25 0
BBX 6 106 10 -21
BITMAP
FC
FC
FC
FC
FC
FC
FC
FC
FC
FC
FC
FC
FC
FC
FC
FC
FC
FC
FC
FC
FC
FC
FC
FC
FC
FC
FC
FC
FC
FC
FC
FC
FC
FC
FC
FC
FC
FC
FC
FC
FC
FC
FC
FC
FC
FC
FC
FC
00
00
00
00
00
00
00
00
00
00
00
00
00
00
FC
FC
FC
FC
FC
FC
FC
FC
FC
FC
FC
FC
FC
FC
FC
FC
FC
FC
FC
FC
FC
FC
FC
FC
FC
FC
FC
FC
FC
FC
FC
FC
FC
FC
FC
FC
FC
FC
FC
FC
FC
FC
FC
FC
ENDCHAR
STARTCHAR 00A7
ENCODING 167
SWIDTH 551 0
DWIDTH 49 0
BBX 40 64 5 -1
BITMAP
000FFFC000
007FFFF800
01FFFFFE00
03FFFFFF00
07FFFFFF80
0FFFCFFFC0
0FF800FFE0
1FF0003FE0
1FE0001FF0
3FC0000FF0
3FC0000FF0
3FC00007F8
3F800007F8
3FC0000000
3FC0000000
1FE0000000
1FF0000000
1FFC000000
0FFFE00000
07FFFF8000
01FFFFF800
07FFFFFE00
1FFFFFFF80
3FFFFFFFE0
7FE03FFFF0
7F8000FFF8
FF00001FFC
FF000007FE
FE000003FE
FE000001FE
FE000000FF
FE000000FF
FF000000FF
FF000000FF
7F800000FF
7FE00001FE
3FFC0001FE
3FFFE003FC
0FFFFF8FFC
07FFFFFFF8
01FFFFFFF0
007FFFFFC0
000FFFFF80
00007FFFC0
000001FFE0
0000003FF0
0000000FF8
00000007F8
00000007F8
7F000007F8
7F800003F8
7F800003F8
7FC00007F8
3FC00007F8
3FE0000FF8
1FF8001FF0
1FFC007FF0
0FFFFFFFE0
07FFFFFFC0
03FFFFFF80
00FFFFFF00
007FFFFC00
000FFFF000
0000FD0000
ENDCHAR
STARTCHAR 00A8
ENCODING 168
SWIDTH 360 0
DWIDTH 32 0
BBX 27 10 3 56
BITMAP
00000200
3F001F80
7F803FC0
FF803FE0
FFC07FE0
FFC07FE0
FFC07FE0
FF803FE0
7F803FC0
3F001F80
ENDCHAR
STARTCHAR 00A9
ENCODING 169
SWIDTH 810 0
DWIDTH 72 0
BBX 64 64 4 -1
BITMAP
000000FFFF800000
00000FFFFFF00000
00003FFFFFFE0000
0000FFFFFFFF8000
0003FFFFFFFFC000
0007FFC001FFF000
001FFC00001FF800
003FF0000007FC00
007FC0000001FE00
00FF00000000FF00
01FE000000007F80
03FC000000001FC0
03F8000000000FE0
07F0001FFC0007E0
0FE000FFFF0007F0
0FC001FFFFC003F0
1FC007FFFFF001F8
1F800FFFFFF801F8
3F001FF007FC00FC
3F003FC001FE00FC
3E007F00007E007C
7E007E00003F007E
7E00FC00001F807E
7C00FC00001F803E
7C01F800000F803E
FC01F800000FC03F
FC01F0000007003F
F801F0000000001F
F803F0000000001F
F803F0000000001F
F803F0000000001F
F803E0000000001F
F803E0000000001F
F803F0000000001F
F803F0000000001F
F803F0000000001F
FC01F0000000003F
FC01F000000FC03F
7C01F800000FC03E
7C00F800000F803E
7E00FC00001F807E
7E007E00003F007E
3E007F00007F007C
3F003F8000FE00FC
3F001FE003FC00FC
1F800FFF3FF801F8
1F8007FFFFF001F8
0FC003FFFFE003F0
0FE000FFFFC007F0
07F0003FFE0007E0
07F0000380000FE0
03F8000000001FC0
01FE000000003F80
00FF000000007F00
007F80000001FE00
003FE0000003FC00
001FF800000FF800
000FFF00007FF000
0007FFFE7FFFE000
0001FFFFFFFF8000
00007FFFFFFF0000
00001FFFFFFC0000
000003FFFFE00000
0000003FFC000000
ENDCHAR
STARTCHAR 00AA
ENCODING 170
SWIDTH 146 0
DWIDTH 13 0
BBX 13 13 0 34
BITMAP
1F78
3FF8
7FF8
78F8
F078
F078
F078
F078
F078
78F8
7FF8
3F78
0400
ENDCHAR
STARTCHAR 00AB
ENCODING 171
SWIDTH 630 0
DWIDTH 56 0
BBX 49 37 4 10
BITMAP
00007F80007F80
0000FF0000FF00
0001FE0001FE00
0003FC0003FC00
0007F80007F800
000FF0000FF000
001FE0001FE000
003FC0003FC000
007F80007F8000
00FF0000FF0000
01FF0001FE0000
03FE0003FE0000
03FC0003FC0000
07F80007F80000
0FF0000FF00000
1FE0001FE00000
3FC0003FC00000
7F80007F800000
FF0000FF000000
FF0000FF000000
7F80007F800000
3FC0003FC00000
1FE0001FE00000
0FF0000FF00000
07F80007F80000
03FC0003FC0000
01FE0001FE0000
00FF0000FF0000
007F80007F8000
003FC0003FC000
003FE0003FE000
001FF0001FE000
000FF8000FF000
0007F80007F800
0003FC0003FC00
0001FE0001FE00
0000FF8000FF80
ENDCHAR
STARTCHAR 00AC
ENCODING 172
SWIDTH 652 0
DWIDTH 58 0
BBX 44 23 7 24
BITMAP
FFFFFFFFFFF0
FFFFFFFFFFF0
FFFFFFFFFFF0
FFFFFFFFFFF0
FFFFFFFFFFF0
FFFFFFFFFFF0
0000000003F0
0000000003F0
0000000003F0
0000000003F0
0000000003F0
0000000003F0
0000000003F0
0000000003F0
0000000003F0
0000000003F0
0000000003F0
0000000003F0
0000000003F0
0000000003F0
0000000003F0
0000000003F0
0000000003F0
ENDCHAR
STARTCHAR 00AD
ENCODING 173
SWIDTH 596 0
DWIDTH 53 0
BBX 33 6 10 25
BITMAP
FFFFFFFF80
FFFFFFFF80
FFFFFFFF80
FFFFFFFF80
FFFFFFFF80
FFFFFFFF80
ENDCHAR
STARTCHAR 00AE
ENCODING 174
SWIDTH 337 0
DWIDTH 30 0
BBX 22 22 4 40
BITMAP
01FF00
07FF80
0F87E0
1E00F0
380070
71FC38
71FE18
E1CE1C
E1C71C
E1C70C
E1CE0C
E1FE0C
E1CC0C
E1CC1C
61CE1C
71C738
780038
3C0070
1E01F0
0FFFC0
07FF80
01FE00
ENDCHAR
STARTCHAR 00AF
ENCODING 175
SWIDTH 360 0
DWIDTH 32 0
BBX 26 4 3 57
BITMAP
FFFFFFC0
FFFFFFC0
FFFFFFC0
FFFFFFC0
ENDCHAR
STARTCHAR 00B0
ENCODING 176
SWIDTH 292 0
DWIDTH 26 0
BBX 17 17 5 60
BITMAP
03E000
0FF800
3FFC00
3FFE00
7C3F00
F80F00
F00780
F00780
F00780
F00780
F00780
F80F00
7C1F00
7FFE00
3FFE00
1FF800
07F000
ENDCHAR
STARTCHAR 00B1
ENCODING 177
SWIDTH 596 0
DWIDTH 53 0
BBX 35 49 10 0
BITMAP
0003F80000
0003F80000
0003F80000
0003F80000
0003F80000
0003F80000
0003F80000
0003F80000
0003F80000
0003F80000
0003F80000
0003F80000
0003F80000
0003F80000
0003F80000
FFFFFFFFE0
FFFFFFFFE0
FFFFFFFFE0
FFFFFFFFE0
FFFFFFFFE0
FFFFFFFFE0
0003F80000
0003F80000
0003F80000
0003F80000
0003F80000
0003F80000
0003F80000
0003F80000
0003F80000
0003F80000
0003F80000
0003F80000
0003F80000
0003F80000
0003F80000
0000000000
0000000000
0000000000
0000000000
0000000000
0000000000
0000000000
0000000000
FFFFFFFFE0
FFFFFFFFE0
FFFFFFFFE0
FFFFFFFFE0
FFFFFFFFE0
ENDCHAR
STARTCHAR 00B2
ENCODING 178
SWIDTH 303 0
DWIDTH 27 0
BBX 23 34 2 34
BITMAP
003800
03FF80
07FFE0
0FFFF0
1FFFF0
3F01F8
3E00FC
7C007C
7C007C
7C007C
7C007C
7C007C
00007C
0000FC
0000F8
0001F8
0001F0
0003F0
0007E0
000FC0
003F80
007F00
00FE00
01FC00
03F800
07E000
0FC000
1F8000
3F0000
7E0000
FFFFFE
FFFFFE
FFFFFE
FFFFFE
ENDCHAR
STARTCHAR 00B3
ENCODING 179
SWIDTH 315 0
DWIDTH 28 0
BBX 23 35 3 33
BITMAP
007800
07FF80
0FFFE0
1FFFF0
3FFFF8
7E01F8
7C00FC
FC007C
F8007C
00007C
00007C
00007C
00007C
0000F8
0003F8
00FFF0
00FFC0
00FF80
00FFE0
0003F8
0000F8
00007C
00007C
00003C
00003E
00003E
F8007C
F8007C
FC00FC
7F01F8
7FFFF8
3FFFF0
1FFFE0
07FF80
00FE00
ENDCHAR
STARTCHAR 00B4
ENCODING 180
SWIDTH 247 0
DWIDTH 22 0
BBX 16 16 3 55
BITMAP
00FF
00FF
01FE
03FC
03F8
07F8
07F0
0FE0
0FE0
1FC0
1F80
3F80
7F00
7E00
FE00
FC00
ENDCHAR
STARTCHAR 00B5
ENCODING 181
SWIDTH 641 0
DWIDTH 57 0
BBX 48 66 6 -19
BITMAP
FF000003FC00
FF000003FC00
FF000003FC00
FF000003FC00
FF000003FC00
FF000003FC00
FF000003FC00
FF000003FC00
FF000003FC00
FF000003FC00
FF000003FC00
FF000003FC00
FF000003FC00
FF000003FC00
FF000003FC00
FF000003FC00
FF000003FC00
FF000003FC00
FF000003FC00
FF000003FC00
FF000003FC00
FF000003FC00
FF000003FC00
FF000003FC00
FF000003FC00
FF000003FC00
FF000003FC00
FF000003FC00
FF000003FC00
FF000003FC00
FF000003FC00
FF000003FC00
FF000007FC00
FF000007FC00
FF80000FFC00
FF80000FFC00
FF80001FFC00
FFC0003FFC00
FFC0007DFE00
FFE000F9FE00
FFF803F9FF00
FFFFFFF0FFE1
FFFFFFE0FFFF
FFFFFFC07FFF
FEFFFFC07FFF
FE7FFF003FFF
FE1FFC000FFF
FF0080000000
FF0000000000
FF0000000000
FF0000000000
FF0000000000
FF0000000000
FF0000000000
FF0000000000
FF0000000000
FF0000000000
FF0000000000
FF0000000000
FF0000000000
FF0000000000
FF0000000000
FF0000000000
FF0000000000
FF0000000000
FF0000000000
ENDCHAR
STARTCHAR 00B6
ENCODING 182
SWIDTH 528 0
DWIDTH 47 0
BBX 39 62 2 0
BITMAP
001FFFFFFE
007FFFFFFE
01FFFFFFFE
03FFFFFFFE
07FFFFFFFE
0FFFFFFFFE
1FFFFFF03E
3FFFFFF03E
3FFFFFF03E
7FFFFFF03E
7FFFFFF03E
7FFFFFF03E
7FFFFFF03E
FFFFFFF03E
FFFFFFF03E
FFFFFFF03E
FFFFFFF03E
FFFFFFF03E
FFFFFFF03E
7FFFFFF03E
7FFFFFF03E
7FFFFFF03E
7FFFFFF03E
3FFFFFF03E
3FFFFFF03E
1FFFFFF03E
0FFFFFF03E
07FFFFF03E
03FFFFF03E
01FFFFF03E
007FFFF03E
0007FFF03E
000001F03E
000001F03E
000001F03E
000001F03E
000001F03E
000001F03E
000001F03E
000001F03E
000001F03E
000001F03E
000001F03E
000001F03E
000001F03E
000001F03E
000001F03E
000001F03E
000001F03E
000001F03E
000001F03E
000001F03E
000001F03E
000001F03E
000001F03E
000001F03E
000001F03E
000001F03E
000001F03E
000001F03E
000001F03E
000001F03E
ENDCHAR
STARTCHAR 00B7
ENCODING 183
SWIDTH 281 0
DWIDTH 25 0
BBX 11 11 7 27
BITMAP
0600
3F80
7FC0
7FC0
FFE0
FFE0
FFE0
7FC0
7FC0
3F80
0400
ENDCHAR
STARTCHAR 00B8
ENCODING 184
SWIDTH 236 0
DWIDTH 21 0
BBX 16 22 3 -22
BITMAP
3E00
3E00
3C00
7C00
7800
7FE0
FFF8
FFFC
FFFE
007F
001F
000F
000F
000F
000F
001F
003E
7FFE
7FFC
7FF8
7FF0
7FC0
ENDCHAR
STARTCHAR 00B9
ENCODING 185
SWIDTH 247 0
DWIDTH 22 0
BBX 19 34 2 34
BITMAP
01F000
03F000
07F000
0FF000
1FF000
3FF000
7FF000
FDF000
F9F000
F1F000
E1F000
C1F000
81F000
01F000
01F000
01F000
01F000
01F000
01F000
01F000
01F000
01F000
01F000
01F000
01F000
01F000
01F000
01F000
01F000
FFFFE0
FFFFE0
FFFFE0
FFFFE0
FFFFE0
ENDCHAR
STARTCHAR 00BA
ENCODING 186
SWIDTH 157 0
DWIDTH 14 0
BBX 12 13 1 34
BITMAP
1FC0
3FE0
79E0
70F0
F070
E070
E070
F070
F0F0
78E0
3FE0
3FC0
0200
ENDCHAR
STARTCHAR 00BB
ENCODING 187
SWIDTH 630 0
DWIDTH 56 0
BBX 49 37 4 10
BITMAP
FF0000FF000000
7F80007F800000
3FC0003FC00000
1FE0001FE00000
1FE0001FE00000
0FF0000FF00000
07F80007F80000
03FC0003FC0000
01FE0001FE0000
00FF0000FF0000
007F80007F8000
003FC0003FC000
001FE0001FE000
000FF0000FF000
0007F80007F800
0003FC0003FC00
0001FE0001FE00
0000FF0000FF00
00007F80007F80
0000FF8000FF80
0001FF0001FF00
0003FE0003FE00
0003FC0003FC00
0007F80007F800
000FF0000FF000
001FE0001FE000
003FC0003FC000
007F80007F8000
00FF0000FF0000
01FE0001FE0000
03FC0003FC0000
07F80007F80000
0FF0000FF00000
1FE0001FE00000
3FC0003FC00000
7F80007F800000
FF0000FF000000
ENDCHAR
STARTCHAR 00BC
ENCODING 188
SWIDTH 810 0
DWIDTH 72 0
BBX 65 62 4 0
BITMAP
07F000000001FC0000
0FF000000001FC0000
1FF000000003FC0000
3FF000000003F80000
7FF000000007F00000
FFF00000000FF00000
FFF00000000FE00000
FBF00000001FE00000
F3F00000001FC00000
E3F00000003F800000
C3F00000007F800000
83F00000007F000000
03F0000000FF000000
03F0000000FE000000
03F0000001FC000000
03F0000003FC000000
03F0000003F8000000
03F0000007F8000000
03F0000007F0000000
03F000000FE0000000
03F000001FE0000000
03F000001FC0000000
03F000003FC0000000
03F000003F80000000
03F000007F00000000
03F00000FF00000000
FFFFC000FE00000000
FFFFC001FE00000000
FFFFC001FC00000000
FFFFC003F800000000
FFFFC007F800000000
00000007F00007F800
0000000FF00007F800
0000000FE0000FF800
0000001FC0001FF800
0000003FC0001FF800
0000003F80003FF800
0000007F80007DF800
0000007F000079F800
000000FE0000F9F800
000001FE0001F1F800
000001FC0001E1F800
000003FC0003E1F800
000003F80003C1F800
000007F0000781F800
000007F0000F81F800
00000FE0000F01F800
00001FE0001E01F800
00001FC0003E01F800
00003F80003C01F800
00003F80007FFFFF80
00007F00007FFFFF80
0000FF00007FFFFF80
0000FE00007FFFFF80
0001FC000000FFFF80
0001FC00000001F800
0003F800000001F800
0007F800000001F800
0007F000000001F800
000FE000000001F800
000FE000000001F800
001FC000000001F800
ENDCHAR
STARTCHAR 00BD
ENCODING 189
SWIDTH 832 0
DWIDTH 74 0
BBX 67 62 4 0
BITMAP
07F0000000007F0000
0FF0000000007F0000
1FF000000000FE0000
3FF000000001FE0000
7FF000000001FC0000
FFF000000003F80000
FFF000000003F80000
FBF000000007F00000
F3F00000000FF00000
E3F00000000FE00000
C3F00000001FE00000
83F00000001FC00000
03F00000003F800000
03F00000007F800000
03F00000007F000000
03F0000000FF000000
03F0000000FE000000
03F0000001FC000000
03F0000003FC000000
03F0000003F8000000
03F0000007F8000000
03F0000007F0000000
03F000000FE0000000
03F000001FE0000000
03F000001FC0000000
03F000003FC0000000
FFFFC0003F80000000
FFFFC0007F00000000
FFFFC000FF00000000
FFFFC000FE00000000
FFFFC001FE0003F000
00000001FC001FFE00
00000003F8003FFF00
00000007F8007FFF80
00000007F000FFFF80
0000000FF000FC1FC0
0000000FE001F80FC0
0000001FC001F007E0
0000003FC001F007E0
0000003F8003F007E0
0000007F8003F007E0
0000007F00000007E0
000000FE00000007C0
000001FE0000000FC0
000001FC0000000FC0
000003FC0000001F80
000003F80000003F00
000007F00000007E00
00000FF0000000FC00
00000FE0000001FC00
00001FE0000003F000
00001FC000000FE000
00003F8000001FC000
00007F8000003F8000
00007F0000007F0000
0000FF000000FE0000
0000FE000001FC0000
0001FC000003FFFFE0
0001FC000003FFFFE0
0003F8000003FFFFE0
0007F8000003FFFFE0
0007F0000003FFFFE0
ENDCHAR
STARTCHAR 00BE
ENCODING 190
SWIDTH 843 0
DWIDTH 75 0
BBX 68 63 4 0
BITMAP
003800000000000000
07FF800000003F8000
0FFFC00000007F8000
1FFFE00000007F0000
3FFFF0000000FE0000
7F07F8000000FE0000
7E01F8000001FC0000
FC01F8000003FC0000
FC00F8000003F80000
0000FC000007F00000
0000F8000007F00000
0000F800000FE00000
0001F800001FE00000
0003F000001FC00000
00FFF000003FC00000
00FFC000003F800000
00FF8000007F000000
00FFE00000FF000000
000FF00000FE000000
0001F80001FE000000
0000F80001FC000000
0000FC0003F8000000
0000FC0007F8000000
0000FC0007F0000000
F800FC000FF0000000
FC00FC000FE0000000
FE01F8001FC0000000
FF07F8003FC0000000
7FFFF0003F80000000
3FFFF0007F80000000
1FFFE0007F00000000
0FFF8000FE00000000
01FE0001FE0000FF00
00000001FC0001FF00
00000003FC0001FF00
00000003F80003FF00
00000007F00003FF00
0000000FF00007FF00
0000000FE0000FBF00
0000001FE0000F3F00
0000001FC0001F3F00
0000003F80003E3F00
0000007F80003C3F00
0000007F00007C3F00
000000FF0000F83F00
000000FE0000F03F00
000001FC0001F03F00
000003FC0001E03F00
000003F80003C03F00
000007F80007C03F00
000007F00007803F00
00000FE0000FFFFFF0
00001FE0000FFFFFF0
00001FC0000FFFFFF0
00003FC0000FFFFFF0
00003F8000001FFFF0
00007F000000003F00
0000FF000000003F00
0000FE000000003F00
0001FE000000003F00
0001FC000000003F00
0003F8000000003F00
0003F8000000003F00
ENDCHAR
STARTCHAR 00BF
ENCODING 191
SWIDTH 573 0
DWIDTH 51 0
BBX 41 64 5 -22
BITMAP
00001F800000
00003F800000
00007FC00000
00007FC00000
00007FC00000
00007FC00000
00007FC00000
00003FC00000
00001F800000
000000000000
000000000000
000000000000
000000000000
000000000000
000000000000
000000000000
000000000000
00003F800000
00003F800000
00003F800000
00007F800000
00007F800000
0000FF000000
0000FF000000
0001FE000000
0003FE000000
0007FC000000
000FF8000000
001FF0000000
003FE0000000
007FC0000000
00FF80000000
01FF00000000
03FE00000000
07FC00000000
0FF800000000
1FF000000000
1FE000000000
3FE000000000
3FC000000000
7F8000000000
7F8000000000
7F8000000000
7F0000000000
FF0000003F80
FF0000003F80
FF0000007F80
FF0000007F80
FF0000007F80
7F8000007F80
7F800000FF00
7F800000FF00
7FC00001FF00
3FE00003FE00
3FF00007FE00
1FFC001FFC00
0FFF80FFF800
0FFFFFFFF800
07FFFFFFF000
03FFFFFFE000
00FFFFFF8000
007FFFFF0000
000FFFFC0000
0001FFC00000
ENDCHAR
STARTCHAR 00C0
ENCODING 192
SWIDTH 675 0
DWIDTH 60 0
BBX 54 84 3 0
BITMAP
0003FC00000000
0003FC00000000
0001FE00000000
0000FE00000000
0000FF00000000
00007F80000000
00003F80000000
00001FC0000000
00001FC0000000
00000FE0000000
000007E0000000
000007F0000000
000003F0000000
000001F8000000
000001FC000000
00000000000000
00000000000000
00000000000000
00000000000000
00000000000000
00000000000000
00000000000000
000001FE000000
000001FF000000
000001FF000000
000003FF000000
000003FF800000
000007FF800000
000007FF800000
000007FFC00000
00000FFFC00000
00000FFFE00000
00000FEFE00000
00001FCFE00000
00001FCFF00000
00003FC7F00000
00003F87F00000
00003F83F80000
00007F03F80000
00007F03FC0000
00007F01FC0000
0000FE01FC0000
0000FE01FE0000
0001FE00FE0000
0001FC00FE0000
0001FC00FF0000
0003FC007F0000
0003F8007F8000
0003F8003F8000
0007F8003F8000
0007F0003FC000
000FF0001FC000
000FE0001FE000
000FE0001FE000
001FE0000FE000
001FC0000FF000
001FC00007F000
003FC00007F000
003F800007F800
007F800003F800
007FFFFFFFFC00
007FFFFFFFFC00
00FFFFFFFFFC00
00FFFFFFFFFE00
00FFFFFFFFFE00
01FFFFFFFFFE00
01FC000000FF00
03FC0000007F00
03FC0000007F80
03F80000007F80
07F80000003F80
07F80000003FC0
07F00000003FC0
0FF00000001FC0
0FE00000001FE0
1FE00000001FE0
1FE00000000FF0
1FC00000000FF0
3FC000000007F0
3FC000000007F8
3F8000000007F8
7F8000000003F8
7F8000000003FC
FF0000000003FC
ENDCHAR
STARTCHAR 00C1
ENCODING 193
SWIDTH 675 0
DWIDTH 60 0
BBX 54 84 3 0
BITMAP
000000007F8000
00000000FF0000
00000001FE0000
00000001FE0000
00000003FC0000
00000003F80000
00000007F80000
00000007F00000
0000000FE00000
0000000FE00000
0000001FC00000
0000001F800000
0000003F800000
0000007F000000
0000007E000000
00000000000000
00000000000000
00000000000000
00000000000000
00000000000000
00000000000000
00000000000000
000001FE000000
000001FF000000
000001FF000000
000003FF000000
000003FF800000
000007FF800000
000007FF800000
000007FFC00000
00000FFFC00000
00000FFFE00000
00000FEFE00000
00001FCFE00000
00001FCFF00000
00003FC7F00000
00003F87F00000
00003F83F80000
00007F03F80000
00007F03FC0000
00007F01FC0000
0000FE01FC0000
0000FE01FE0000
0001FE00FE0000
0001FC00FE0000
0001FC00FF0000
0003FC007F0000
0003F8007F8000
0003F8003F8000
0007F8003F8000
0007F0003FC000
000FF0001FC000
000FE0001FE000
000FE0001FE000
001FE0000FE000
001FC0000FF000
001FC00007F000
003FC00007F000
003F800007F800
007F800003F800
007FFFFFFFFC00
007FFFFFFFFC00
00FFFFFFFFFC00
00FFFFFFFFFE00
00FFFFFFFFFE00
01FFFFFFFFFE00
01FC000000FF00
03FC0000007F00
03FC0000007F80
03F80000007F80
07F80000003F80
07F80000003FC0
07F00000003FC0
0FF00000001FC0
0FE00000001FE0
1FE00000001FE0
1FE00000000FF0
1FC00000000FF0
3FC000000007F0
3FC000000007F8
3F8000000007F8
7F8000000003F8
7F8000000003FC
FF0000000003FC
ENDCHAR
STARTCHAR 00C2
ENCODING 194
SWIDTH 675 0
DWIDTH 60 0
BBX 54 81 3 0
BITMAP
000001FE000000
000003FF000000
000003FF800000
000007FFC00000
00000FFFE00000
00001FCFF00000
00003FC7F00000
00007F83F80000
0000FF01FC0000
0001FE01FE0000
0003FC00FF0000
0007F8007F8000
0007F0003FC000
00000000000000
00000000000000
00000000000000
00000000000000
00000000000000
00000000000000
000001FE000000
000001FF000000
000001FF000000
000003FF000000
000003FF800000
000007FF800000
000007FF800000
000007FFC00000
00000FFFC00000
00000FFFE00000
00000FEFE00000
00001FCFE00000
00001FCFF00000
00003FC7F00000
00003F87F00000
00003F83F80000
00007F03F80000
00007F03FC0000
00007F01FC0000
0000FE01FC0000
0000FE01FE0000
0001FE00FE0000
0001FC00FE0000
0001FC00FF0000
0003FC007F0000
0003F8007F8000
0003F8003F8000
0007F8003F8000
0007F0003FC000
000FF0001FC000
000FE0001FE000
000FE0001FE000
001FE0000FE000
001FC0000FF000
001FC00007F000
003FC00007F000
003F800007F800
007F800003F800
007FFFFFFFFC00
007FFFFFFFFC00
00FFFFFFFFFC00
00FFFFFFFFFE00
00FFFFFFFFFE00
01FFFFFFFFFE00
01FC000000FF00
03FC0000007F00
03FC0000007F80
03F80000007F80
07F80000003F80
07F80000003FC0
07F00000003FC0
0FF00000001FC0
0FE00000001FE0
1FE00000001FE0
1FE00000000FF0
1FC00000000FF0
3FC000000007F0
3FC000000007F8
3F8000000007F8
7F8000000003F8
7F8000000003FC
FF0000000003FC
ENDCHAR
STARTCHAR 00C3
ENCODING 195
SWIDTH 675 0
DWIDTH 60 0
BBX 54 80 3 0
BITMAP
00003F801F0000
00007FE01F0000
0000FFF81F0000
0000FFFC3E0000
0001FFFFFE0000
0001F0FFFE0000
0001E03FFC0000
0003E01FF80000
0003E007F00000
00000000000000
00000000000000
00000000000000
00000000000000
00000000000000
00000000000000
00000000000000
00000000000000
00000000000000
000001FE000000
000001FF000000
000001FF000000
000003FF000000
000003FF800000
000007FF800000
000007FF800000
000007FFC00000
00000FFFC00000
00000FFFE00000
00000FEFE00000
00001FCFE00000
00001FCFF00000
00003FC7F00000
00003F87F00000
00003F83F80000
00007F03F80000
00007F03FC0000
00007F01FC0000
0000FE01FC0000
0000FE01FE0000
0001FE00FE0000
0001FC00FE0000
0001FC00FF0000
0003FC007F0000
0003F8007F8000
0003F8003F8000
0007F8003F8000
0007F0003FC000
000FF0001FC000
000FE0001FE000
000FE0001FE000
001FE0000FE000
001FC0000FF000
001FC00007F000
003FC00007F000
003F800007F800
007F800003F800
007FFFFFFFFC00
007FFFFFFFFC00
00FFFFFFFFFC00
00FFFFFFFFFE00
00FFFFFFFFFE00
01FFFFFFFFFE00
01FC000000FF00
03FC0000007F00
03FC0000007F80
03F80000007F80
07F80000003F80
07F80000003FC0
07F00000003FC0
0FF00000001FC0
0FE00000001FE0
1FE00000001FE0
1FE00000000FF0
1FC00000000FF0
3FC000000007F0
3FC000000007F8
3F8000000007F8
7F8000000003F8
7F8000000003FC
FF0000000003FC
ENDCHAR
STARTCHAR 00C4
ENCODING 196
SWIDTH 675 0
DWIDTH 60 0
BBX 54 81 3 0
BITMAP
000078003C0000
0001FC007F0000
0003FE00FF0000
0003FE01FF8000
0003FF01FF8000
0003FF01FF8000
0003FE01FF8000
0003FE00FF0000
0001FC00FF0000
0000F8003C0000
00000000000000
00000000000000
00000000000000
00000000000000
00000000000000
00000000000000
00000000000000
00000000000000
00000000000000
000001FE000000
000001FF000000
000001FF000000
000003FF000000
000003FF800000
000007FF800000
000007FF800000
000007FFC00000
00000FFFC00000
00000FFFE00000
00000FEFE00000
00001FCFE00000
00001FCFF00000
00003FC7F00000
00003F87F00000
00003F83F80000
00007F03F80000
00007F03FC0000
00007F01FC0000
0000FE01FC0000
0000FE01FE0000
0001FE00FE0000
0001FC00FE0000
0001FC00FF0000
0003FC007F0000
0003F8007F8000
0003F8003F8000
0007F8003F8000
0007F0003FC000
000FF0001FC000
000FE0001FE000
000FE0001FE000
001FE0000FE000
001FC0000FF000
001FC00007F000
003FC00007F000
003F800007F800
007F800003F800
007FFFFFFFFC00
007FFFFFFFFC00
00FFFFFFFFFC00
00FFFFFFFFFE00
00FFFFFFFFFE00
01FFFFFFFFFE00
01FC000000FF00
03FC0000007F00
03FC0000007F80
03F80000007F80
07F80000003F80
07F80000003FC0
07F00000003FC0
0FF00000001FC0
0FE00000001FE0
1FE00000001FE0
1FE00000000FF0
1FC00000000FF0
3FC000000007F0
3FC000000007F8
3F8000000007F8
7F8000000003F8
7F8000000003FC
FF0000000003FC
ENDCHAR
STARTCHAR 00C5
ENCODING 197
SWIDTH 675 0
DWIDTH 60 0
BBX 54 85 3 0
BITMAP
000000FE000000
000003FF000000
000007FF800000
00000FC7C00000
00000F03C00000
00000E01E00000
00001E01E00000
00001E01E00000
00001E01E00000
00000F01E00000
00000F03C00000
000007EFC00000
000007FF800000
000003FF000000
000000FE000000
00000000000000
00000000000000
00000000000000
00000000000000
00000000000000
00000000000000
00000000000000
00000000000000
000001FE000000
000001FF000000
000001FF000000
000003FF000000
000003FF800000
000007FF800000
000007FF800000
000007FFC00000
00000FFFC00000
00000FFFE00000
00000FEFE00000
00001FCFE00000
00001FCFF00000
00003FC7F00000
00003F87F00000
00003F83F80000
00007F03F80000
00007F03FC0000
00007F01FC0000
0000FE01FC0000
0000FE01FE0000
0001FE00FE0000
0001FC00FE0000
0001FC00FF0000
0003FC007F0000
0003F8007F8000
0003F8003F8000
0007F8003F8000
0007F0003FC000
000FF0001FC000
000FE0001FE000
000FE0001FE000
001FE0000FE000
001FC0000FF000
001FC00007F000
003FC00007F000
003F800007F800
007F800003F800
007FFFFFFFFC00
007FFFFFFFFC00
00FFFFFFFFFC00
00FFFFFFFFFE00
00FFFFFFFFFE00
01FFFFFFFFFE00
01FC000000FF00
03FC0000007F00
03FC0000007F80
03F80000007F80
07F80000003F80
07F80000003FC0
07F00000003FC0
0FF00000001FC0
0FE00000001FE0
1FE00000001FE0
1FE00000000FF0
1FC00000000FF0
3FC000000007F0
3FC000000007F8
3F8000000007F8
7F8000000003F8
7F8000000003FC
FF0000000003FC
ENDCHAR
STARTCHAR 00C6
ENCODING 198
SWIDTH 945 0
DWIDTH 84 0
BBX 77 62 2 0
BITMAP
000000007FFFFFFFFFF8
00000000FFFFFFFFFFF8
00000000FFFFFFFFFFF8
00000001FFFFFFFFFFF8
00000001FFFFFFFFFFF8
00000003FFFFFFFFFFF8
00000007FFFFFFFFFFF8
00000007FDFE00000000
0000000FF9FE00000000
0000000FF9FE00000000
0000001FF1FE00000000
0000001FF1FE00000000
0000003FE1FE00000000
0000003FE1FE00000000
0000007FC1FE00000000
0000007FC1FE00000000
000000FF81FE00000000
000000FF01FE00000000
000001FF01FE00000000
000001FE01FE00000000
000003FE01FE00000000
000007FC01FE00000000
000007FC01FE00000000
00000FF801FE00000000
00000FF801FE00000000
00001FF001FE00000000
00001FF001FE00000000
00003FE001FFFFFFFFC0
00003FC001FFFFFFFFC0
00007FC001FFFFFFFFC0
00007F8001FFFFFFFFC0
0000FF8001FFFFFFFFC0
0000FF0001FFFFFFFFC0
0001FF0001FE00000000
0003FE0001FE00000000
0003FE0001FE00000000
0007FC0001FE00000000
0007FC0001FE00000000
000FFFFFFFFE00000000
000FFFFFFFFE00000000
001FFFFFFFFE00000000
001FFFFFFFFE00000000
003FFFFFFFFE00000000
003FFFFFFFFE00000000
007FC00001FE00000000
007F800001FE00000000
00FF800001FE00000000
00FF000001FE00000000
01FF000001FE00000000
03FE000001FE00000000
03FE000001FE00000000
07FC000001FE00000000
07F8000001FE00000000
0FF8000001FE00000000
0FF0000001FE00000000
1FF0000001FFFFFFFFF8
1FE0000001FFFFFFFFF8
3FE0000001FFFFFFFFF8
3FC0000001FFFFFFFFF8
7FC0000001FFFFFFFFF8
7F80000001FFFFFFFFF8
FF80000001FFFFFFFFF8
ENDCHAR
STARTCHAR 00C7
ENCODING 199
SWIDTH 708 0
DWIDTH 63 0
BBX 54 86 5 -22
BITMAP
00000038000000
00000FFFF00000
00007FFFFE0000
0001FFFFFF8000
0007FFFFFFE000
000FFFFFFFF000
003FFFFFFFF800
007FFFE3FFFC00
00FFF8001FFE00
01FFE00007FF00
03FF800001FF80
03FF000000FFC0
07FE0000007FC0
0FFC0000003FE0
0FF80000001FF0
1FF00000000FF0
1FF00000000FF8
1FE000000007F8
3FE000000007F8
3FC000000003FC
3FC000000003FC
7F8000000001FC
7F800000000000
7F800000000000
7F800000000000
FF800000000000
FF000000000000
FF000000000000
FF000000000000
FF000000000000
FF000000000000
FF000000000000
FF000000000000
FF000000000000
FF000000000000
FF000000000000
FF000000000000
FF000000000000
FF000000000000
FF800000000000
7F800000000000
7F800000000000
7F800000000000
7F800000000000
7FC000000003FC
3FC000000003FC
3FE000000007F8
1FE000000007F8
1FF00000000FF0
1FF00000000FF0
0FF80000001FF0
0FFC0000003FE0
07FE0000007FC0
03FF000000FFC0
03FF800001FF80
01FFE00007FF00
00FFF8001FFE00
007FFFE7FFFC00
003FFFFFFFF800
001FFFFFFFF000
0007FFFFFFE000
0003FFFFFF8000
00007FFFFE0000
00001FFFF00000
0000003E000000
0000003C000000
0000007C000000
00000078000000
00000078000000
000000FFE00000
000000FFF80000
000000FFFC0000
000001FFFE0000
000000003E0000
000000001F0000
000000001F0000
000000000F0000
000000000F0000
000000001F0000
000000003E0000
000000007E0000
000000FFFC0000
000000FFFC0000
000000FFF80000
000000FFE00000
0000003F800000
ENDCHAR
STARTCHAR 00C8
ENCODING 200
SWIDTH 562 0
DWIDTH 50 0
BBX 38 84 7 0
BITMAP
07F8000000
03FC000000
01FC000000
01FE000000
00FF000000
007F000000
007F800000
003F800000
001FC00000
001FC00000
000FE00000
0007E00000
0007F00000
0003F80000
0001F80000
0000000000
0000000000
0000000000
0000000000
0000000000
0000000000
0000000000
FFFFFFFFFC
FFFFFFFFFC
FFFFFFFFFC
FFFFFFFFFC
FFFFFFFFFC
FFFFFFFFFC
FFFFFFFFFC
FE00000000
FE00000000
FE00000000
FE00000000
FE00000000
FE00000000
FE00000000
FE00000000
FE00000000
FE00000000
FE00000000
FE00000000
FE00000000
FE00000000
FE00000000
FE00000000
FE00000000
FE00000000
FE00000000
FE00000000
FFFFFFFFC0
FFFFFFFFC0
FFFFFFFFC0
FFFFFFFFC0
FFFFFFFFC0
FFFFFFFFC0
FE00000000
FE00000000
FE00000000
FE00000000
FE00000000
FE00000000
FE00000000
FE00000000
FE00000000
FE00000000
FE00000000
FE00000000
FE00000000
FE00000000
FE00000000
FE00000000
FE00000000
FE00000000
FE00000000
FE00000000
FE00000000
FE00000000
FFFFFFFFFC
FFFFFFFFFC
FFFFFFFFFC
FFFFFFFFFC
FFFFFFFFFC
FFFFFFFFFC
FFFFFFFFFC
ENDCHAR
STARTCHAR 00C9
ENCODING 201
SWIDTH 562 0
DWIDTH 50 0
BBX 38 84 7 0
BITMAP
000000FF00
000000FF00
000001FE00
000003FC00
000003F800
000007F800
000007F000
00000FE000
00000FE000
00001FC000
00001F8000
00003F8000
00003F0000
00007E0000
0000FE0000
0000000000
0000000000
0000000000
0000000000
0000000000
0000000000
0000000000
FFFFFFFFFC
FFFFFFFFFC
FFFFFFFFFC
FFFFFFFFFC
FFFFFFFFFC
FFFFFFFFFC
FFFFFFFFFC
FE00000000
FE00000000
FE00000000
FE00000000
FE00000000
FE00000000
FE00000000
FE00000000
FE00000000
FE00000000
FE00000000
FE00000000
FE00000000
FE00000000
FE00000000
FE00000000
FE00000000
FE00000000
FE00000000
FE00000000
FFFFFFFFC0
FFFFFFFFC0
FFFFFFFFC0
FFFFFFFFC0
FFFFFFFFC0
FFFFFFFFC0
FE00000000
FE00000000
FE00000000
FE00000000
FE00000000
FE00000000
FE00000000
FE00000000
FE00000000
FE00000000
FE00000000
FE00000000
FE00000000
FE00000000
FE00000000
FE00000000
FE00000000
FE00000000
FE00000000
FE00000000
FE00000000
FE00000000
FFFFFFFFFC
FFFFFFFFFC
FFFFFFFFFC
FFFFFFFFFC
FFFFFFFFFC
FFFFFFFFFC
FFFFFFFFFC
ENDCHAR
STARTCHAR 00CA
ENCODING 202
SWIDTH 562 0
DWIDTH 50 0
BBX 38 81 7 0
BITMAP
0001FE0000
0003FF0000
0007FF0000
000FFF8000
001FFFC000
003FDFE000
003F8FF000
007F07F800
00FE03FC00
01FC01FE00
03FC00FF00
07F8007F80
0FF0003F80
0000000000
0000000000
0000000000
0000000000
0000000000
0000000000
FFFFFFFFFC
FFFFFFFFFC
FFFFFFFFFC
FFFFFFFFFC
FFFFFFFFFC
FFFFFFFFFC
FFFFFFFFFC
FE00000000
FE00000000
FE00000000
FE00000000
FE00000000
FE00000000
FE00000000
FE00000000
FE00000000
FE00000000
FE00000000
FE00000000
FE00000000
FE00000000
FE00000000
FE00000000
FE00000000
FE00000000
FE00000000
FE00000000
FFFFFFFFC0
FFFFFFFFC0
FFFFFFFFC0
FFFFFFFFC0
FFFFFFFFC0
FFFFFFFFC0
FE00000000
FE00000000
FE00000000
FE00000000
FE00000000
FE00000000
FE00000000
FE00000000
FE00000000
FE00000000
FE00000000
FE00000000
FE00000000
FE00000000
FE00000000
FE00000000
FE00000000
FE00000000
FE00000000
FE00000000
FE00000000
FE00000000
FFFFFFFFFC
FFFFFFFFFC
FFFFFFFFFC
FFFFFFFFFC
FFFFFFFFFC
FFFFFFFFFC
FFFFFFFFFC
ENDCHAR
STARTCHAR 00CB
ENCODING 203
SWIDTH 562 0
DWIDTH 50 0
BBX 38 81 7 0
BITMAP
00F0003C00
01FC00FE00
03FC01FF00
07FE01FF00
07FE01FF80
07FE01FF80
07FE01FF00
03FE01FF00
03FC00FE00
00F0007C00
0000000000
0000000000
0000000000
0000000000
0000000000
0000000000
0000000000
0000000000
0000000000
FFFFFFFFFC
FFFFFFFFFC
FFFFFFFFFC
FFFFFFFFFC
FFFFFFFFFC
FFFFFFFFFC
FFFFFFFFFC
FE00000000
FE00000000
FE00000000
FE00000000
FE00000000
FE00000000
FE00000000
FE00000000
FE00000000
FE00000000
FE00000000
FE00000000
FE00000000
FE00000000
FE00000000
FE00000000
FE00000000
FE00000000
FE00000000
FE00000000
FFFFFFFFC0
FFFFFFFFC0
FFFFFFFFC0
FFFFFFFFC0
FFFFFFFFC0
FFFFFFFFC0
FE00000000
FE00000000
FE00000000
FE00000000
FE00000000
FE00000000
FE00000000
FE00000000
FE00000000
FE00000000
FE00000000
FE00000000
FE00000000
FE00000000
FE00000000
FE00000000
FE00000000
FE00000000
FE00000000
FE00000000
FE00000000
FE00000000
FFFFFFFFFC
FFFFFFFFFC
FFFFFFFFFC
FFFFFFFFFC
FFFFFFFFFC
FFFFFFFFFC
FFFFFFFFFC
ENDCHAR
STARTCHAR 00CC
ENCODING 204
SWIDTH 236 0
DWIDTH 21 0
BBX 18 84 -3 0
BITMAP
FF0000
7F8000
3FC000
3FC000
1FE000
0FE000
0FF000
07F000
03F800
03F800
01FC00
00FE00
00FE00
007F00
003F00
000000
000000
000000
000000
000000
000000
000000
003FC0
003FC0
003FC0
003FC0
003FC0
003FC0
003FC0
003FC0
003FC0
003FC0
003FC0
003FC0
003FC0
003FC0
003FC0
003FC0
003FC0
003FC0
003FC0
003FC0
003FC0
003FC0
003FC0
003FC0
003FC0
003FC0
003FC0
003FC0
003FC0
003FC0
003FC0
003FC0
003FC0
003FC0
003FC0
003FC0
003FC0
003FC0
003FC0
003FC0
003FC0
003FC0
003FC0
003FC0
003FC0
003FC0
003FC0
003FC0
003FC0
003FC0
003FC0
003FC0
003FC0
003FC0
003FC0
003FC0
003FC0
003FC0
003FC0
003FC0
003FC0
003FC0
ENDCHAR
STARTCHAR 00CD
ENCODING 205
SWIDTH 236 0
DWIDTH 21 0
BBX 17 84 7 0
BITMAP
007F80
007F80
00FF00
00FE00
01FE00
03FC00
03F800
07F800
07F000
0FE000
0FE000
1FC000
1F8000
3F0000
3F0000
400000
000000
000000
000000
000000
000000
000000
FF0000
FF0000
FF0000
FF0000
FF0000
FF0000
FF0000
FF0000
FF0000
FF0000
FF0000
FF0000
FF0000
FF0000
FF0000
FF0000
FF0000
FF0000
FF0000
FF0000
FF0000
FF0000
FF0000
FF0000
FF0000
FF0000
FF0000
FF0000
FF0000
FF0000
FF0000
FF0000
FF0000
FF0000
FF0000
FF0000
FF0000
FF0000
FF0000
FF0000
FF0000
FF0000
FF0000
FF0000
FF0000
FF0000
FF0000
FF0000
FF0000
FF0000
FF0000
FF0000
FF0000
FF0000
FF0000
FF0000
FF0000
FF0000
FF0000
FF0000
FF0000
FF0000
ENDCHAR
STARTCHAR 00CE
ENCODING 206
SWIDTH 236 0
DWIDTH 21 0
BBX 30 81 -4 0
BITMAP
001FE000
003FF000
007FF800
00FFF800
01FFFC00
01FCFE00
03F8FF00
07F07F80
0FE03FC0
1FE01FE0
3FC00FF0
7F8007F8
FF0003FC
00000000
00000000
00000000
00000000
00000000
00000000
001FE000
001FE000
001FE000
001FE000
001FE000
001FE000
001FE000
001FE000
001FE000
001FE000
001FE000
001FE000
001FE000
001FE000
001FE000
001FE000
001FE000
001FE000
001FE000
001FE000
001FE000
001FE000
001FE000
001FE000
001FE000
001FE000
001FE000
001FE000
001FE000
001FE000
001FE000
001FE000
001FE000
001FE000
001FE000
001FE000
001FE000
001FE000
001FE000
001FE000
001FE000
001FE000
001FE000
001FE000
001FE000
001FE000
001FE000
001FE000
001FE000
001FE000
001FE000
001FE000
001FE000
001FE000
001FE000
001FE000
001FE000
001FE000
001FE000
001FE000
001FE000
001FE000
ENDCHAR
STARTCHAR 00CF
ENCODING 207
SWIDTH 236 0
DWIDTH 21 0
BBX 28 81 -3 0
BITMAP
1E000780
3F801FC0
7FC03FE0
FFC03FE0
FFC03FF0
FFC03FF0
FFC03FF0
7FC03FE0
3F801FC0
1F000F80
00000000
00000000
00000000
00000000
00000000
00000000
00000000
00000000
00000000
003FC000
003FC000
003FC000
003FC000
003FC000
003FC000
003FC000
003FC000
003FC000
003FC000
003FC000
003FC000
003FC000
003FC000
003FC000
003FC000
003FC000
003FC000
003FC000
003FC000
003FC000
003FC000
003FC000
003FC000
003FC000
003FC000
003FC000
003FC000
003FC000
003FC000
003FC000
003FC000
003FC000
003FC000
003FC000
003FC000
003FC000
003FC000
003FC000
003FC000
003FC000
003FC000
003FC000
003FC000
003FC000
003FC000
003FC000
003FC000
003FC000
003FC000
003FC000
003FC000
003FC000
003FC000
003FC000
003FC000
003FC000
003FC000
003FC000
003FC000
003FC000
003FC000
ENDCHAR
STARTCHAR 00D0
ENCODING 208
SWIDTH 708 0
DWIDTH 63 0
BBX 56 62 4 0
BITMAP
07FFFFFF800000
07FFFFFFF80000
07FFFFFFFF0000
07FFFFFFFFC000
07FFFFFFFFE000
07FFFFFFFFF800
07FFFFFFFFFC00
07F80000FFFE00
07F800001FFF00
07F8000003FF80
07F8000001FFC0
07F8000000FFC0
07F80000007FE0
07F80000003FF0
07F80000001FF0
07F80000000FF8
07F800000007F8
07F800000007FC
07F800000003FC
07F800000003FC
07F800000003FC
07F800000001FE
07F800000001FE
07F800000001FE
07F800000001FE
07F800000001FE
07F800000001FE
07F800000000FF
FFFFFF800000FF
FFFFFF800000FF
FFFFFF800000FF
FFFFFF800000FF
FFFFFF800000FF
07F800000000FF
07F800000001FF
07F800000001FE
07F800000001FE
07F800000001FE
07F800000001FE
07F800000001FE
07F800000001FE
07F800000003FC
07F800000003FC
07F800000007FC
07F800000007F8
07F80000000FF8
07F80000000FF8
07F80000001FF0
07F80000003FF0
07F80000007FE0
07F8000000FFC0
07F8000001FFC0
07F8000007FF80
07F800001FFF00
07F80003FFFE00
07FFFFFFFFFC00
07FFFFFFFFF000
07FFFFFFFFE000
07FFFFFFFF8000
07FFFFFFFE0000
07FFFFFFF80000
07FFFFFF000000
ENDCHAR
STARTCHAR 00D1
ENCODING 209
SWIDTH 708 0
DWIDTH 63 0
BBX 50 80 7 0
BITMAP
0000FE00780000
0003FF80780000
0003FFC0F80000
0007FFF0F80000
0007FFFFF80000
000FC7FFF00000
000F81FFF00000
000F807FE00000
000F803FC00000
00000000000000
00000000000000
00000000000000
00000000000000
00000000000000
00000000000000
00000000000000
00000000000000
00000000000000
FF800000003FC0
FF800000003FC0
FFC00000003FC0
FFE00000003FC0
FFE00000003FC0
FFF00000003FC0
FFF80000003FC0
FFF80000003FC0
FFFC0000003FC0
FFFE0000003FC0
FFFE0000003FC0
FFFF0000003FC0
FFFF8000003FC0
FEFF8000003FC0
FE7FC000003FC0
FE7FE000003FC0
FE3FE000003FC0
FE1FF000003FC0
FE1FF800003FC0
FE0FF800003FC0
FE07FC00003FC0
FE07FE00003FC0
FE03FE00003FC0
FE01FF00003FC0
FE01FF80003FC0
FE00FF80003FC0
FE007FC0003FC0
FE003FE0003FC0
FE003FE0003FC0
FE001FF0003FC0
FE000FF8003FC0
FE000FF8003FC0
FE0007FC003FC0
FE0003FE003FC0
FE0003FE003FC0
FE0001FF003FC0
FE0000FF803FC0
FE0000FF803FC0
FE00007FC03FC0
FE00003FE03FC0
FE00003FE03FC0
FE00001FF03FC0
FE00000FF83FC0
FE00000FF83FC0
FE000007FC3FC0
FE000003FE3FC0
FE000003FE3FC0
FE000001FF3FC0
FE000000FFBFC0
FE000000FFBFC0
FE0000007FFFC0
FE0000003FFFC0
FE0000003FFFC0
FE0000001FFFC0
FE0000000FFFC0
FE0000000FFFC0
FE00000007FFC0
FE00000003FFC0
FE00000003FFC0
FE00000001FFC0
FE00000000FFC0
FE00000000FFC0
ENDCHAR
STARTCHAR 00D2
ENCODING 210
SWIDTH 731 0
DWIDTH 65 0
BBX 56 85 5 -1
BITMAP
0003FC00000000
0001FE00000000
0000FE00000000
0000FF00000000
00007F00000000
00003F80000000
00003FC0000000
00001FC0000000
00000FE0000000
00000FE0000000
000007F0000000
000003F0000000
000003F8000000
000001F8000000
000000FC000000
00000000000000
00000000000000
00000000000000
00000000000000
00000000000000
0000001C000000
00001FFFF00000
00007FFFFE0000
0003FFFFFF8000
0007FFFFFFE000
001FFFFFFFF000
003FFFFFFFF800
007FFFEFFFFC00
00FFF8003FFE00
01FFE0000FFF00
03FF800003FF80
07FF000001FFC0
07FE000000FFC0
0FFC0000007FE0
0FF80000003FF0
1FF00000001FF0
1FF00000000FF8
3FE00000000FF8
3FE000000007F8
7FC000000007FC
7FC000000003FC
7F8000000003FC
7F8000000003FE
FF8000000001FE
FF0000000001FE
FF0000000001FE
FF0000000001FE
FF0000000001FE
FF0000000001FE
FF0000000000FF
FF0000000000FF
FF0000000000FF
FF0000000000FF
FF0000000000FF
FF0000000000FF
FF0000000001FF
FF0000000001FE
FF0000000001FE
FF0000000001FE
FF0000000001FE
FF0000000001FE
FF8000000001FE
7F8000000003FE
7F8000000003FC
7FC000000003FC
7FC000000007FC
3FC000000007F8
3FE00000000FF8
1FF00000000FF8
1FF00000001FF0
1FF80000003FF0
0FFC0000007FE0
07FE0000007FE0
07FF000001FFC0
03FF800003FF80
01FFE0000FFF00
00FFF8003FFF00
007FFFEFFFFE00
003FFFFFFFF800
001FFFFFFFF000
000FFFFFFFE000
0003FFFFFF8000
0000FFFFFE0000
00001FFFF00000
000000BC000000
ENDCHAR
STARTCHAR 00D3
ENCODING 211
SWIDTH 731 0
DWIDTH 65 0
BBX 56 85 5 -1
BITMAP
000000007F8000
00000000FF0000
00000000FF0000
00000001FE0000
00000001FC0000
00000003FC0000
00000003F80000
00000007F00000
00000007F00000
0000000FE00000
0000000FC00000
0000001FC00000
0000003F800000
0000003F000000
0000007F000000
00000000000000
00000000000000
00000000000000
00000000000000
00000000000000
0000001C000000
00001FFFF00000
00007FFFFE0000
0003FFFFFF8000
0007FFFFFFE000
001FFFFFFFF000
003FFFFFFFF800
007FFFEFFFFC00
00FFF8003FFE00
01FFE0000FFF00
03FF800003FF80
07FF000001FFC0
07FE000000FFC0
0FFC0000007FE0
0FF80000003FF0
1FF00000001FF0
1FF00000000FF8
3FE00000000FF8
3FE000000007F8
7FC000000007FC
7FC000000003FC
7F8000000003FC
7F8000000003FE
FF8000000001FE
FF0000000001FE
FF0000000001FE
FF0000000001FE
FF0000000001FE
FF0000000001FE
FF0000000000FF
FF0000000000FF
FF0000000000FF
FF0000000000FF
FF0000000000FF
FF0000000000FF
FF0000000001FF
FF0000000001FE
FF0000000001FE
FF0000000001FE
FF0000000001FE
FF0000000001FE
FF8000000001FE
7F8000000003FE
7F8000000003FC
7FC000000003FC
7FC000000007FC
3FC000000007F8
3FE00000000FF8
1FF00000000FF8
1FF00000001FF0
1FF80000003FF0
0FFC0000007FE0
07FE0000007FE0
07FF000001FFC0
03FF800003FF80
01FFE0000FFF00
00FFF8003FFF00
007FFFEFFFFE00
003FFFFFFFF800
001FFFFFFFF000
000FFFFFFFE000
0003FFFFFF8000
0000FFFFFE0000
00001FFFF00000
000000BC000000
ENDCHAR
STARTCHAR 00D4
ENCODING 212
SWIDTH 731 0
DWIDTH 65 0
BBX 56 82 5 -1
BITMAP
000000FF000000
000001FF000000
000003FF800000
000007FFC00000
00000FFFE00000
00001FEFF00000
00001FC7F80000
00003F83FC0000
00007F01FE0000
0000FE00FF0000
0001FE007F8000
0003FC003F8000
0007F8001FC000
00000000000000
00000000000000
00000000000000
00000000000000
0000001C000000
00001FFFF00000
00007FFFFE0000
0003FFFFFF8000
0007FFFFFFE000
001FFFFFFFF000
003FFFFFFFF800
007FFFEFFFFC00
00FFF8003FFE00
01FFE0000FFF00
03FF800003FF80
07FF000001FFC0
07FE000000FFC0
0FFC0000007FE0
0FF80000003FF0
1FF00000001FF0
1FF00000000FF8
3FE00000000FF8
3FE000000007F8
7FC000000007FC
7FC000000003FC
7F8000000003FC
7F8000000003FE
FF8000000001FE
FF0000000001FE
FF0000000001FE
FF0000000001FE
FF0000000001FE
FF0000000001FE
FF0000000000FF
FF0000000000FF
FF0000000000FF
FF0000000000FF
FF0000000000FF
FF0000000000FF
FF0000000001FF
FF0000000001FE
FF0000000001FE
FF0000000001FE
FF0000000001FE
FF0000000001FE
FF8000000001FE
7F8000000003FE
7F8000000003FC
7FC000000003FC
7FC000000007FC
3FC000000007F8
3FE00000000FF8
1FF00000000FF8
1FF00000001FF0
1FF80000003FF0
0FFC0000007FE0
07FE0000007FE0
07FF000001FFC0
03FF800003FF80
01FFE0000FFF00
00FFF8003FFF00
007FFFEFFFFE00
003FFFFFFFF800
001FFFFFFFF000
000FFFFFFFE000
0003FFFFFF8000
0000FFFFFE0000
00001FFFF00000
000000BC000000
ENDCHAR
STARTCHAR 00D5
ENCODING 213
SWIDTH 731 0
DWIDTH 65 0
BBX 56 81 5 -1
BITMAP
00001FC00F0000
00007FF00F0000
00007FF81F0000
0000FFFE1F0000
0000FFFFFF0000
0001F87FFE0000
0001F03FFE0000
0001F00FFC0000
0001F007F80000
00000000000000
00000000000000
00000000000000
00000000000000
00000000000000
00000000000000
00000000000000
0000001C000000
00001FFFF00000
00007FFFFE0000
0003FFFFFF8000
0007FFFFFFE000
001FFFFFFFF000
003FFFFFFFF800
007FFFEFFFFC00
00FFF8003FFE00
01FFE0000FFF00
03FF800003FF80
07FF000001FFC0
07FE000000FFC0
0FFC0000007FE0
0FF80000003FF0
1FF00000001FF0
1FF00000000FF8
3FE00000000FF8
3FE000000007F8
7FC000000007FC
7FC000000003FC
7F8000000003FC
7F8000000003FE
FF8000000001FE
FF0000000001FE
FF0000000001FE
FF0000000001FE
FF0000000001FE
FF0000000001FE
FF0000000000FF
FF0000000000FF
FF0000000000FF
FF0000000000FF
FF0000000000FF
FF0000000000FF
FF0000000001FF
FF0000000001FE
FF0000000001FE
FF0000000001FE
FF0000000001FE
FF0000000001FE
FF8000000001FE
7F8000000003FE
7F8000000003FC
7FC000000003FC
7FC000000007FC
3FC000000007F8
3FE00000000FF8
1FF00000000FF8
1FF00000001FF0
1FF80000003FF0
0FFC0000007FE0
07FE0000007FE0
07FF000001FFC0
03FF800003FF80
01FFE0000FFF00
00FFF8003FFF00
007FFFEFFFFE00
003FFFFFFFF800
001FFFFFFFF000
000FFFFFFFE000
0003FFFFFF8000
0000FFFFFE0000
00001FFFF00000
000000BC000000
ENDCHAR
STARTCHAR 00D6
ENCODING 214
SWIDTH 731 0
DWIDTH 65 0
BBX 56 82 5 -1
BITMAP
000078001E0000
0000FE007F0000
0001FE00FF8000
0003FF00FF8000
0003FF00FFC000
0003FF00FFC000
0003FF00FF8000
0001FF00FF8000
0001FE007F0000
000078003E0000
00000000000000
00000000000000
00000000000000
00000000000000
00000000000000
00000000000000
00000000000000
0000001C000000
00001FFFF00000
00007FFFFE0000
0003FFFFFF8000
0007FFFFFFE000
001FFFFFFFF000
003FFFFFFFF800
007FFFEFFFFC00
00FFF8003FFE00
01FFE0000FFF00
03FF800003FF80
07FF000001FFC0
07FE000000FFC0
0FFC0000007FE0
0FF80000003FF0
1FF00000001FF0
1FF00000000FF8
3FE00000000FF8
3FE000000007F8
7FC000000007FC
7FC000000003FC
7F8000000003FC
7F8000000003FE
FF8000000001FE
FF0000000001FE
FF0000000001FE
FF0000000001FE
FF0000000001FE
FF0000000001FE
FF0000000000FF
FF0000000000FF
FF0000000000FF
FF0000000000FF
FF0000000000FF
FF0000000000FF
FF0000000001FF
FF0000000001FE
FF0000000001FE
FF0000000001FE
FF0000000001FE
FF0000000001FE
FF8000000001FE
7F8000000003FE
7F8000000003FC
7FC000000003FC
7FC000000007FC
3FC000000007F8
3FE00000000FF8
1FF00000000FF8
1FF00000001FF0
1FF80000003FF0
0FFC0000007FE0
07FE0000007FE0
07FF000001FFC0
03FF800003FF80
01FFE0000FFF00
00FFF8003FFF00
007FFFEFFFFE00
003FFFFFFFF800
001FFFFFFFF000
000FFFFFFFE000
0003FFFFFF8000
0000FFFFFE0000
00001FFFF00000
000000BC000000
ENDCHAR
STARTCHAR 00D7
ENCODING 215
SWIDTH 551 0
DWIDTH 49 0
BBX 29 29 10 14
BITMAP
0C0000C0
1E0001E0
3F0003F0
7F8007F8
FFC00FF8
7FE01FF0
3FF03FE0
1FF87FC0
0FFCFF80
07FFFF00
03FFFE00
01FFFC00
00FFF800
007FF000
003FF000
007FF800
00FFFC00
01FFFE00
03FFFF00
07FDFF80
0FF8FFC0
1FF07FE0
3FE03FF0
7FC01FF8
FF800FF8
7F0007F0
3E0003E0
1C0001C0
08000080
ENDCHAR
STARTCHAR 00D8
ENCODING 216
SWIDTH 742 0
DWIDTH 66 0
BBX 56 70 5 -4
BITMAP
000000000003FC
000000000003F8
000000380007F0
00000FFFF00FF0
00007FFFFE0FE0
0001FFFFFF9FC0
0007FFFFFFFFC0
000FFFFFFFFF80
003FFFFFFFFF80
007FFFFFFFFF00
00FFFC003FFF00
01FFE00007FF80
03FFC00003FF80
03FF000003FFC0
07FE000007FFE0
07FC000007FFE0
0FF800000FFFF0
1FF800001FFFF0
1FF000001FCFF8
1FE000003F8FF8
3FE000003F87FC
3FC000007F07FC
3FC00000FF03FC
7FC00000FE03FE
7F800001FC01FE
7F800003FC01FE
7F800003F801FE
FF800007F001FE
FF00000FF001FF
FF00000FE000FF
FF00001FC000FF
FF00003FC000FF
FF00003F8000FF
FF00007F0000FF
FF00007F0000FF
FF0000FE0000FF
FF0001FE0000FF
FF0001FC0000FF
FF0003F80000FF
FF0007F80000FF
FF0007F00001FF
FF800FE00001FE
7F801FE00001FE
7F801FC00001FE
7F803F800001FE
7FC07F800003FE
7FC07F000003FC
3FC0FF000007FC
3FE0FE000007FC
3FE1FC000007F8
1FF3FC00000FF8
1FFBF800001FF8
0FFFF000001FF0
0FFFF000003FF0
07FFE000007FE0
03FFC00000FFC0
03FFC00003FFC0
01FFE00007FF80
00FFFC003FFF00
007FFFFFFFFE00
00FFFFFFFFFC00
01FFFFFFFFF800
01FFFFFFFFE000
03FBFFFFFF8000
07F87FFFFE0000
07F01FFFF80000
0FE0003C000000
1FE00000000000
1FC00000000000
3F800000000000
ENDCHAR
STARTCHAR 00D9
ENCODING 217
SWIDTH 675 0
DWIDTH 60 0
BBX 49 85 6 -1
BITMAP
001FE000000000
000FF000000000
000FF000000000
0007F800000000
0003F800000000
0003FC00000000
0001FC00000000
0000FE00000000
0000FE00000000
00007F00000000
00003F80000000
00003F80000000
00001FC0000000
00000FC0000000
00000FE0000000
00000000000000
00000000000000
00000000000000
00000000000000
00000000000000
00000000000000
00000000000000
FE000000007F80
FE000000007F80
FE000000007F80
FE000000007F80
FE000000007F80
FE000000007F80
FE000000007F80
FE000000007F80
FE000000007F80
FE000000007F80
FE000000007F80
FE000000007F80
FE000000007F80
FE000000007F80
FE000000007F80
FE000000007F80
FE000000007F80
FE000000007F80
FE000000007F80
FE000000007F80
FE000000007F80
FE000000007F80
FE000000007F80
FE000000007F80
FE000000007F80
FE000000007F80
FE000000007F80
FE000000007F80
FE000000007F80
FE000000007F80
FE000000007F80
FE000000007F80
FE000000007F80
FE000000007F80
FE000000007F80
FE000000007F80
FE000000007F80
FE000000007F80
FF000000007F80
FF000000007F80
FF000000007F80
FF000000007F00
FF00000000FF00
7F80000000FF00
7F80000000FF00
7F80000001FF00
7FC0000001FE00
3FC0000001FE00
3FE0000003FE00
3FE0000003FC00
1FF0000007FC00
1FF800000FF800
0FFC00001FF800
07FE00007FF000
07FFC001FFE000
03FFFFFFFFE000
01FFFFFFFFC000
00FFFFFFFF8000
007FFFFFFE0000
001FFFFFFC0000
0007FFFFF00000
0001FFFF800000
000007F0000000
ENDCHAR
STARTCHAR 00DA
ENCODING 218
SWIDTH 675 0
DWIDTH 60 0
BBX 49 85 6 -1
BITMAP
00000003FC0000
00000007F80000
00000007F80000
0000000FF00000
0000000FE00000
0000001FE00000
0000001FC00000
0000003F800000
0000007F000000
0000007F000000
000000FE000000
000000FC000000
000001FC000000
000001F8000000
000003F0000000
00000000000000
00000000000000
00000000000000
00000000000000
00000000000000
00000000000000
00000000000000
FE000000007F80
FE000000007F80
FE000000007F80
FE000000007F80
FE000000007F80
FE000000007F80
FE000000007F80
FE000000007F80
FE000000007F80
FE000000007F80
FE000000007F80
FE000000007F80
FE000000007F80
FE000000007F80
FE000000007F80
FE000000007F80
FE000000007F80
FE000000007F80
FE000000007F80
FE000000007F80
FE000000007F80
FE000000007F80
FE000000007F80
FE000000007F80
FE000000007F80
FE000000007F80
FE000000007F80
FE000000007F80
FE000000007F80
FE000000007F80
FE000000007F80
FE000000007F80
FE000000007F80
FE000000007F80
FE000000007F80
FE000000007F80
FE000000007F80
FE000000007F80
FF000000007F80
FF000000007F80
FF000000007F80
FF000000007F00
FF00000000FF00
7F80000000FF00
7F80000000FF00
7F80000001FF00
7FC0000001FE00
3FC0000001FE00
3FE0000003FE00
3FE0000003FC00
1FF0000007FC00
1FF800000FF800
0FFC00001FF800
07FE00007FF000
07FFC001FFE000
03FFFFFFFFE000
01FFFFFFFFC000
00FFFFFFFF8000
007FFFFFFE0000
001FFFFFFC0000
0007FFFFF00000
0001FFFF800000
000007F0000000
ENDCHAR
STARTCHAR 00DB
ENCODING 219
SWIDTH 675 0
DWIDTH 60 0
BBX 49 82 6 -1
BITMAP
000007F0000000
00000FF8000000
00001FFC000000
00003FFE000000
00007FFF000000
0000FF7F800000
0001FE3FC00000
0003FC1FE00000
0007F80FF00000
0007F007F00000
000FE003F80000
001FC001FC0000
003F8001FE0000
00000000000000
00000000000000
00000000000000
00000000000000
00000000000000
00000000000000
FE000000007F80
FE000000007F80
FE000000007F80
FE000000007F80
FE000000007F80
FE000000007F80
FE000000007F80
FE000000007F80
FE000000007F80
FE000000007F80
FE000000007F80
FE000000007F80
FE000000007F80
FE000000007F80
FE000000007F80
FE000000007F80
FE000000007F80
FE000000007F80
FE000000007F80
FE000000007F80
FE000000007F80
FE000000007F80
FE000000007F80
FE000000007F80
FE000000007F80
FE000000007F80
FE000000007F80
FE000000007F80
FE000000007F80
FE000000007F80
FE000000007F80
FE000000007F80
FE000000007F80
FE000000007F80
FE000000007F80
FE000000007F80
FE000000007F80
FE000000007F80
FF000000007F80
FF000000007F80
FF000000007F80
FF000000007F00
FF00000000FF00
7F80000000FF00
7F80000000FF00
7F80000001FF00
7FC0000001FE00
3FC0000001FE00
3FE0000003FE00
3FE0000003FC00
1FF0000007FC00
1FF800000FF800
0FFC00001FF800
07FE00007FF000
07FFC001FFE000
03FFFFFFFFE000
01FFFFFFFFC000
00FFFFFFFF8000
007FFFFFFE0000
001FFFFFFC0000
0007FFFFF00000
0001FFFF800000
000007F0000000
ENDCHAR
STARTCHAR 00DC
ENCODING 220
SWIDTH 675 0
DWIDTH 60 0
BBX 49 82 6 -1
BITMAP
0003C001E00000
000FE003F80000
000FF007FC0000
001FF807FC0000
001FF80FFC0000
001FF80FFC0000
001FF80FFC0000
001FF007FC0000
000FF003F80000
0003C001F00000
00000000000000
00000000000000
00000000000000
00000000000000
00000000000000
00000000000000
00000000000000
00000000000000
00000000000000
FE000000007F80
FE000000007F80
FE000000007F80
FE000000007F80
FE000000007F80
FE000000007F80
FE000000007F80
FE000000007F80
FE000000007F80
FE000000007F80
FE000000007F80
FE000000007F80
FE000000007F80
FE000000007F80
FE000000007F80
FE000000007F80
FE000000007F80
FE000000007F80
FE000000007F80
FE000000007F80
FE000000007F80
FE000000007F80
FE000000007F80
FE000000007F80
FE000000007F80
FE000000007F80
FE000000007F80
FE000000007F80
FE000000007F80
FE000000007F80
FE000000007F80
FE000000007F80
FE000000007F80
FE000000007F80
FE000000007F80
FE000000007F80
FE000000007F80
FE000000007F80
FF000000007F80
FF000000007F80
FF000000007F80
FF000000007F00
FF00000000FF00
7F80000000FF00
7F80000000FF00
7F80000001FF00
7FC0000001FE00
3FC0000001FE00
3FE0000003FE00
3FE0000003FC00
1FF0000007FC00
1FF800000FF800
0FFC00001FF800
07FE00007FF000
07FFC001FFE000
03FFFFFFFFE000
01FFFFFFFFC000
00FFFFFFFF8000
007FFFFFFE0000
001FFFFFFC0000
0007FFFFF00000
0001FFFF800000
000007F0000000
ENDCHAR
STARTCHAR 00DD
ENCODING 221
SWIDTH 607 0
DWIDTH 54 0
BBX 48 84 3 0
BITMAP
00000007FC00
00000007F800
0000000FF000
0000000FF000
0000001FE000
0000001FC000
0000003F8000
0000003F8000
0000007F0000
0000007E0000
000000FE0000
000001FC0000
000001F80000
000003F80000
000003F00000
000000000000
000000000000
000000000000
000000000000
000000000000
000000000000
000000000000
FF80000001FF
7F80000001FE
7FC0000003FE
3FC0000003FC
3FE0000007FC
1FE0000007F8
1FF0000007F8
0FF000000FF0
0FF800000FF0
07F800001FE0
07FC00001FE0
03FC00003FC0
03FE00003FC0
01FE00007F80
00FF00007F80
00FF0000FF00
007F8000FF00
007F8001FE00
003FC001FE00
003FC003FC00
001FE003FC00
001FE007F800
000FF007F800
000FF00FF000
0007F80FF000
0007F81FE000
0003FC1FE000
0003FC3FC000
0001FE3FC000
0001FE7F8000
0000FF7F8000
0000FFFF0000
00007FFF0000
00007FFE0000
00003FFE0000
00003FFC0000
00001FFC0000
00001FF80000
00000FF80000
00000FF00000
00000FF00000
00000FF00000
00000FF00000
00000FF00000
00000FF00000
00000FF00000
00000FF00000
00000FF00000
00000FF00000
00000FF00000
00000FF00000
00000FF00000
00000FF00000
00000FF00000
00000FF00000
00000FF00000
00000FF00000
00000FF00000
00000FF00000
00000FF00000
00000FF00000
00000FF00000
ENDCHAR
STARTCHAR 00DE
ENCODING 222
SWIDTH 585 0
DWIDTH 52 0
BBX 42 62 7 0
BITMAP
FE0000000000
FE0000000000
FE0000000000
FE0000000000
FE0000000000
FE0000000000
FE0000000000
FE0000000000
FE0000000000
FE0000000000
FE0000000000
FFFFFFF00000
FFFFFFFE0000
FFFFFFFF8000
FFFFFFFFE000
FFFFFFFFF000
FFFFFFFFF800
FE000FFFFC00
FE00001FFE00
FE000007FE00
FE000003FF00
FE000000FF00
FE0000007F80
FE0000007F80
FE0000003F80
FE0000003FC0
FE0000003FC0
FE0000001FC0
FE0000001FC0
FE0000001FC0
FE0000001FC0
FE0000001FC0
FE0000001FC0
FE0000001FC0
FE0000001FC0
FE0000003FC0
FE0000003FC0
FE0000003F80
FE0000007F80
FE0000007F80
FE000000FF00
FE000001FF00
FE000007FE00
FE00001FFE00
FE0007FFFC00
FFFFFFFFF800
FFFFFFFFF000
FFFFFFFFC000
FFFFFFFF8000
FFFFFFFE0000
FFFFFFF00000
FE0000000000
FE0000000000
FE0000000000
FE0000000000
FE0000000000
FE0000000000
FE0000000000
FE0000000000
FE0000000000
FE0000000000
FE0000000000
ENDCHAR
STARTCHAR 00DF
ENCODING 223
SWIDTH 562 0
DWIDTH 50 0
BBX 39 65 7 -1
BITMAP
0001F80000
003FFFC000
00FFFFF800
03FFFFFC00
07FFFFFF00
0FFFFFFF80
0FFFFFFFC0
1FFC01FFE0
3FF0003FE0
3FC0001FF0
3FC0000FF0
7F800007F0
7F000007F8
7F000003F8
FF000003F8
FF000003F8
FE000003F8
FE000003F8
FE000003F8
FE000003F8
FE000003F8
FE000007F8
FE000007F0
FE00000FF0
FE00000FE0
FE00003FE0
FE00007FC0
FE0003FF80
FE0FFFFF00
FE0FFFFC00
FE0FFFF000
FE0FFFF000
FE0FFFFE00
FE0FFFFF00
FE0001FFC0
FE00003FE0
FE00001FE0
FE000007F0
FE000003F8
FE000003F8
FE000001FC
FE000001FC
FE000001FC
FE000000FE
FE000000FE
FE000000FE
FE000000FE
FE000000FE
FE000000FE
FE000001FE
FE000001FC
FE000001FC
FE000003FC
FE000007FC
FE00000FF8
FE00001FF8
FE00003FF0
FE0001FFE0
FE03FFFFE0
FE03FFFFC0
FE03FFFF00
FE03FFFE00
FE03FFF800
FE03FFE000
0000FC0000
ENDCHAR
STARTCHAR 00E0
ENCODING 224
SWIDTH 618 0
DWIDTH 55 0
BBX 44 70 4 -1
BITMAP
003FC0000000
003FC0000000
001FE0000000
000FE0000000
000FF0000000
0007F0000000
0003F8000000
0003F8000000
0001FC000000
0000FE000000
0000FE000000
00007F000000
00003F000000
00003F800000
00001F800000
00000FC00000
000000000000
000000000000
000000000000
000000000000
000000000000
0001FF800000
000FFFF007F0
003FFFFC07F0
007FFFFE07F0
00FFFFFF07F0
01FFFFFF87F0
03FFFFFFC7F0
07FF800FE7F0
0FFE0007E7F0
0FF80001F7F0
1FF00000FFF0
1FF000007FF0
3FE000007FF0
3FC000003FF0
3FC000003FF0
7F8000001FF0
7F8000001FF0
7F8000001FF0
7F8000000FF0
FF0000000FF0
FF0000000FF0
FF0000000FF0
FF0000000FF0
FF0000000FF0
FF0000000FF0
FF0000000FF0
FF0000000FF0
FF0000000FF0
FF0000000FF0
7F0000000FF0
7F8000000FF0
7F8000001FF0
7F8000001FF0
7FC000001FF0
3FC000003FF0
3FE000003FF0
3FE000007FF0
1FF00000FFF0
1FF80001F7F0
0FFC0003E7F0
0FFF0007E7F0
07FFC03FC7F0
03FFFFFF87F0
01FFFFFF07F0
00FFFFFE07F0
007FFFFC07F0
001FFFF807F0
0007FFE007F0
00003C000000
ENDCHAR
STARTCHAR 00E1
ENCODING 225
SWIDTH 618 0
DWIDTH 55 0
BBX 44 70 4 -1
BITMAP
00000007F800
0000000FF000
0000000FF000
0000001FE000
0000001FC000
0000003F8000
0000007F8000
0000007F0000
000000FE0000
000000FE0000
000001FC0000
000001F80000
000003F80000
000003F00000
000007E00000
000007E00000
000000000000
000000000000
000000000000
000000000000
000000000000
0001FF800000
000FFFF007F0
003FFFFC07F0
007FFFFE07F0
00FFFFFF07F0
01FFFFFF87F0
03FFFFFFC7F0
07FF800FE7F0
0FFE0007E7F0
0FF80001F7F0
1FF00000FFF0
1FF000007FF0
3FE000007FF0
3FC000003FF0
3FC000003FF0
7F8000001FF0
7F8000001FF0
7F8000001FF0
7F8000000FF0
FF0000000FF0
FF0000000FF0
FF0000000FF0
FF0000000FF0
FF0000000FF0
FF0000000FF0
FF0000000FF0
FF0000000FF0
FF0000000FF0
FF0000000FF0
7F0000000FF0
7F8000000FF0
7F8000001FF0
7F8000001FF0
7FC000001FF0
3FC000003FF0
3FE000003FF0
3FE000007FF0
1FF00000FFF0
1FF80001F7F0
0FFC0003E7F0
0FFF0007E7F0
07FFC03FC7F0
03FFFFFF87F0
01FFFFFF07F0
00FFFFFE07F0
007FFFFC07F0
001FFFF807F0
0007FFE007F0
00003C000000
ENDCHAR
STARTCHAR 00E2
ENCODING 226
SWIDTH 618 0
DWIDTH 55 0
BBX 44 67 4 -1
BITMAP
00000FE00000
00001FF00000
00003FF80000
00007FF80000
0000FFFC0000
0001FEFE0000
0003FCFF0000
0007F87F8000
0007F03FC000
000FE01FE000
001FC00FF000
003F8007F800
007F8003FC00
000000000000
000000000000
000000000000
000000000000
000000000000
0001FF800000
000FFFF007F0
003FFFFC07F0
007FFFFE07F0
00FFFFFF07F0
01FFFFFF87F0
03FFFFFFC7F0
07FF800FE7F0
0FFE0007E7F0
0FF80001F7F0
1FF00000FFF0
1FF000007FF0
3FE000007FF0
3FC000003FF0
3FC000003FF0
7F8000001FF0
7F8000001FF0
7F8000001FF0
7F8000000FF0
FF0000000FF0
FF0000000FF0
FF0000000FF0
FF0000000FF0
FF0000000FF0
FF0000000FF0
FF0000000FF0
FF0000000FF0
FF0000000FF0
FF0000000FF0
7F0000000FF0
7F8000000FF0
7F8000001FF0
7F8000001FF0
7FC000001FF0
3FC000003FF0
3FE000003FF0
3FE000007FF0
1FF00000FFF0
1FF80001F7F0
0FFC0003E7F0
0FFF0007E7F0
07FFC03FC7F0
03FFFFFF87F0
01FFFFFF07F0
00FFFFFE07F0
007FFFFC07F0
001FFFF807F0
0007FFE007F0
00003C000000
ENDCHAR
STARTCHAR 00E3
ENCODING 227
SWIDTH 618 0
DWIDTH 55 0
BBX 44 66 4 -1
BITMAP
0001F801F000
0007FE01F000
000FFF01F000
000FFFC1F000
001FFFF7E000
001F9FFFE000
001F07FFC000
001E01FFC000
003E00FF8000
003E003E0000
000000000000
000000000000
000000000000
000000000000
000000000000
000000000000
000000000000
0001FF800000
000FFFF007F0
003FFFFC07F0
007FFFFE07F0
00FFFFFF07F0
01FFFFFF87F0
03FFFFFFC7F0
07FF800FE7F0
0FFE0007E7F0
0FF80001F7F0
1FF00000FFF0
1FF000007FF0
3FE000007FF0
3FC000003FF0
3FC000003FF0
7F8000001FF0
7F8000001FF0
7F8000001FF0
7F8000000FF0
FF0000000FF0
FF0000000FF0
FF0000000FF0
FF0000000FF0
FF0000000FF0
FF0000000FF0
FF0000000FF0
FF0000000FF0
FF0000000FF0
FF0000000FF0
7F0000000FF0
7F8000000FF0
7F8000001FF0
7F8000001FF0
7FC000001FF0
3FC000003FF0
3FE000003FF0
3FE000007FF0
1FF00000FFF0
1FF80001F7F0
0FFC0003E7F0
0FFF0007E7F0
07FFC03FC7F0
03FFFFFF87F0
01FFFFFF07F0
00FFFFFE07F0
007FFFFC07F0
001FFFF807F0
0007FFE007F0
00003C000000
ENDCHAR
STARTCHAR 00E4
ENCODING 228
SWIDTH 618 0
DWIDTH 55 0
BBX 44 67 4 -1
BITMAP
000200008000
000FC007E000
001FE00FF000
003FE01FF800
003FF01FF800
003FF01FF800
003FF01FF800
003FE01FF800
001FE00FF000
000FC007E000
000000000000
000000000000
000000000000
000000000000
000000000000
000000000000
000000000000
000000000000
0001FF800000
000FFFF007F0
003FFFFC07F0
007FFFFE07F0
00FFFFFF07F0
01FFFFFF87F0
03FFFFFFC7F0
07FF800FE7F0
0FFE0007E7F0
0FF80001F7F0
1FF00000FFF0
1FF000007FF0
3FE000007FF0
3FC000003FF0
3FC000003FF0
7F8000001FF0
7F8000001FF0
7F8000001FF0
7F8000000FF0
FF0000000FF0
FF0000000FF0
FF0000000FF0
FF0000000FF0
FF0000000FF0
FF0000000FF0
FF0000000FF0
FF0000000FF0
FF0000000FF0
FF0000000FF0
7F0000000FF0
7F8000000FF0
7F8000001FF0
7F8000001FF0
7FC000001FF0
3FC000003FF0
3FE000003FF0
3FE000007FF0
1FF00000FFF0
1FF80001F7F0
0FFC0003E7F0
0FFF0007E7F0
07FFC03FC7F0
03FFFFFF87F0
01FFFFFF07F0
00FFFFFE07F0
007FFFFC07F0
001FFFF807F0
0007FFE007F0
00003C000000
ENDCHAR
STARTCHAR 00E5
ENCODING 229
SWIDTH 618 0
DWIDTH 55 0
BBX 44 71 4 -1
BITMAP
00000FC00000
00001FF00000
00007FF80000
00007FFC0000
0000F03C0000
0000F01E0000
0001E01E0000
0001E01E0000
0001E01E0000
0000E01E0000
0000F03C0000
0000F87C0000
00007FF80000
00003FF00000
00001FE00000
000003000000
000000000000
000000000000
000000000000
000000000000
000000000000
000000000000
0001FF800000
000FFFF007F0
003FFFFC07F0
007FFFFE07F0
00FFFFFF07F0
01FFFFFF87F0
03FFFFFFC7F0
07FF800FE7F0
0FFE0007E7F0
0FF80001F7F0
1FF00000FFF0
1FF000007FF0
3FE000007FF0
3FC000003FF0
3FC000003FF0
7F8000001FF0
7F8000001FF0
7F8000001FF0
7F8000000FF0
FF0000000FF0
FF0000000FF0
FF0000000FF0
FF0000000FF0
FF0000000FF0
FF0000000FF0
FF0000000FF0
FF0000000FF0
FF0000000FF0
FF0000000FF0
7F0000000FF0
7F8000000FF0
7F8000001FF0
7F8000001FF0
7FC000001FF0
3FC000003FF0
3FE000003FF0
3FE000007FF0
1FF00000FFF0
1FF80001F7F0
0FFC0003E7F0
0FFF0007E7F0
07FFC03FC7F0
03FFFFFF87F0
01FFFFFF07F0
00FFFFFE07F0
007FFFFC07F0
001FFFF807F0
0007FFE007F0
00003C000000
ENDCHAR
STARTCHAR 00E6
ENCODING 230
SWIDTH 933 0
DWIDTH 83 0
BBX 74 49 5 -1
BITMAP
0001FE000000FFE00000
001FFFE00007FFFC0000
007FFFF8001FFFFF0000
00FFFFFC003FFFFF8000
03FFFFFF007FFFFFE000
07FFFFFF81FFFFFFF000
0FFFC7FF81FFC0FFF000
0FFC003FC3FE001FF800
1FF0001FE7F80007FC00
3FE0000FE7F00003FC00
3FC00007EFE00001FE00
7F800003FFC00000FF00
7F800003FFC000007F00
7F000003FF8000007F00
7F000001FF0000007F80
00000001FF0000003F80
00000001FF0000003F80
00000001FF0000003F80
00000001FE0000003FC0
00000001FE0000003FC0
00000001FE0000001FC0
00003FFFFFFFFFFFFFC0
001FFFFFFFFFFFFFFFC0
01FFFFFFFFFFFFFFFFC0
07FFFFFFFFFFFFFFFFC0
0FFFFFFFFFFFFFFFFFC0
3FFFF001FE0000000000
3FF00001FE0000000000
7FC00001FE0000000000
7F800001FE0000000000
FF000001FE0000000000
FF000001FF0000000000
FE000001FF0000000000
FE000001FF0000000000
FE000003FF8000007F80
FE000003FF8000007F80
FE000007FFC00000FF00
FF000007DFE00000FF00
FF00000FDFF00001FF00
FF80001F8FF80003FE00
7FC0007F87FC000FFC00
7FF001FF07FF803FF800
3FFF3FFE03FFFFFFF800
1FFFFFFC01FFFFFFF000
0FFFFFF800FFFFFFC000
07FFFFE0003FFFFF8000
03FFFFC0000FFFFE0000
007FFE000003FFF80000
0003E00000001E000000
ENDCHAR
STARTCHAR 00E7
ENCODING 231
SWIDTH 573 0
DWIDTH 51 0
BBX 42 70 5 -22
BITMAP
0000FFE00000
0007FFFC0000
001FFFFF0000
007FFFFFC000
00FFFFFFE000
01FFFFFFF000
03FFF9FFF800
07FF001FFC00
0FFC0007FE00
1FF80003FE00
1FF00001FF00
3FE00000FF00
3FC000007F80
7FC000007F80
7F8000003F80
7F8000003FC0
FF0000003FC0
FF0000001FC0
FF0000000000
FF0000000000
FF0000000000
FE0000000000
FE0000000000
FE0000000000
FE0000000000
FE0000000000
FE0000000000
FE0000000000
FF0000000000
FF0000000000
FF0000001FC0
FF0000001FC0
7F8000003FC0
7F8000003FC0
7F8000003F80
3FC000007F80
3FE000007F80
1FE00000FF00
1FF00001FF00
0FF80003FE00
0FFE0007FC00
07FF803FFC00
03FFFFFFF800
01FFFFFFF000
00FFFFFFE000
003FFFFF8000
000FFFFF0000
0003FFF80000
00001F800000
00001F000000
00001E000000
00001E000000
00003E000000
00003FF80000
00003FFE0000
00007FFF0000
00007FFF0000
0000001F8000
000000078000
000000078000
000000078000
000000078000
000000078000
0000000F8000
0000001F8000
00003FFF0000
00003FFE0000
00003FFE0000
00003FF80000
00001FE00000
ENDCHAR
STARTCHAR 00E8
ENCODING 232
SWIDTH 573 0
DWIDTH 51 0
BBX 42 70 5 -1
BITMAP
00FF00000000
00FF00000000
007F80000000
003FC0000000
003FC0000000
001FE0000000
000FE0000000
0007F0000000
0007F0000000
0003F8000000
0001F8000000
0001FC000000
0000FC000000
00007E000000
00007F000000
00003F000000
000000000000
000000000000
000000000000
000000000000
000000000000
0000FFE00000
0007FFFC0000
001FFFFF0000
007FFFFFC000
00FFFFFFE000
01FFFFFFF000
03FF807FF800
07FE000FFC00
0FF80003FC00
1FF00001FE00
1FE00000FE00
3FC00000FF00
3FC000007F00
7F8000007F80
7F8000003F80
7F0000003F80
FF0000003F80
FF0000003FC0
FF0000003FC0
FE0000001FC0
FE0000001FC0
FFFFFFFFFFC0
FFFFFFFFFFC0
FFFFFFFFFFC0
FFFFFFFFFFC0
FFFFFFFFFFC0
FE0000000000
FE0000000000
FE0000000000
FE0000000000
FF0000000000
FF0000000000
7F0000000000
7F0000000000
7F8000003F80
3FC000007F80
3FC00000FF80
1FE00000FF00
1FF00001FF00
0FF80003FE00
0FFE000FFC00
07FF803FF800
03FFFFFFF800
01FFFFFFF000
00FFFFFFC000
003FFFFF8000
001FFFFE0000
0003FFF80000
00003E000000
ENDCHAR
STARTCHAR 00E9
ENCODING 233
SWIDTH 573 0
DWIDTH 51 0
BBX 42 70 5 -1
BITMAP
0000001FE000
0000003FC000
0000003FC000
0000007F8000
0000007F0000
000000FF0000
000000FE0000
000001FC0000
000001FC0000
000003F80000
000003F00000
000007F00000
00000FE00000
00000FC00000
00001FC00000
00001F800000
000000000000
000000000000
000000000000
000000000000
000000000000
0000FFE00000
0007FFFC0000
001FFFFF0000
007FFFFFC000
00FFFFFFE000
01FFFFFFF000
03FF807FF800
07FE000FFC00
0FF80003FC00
1FF00001FE00
1FE00000FE00
3FC00000FF00
3FC000007F00
7F8000007F80
7F8000003F80
7F0000003F80
FF0000003F80
FF0000003FC0
FF0000003FC0
FE0000001FC0
FE0000001FC0
FFFFFFFFFFC0
FFFFFFFFFFC0
FFFFFFFFFFC0
FFFFFFFFFFC0
FFFFFFFFFFC0
FE0000000000
FE0000000000
FE0000000000
FE0000000000
FF0000000000
FF0000000000
7F0000000000
7F0000000000
7F8000003F80
3FC000007F80
3FC00000FF80
1FE00000FF00
1FF00001FF00
0FF80003FE00
0FFE000FFC00
07FF803FF800
03FFFFFFF800
01FFFFFFF000
00FFFFFFC000
003FFFFF8000
001FFFFE0000
0003FFF80000
00003E000000
ENDCHAR
STARTCHAR 00EA
ENCODING 234
SWIDTH 573 0
DWIDTH 51 0
BBX 42 67 5 -1
BITMAP
00003F800000
00007FC00000
0000FFE00000
0001FFF00000
0003FFF80000
0003FBFC0000
0007F1FC0000
000FE0FE0000
001FC07F0000
003FC07F8000
007F803FC000
00FF001FE000
01FE000FF000
000000000000
000000000000
000000000000
000000000000
000000000000
0000FFE00000
0007FFFC0000
001FFFFF0000
007FFFFFC000
00FFFFFFE000
01FFFFFFF000
03FF807FF800
07FE000FFC00
0FF80003FC00
1FF00001FE00
1FE00000FE00
3FC00000FF00
3FC000007F00
7F8000007F80
7F8000003F80
7F0000003F80
FF0000003F80
FF0000003FC0
FF0000003FC0
FE0000001FC0
FE0000001FC0
FFFFFFFFFFC0
FFFFFFFFFFC0
FFFFFFFFFFC0
FFFFFFFFFFC0
FFFFFFFFFFC0
FE0000000000
FE0000000000
FE0000000000
FE0000000000
FF0000000000
FF0000000000
7F0000000000
7F0000000000
7F8000003F80
3FC000007F80
3FC00000FF80
1FE00000FF00
1FF00001FF00
0FF80003FE00
0FFE000FFC00
07FF803FF800
03FFFFFFF800
01FFFFFFF000
00FFFFFFC000
003FFFFF8000
001FFFFE0000
0003FFF80000
00003E000000
ENDCHAR
STARTCHAR 00EB
ENCODING 235
SWIDTH 573 0
DWIDTH 51 0
BBX 42 66 5 0
BITMAP
003F001F8000
007F803FC000
00FFC03FE000
00FFC07FE000
00FFC07FE000
00FFC07FE000
00FF803FE000
007F803FC000
003F001F8000
000000000000
000000000000
000000000000
000000000000
000000000000
000000000000
000000000000
000000000000
0000FFE00000
0007FFFC0000
001FFFFF0000
007FFFFFC000
00FFFFFFE000
01FFFFFFF000
03FF807FF800
07FE000FFC00
0FF80003FC00
1FF00001FE00
1FE00000FE00
3FC00000FF00
3FC000007F00
7F8000007F80
7F8000003F80
7F0000003F80
FF0000003F80
FF0000003FC0
FF0000003FC0
FE0000001FC0
FE0000001FC0
FFFFFFFFFFC0
FFFFFFFFFFC0
FFFFFFFFFFC0
FFFFFFFFFFC0
FFFFFFFFFFC0
FE0000000000
FE0000000000
FE0000000000
FE0000000000
FF0000000000
FF0000000000
7F0000000000
7F0000000000
7F8000003F80
3FC000007F80
3FC00000FF80
1FE00000FF00
1FF00001FF00
0FF80003FE00
0FFE000FFC00
07FF803FF800
03FFFFFFF800
01FFFFFFF000
00FFFFFFC000
003FFFFF8000
001FFFFE0000
0003FFF80000
00003E000000
ENDCHAR
STARTCHAR 00EC
ENCODING 236
SWIDTH 247 0
DWIDTH 22 0
BBX 18 69 -3 0
BITMAP
FF0000
7F8000
3FC000
3FC000
1FE000
0FE000
0FF000
07F000
03F800
03F800
01FC00
00FE00
00FE00
007F00
003F00
003F80
000000
000000
000000
000000
000000
000000
003FC0
003FC0
003FC0
003FC0
003FC0
003FC0
003FC0
003FC0
003FC0
003FC0
003FC0
003FC0
003FC0
003FC0
003FC0
003FC0
003FC0
003FC0
003FC0
003FC0
003FC0
003FC0
003FC0
003FC0
003FC0
003FC0
003FC0
003FC0
003FC0
003FC0
003FC0
003FC0
003FC0
003FC0
003FC0
003FC0
003FC0
003FC0
003FC0
003FC0
003FC0
003FC0
003FC0
003FC0
003FC0
003FC0
003FC0
ENDCHAR
STARTCHAR 00ED
ENCODING 237
SWIDTH 247 0
DWIDTH 22 0
BBX 18 69 7 0
BITMAP
003FC0
007F80
007F00
00FF00
01FE00
01FC00
03FC00
03F800
07F000
07F000
0FE000
0FC000
1FC000
1F8000
3F0000
7F0000
000000
000000
000000
000000
000000
000000
FF0000
FF0000
FF0000
FF0000
FF0000
FF0000
FF0000
FF0000
FF0000
FF0000
FF0000
FF0000
FF0000
FF0000
FF0000
FF0000
FF0000
FF0000
FF0000
FF0000
FF0000
FF0000
FF0000
FF0000
FF0000
FF0000
FF0000
FF0000
FF0000
FF0000
FF0000
FF0000
FF0000
FF0000
FF0000
FF0000
FF0000
FF0000
FF0000
FF0000
FF0000
FF0000
FF0000
FF0000
FF0000
FF0000
FF0000
ENDCHAR
STARTCHAR 00EE
ENCODING 238
SWIDTH 247 0
DWIDTH 22 0
BBX 29 66 -3 0
BITMAP
001FC000
003FE000
007FE000
00FFF000
01FFF800
03FFFC00
07F9FE00
0FF0FF00
1FE07F80
1FC03FC0
3F801FE0
7F000FF0
FE0007F0
00000008
00000000
00000000
00000000
00000000
00000000
003FC000
003FC000
003FC000
003FC000
003FC000
003FC000
003FC000
003FC000
003FC000
003FC000
003FC000
003FC000
003FC000
003FC000
003FC000
003FC000
003FC000
003FC000
003FC000
003FC000
003FC000
003FC000
003FC000
003FC000
003FC000
003FC000
003FC000
003FC000
003FC000
003FC000
003FC000
003FC000
003FC000
003FC000
003FC000
003FC000
003FC000
003FC000
003FC000
003FC000
003FC000
003FC000
003FC000
003FC000
003FC000
003FC000
003FC000
ENDCHAR
STARTCHAR 00EF
ENCODING 239
SWIDTH 247 0
DWIDTH 22 0
BBX 28 66 -3 0
BITMAP
04000000
3F800FC0
7FC01FE0
7FC03FF0
7FC03FF0
FFE03FF0
7FC03FF0
7FC03FF0
7F801FE0
3F000FC0
00000000
00000000
00000000
00000000
00000000
00000000
00000000
00000000
00000000
003FC000
003FC000
003FC000
003FC000
003FC000
003FC000
003FC000
003FC000
003FC000
003FC000
003FC000
003FC000
003FC000
003FC000
003FC000
003FC000
003FC000
003FC000
003FC000
003FC000
003FC000
003FC000
003FC000
003FC000
003FC000
003FC000
003FC000
003FC000
003FC000
003FC000
003FC000
003FC000
003FC000
003FC000
003FC000
003FC000
003FC000
003FC000
003FC000
003FC000
003FC000
003FC000
003FC000
003FC000
003FC000
003FC000
003FC000
ENDCHAR
STARTCHAR 00F0
ENCODING 240
SWIDTH 607 0
DWIDTH 54 0
BBX 44 71 4 -1
BITMAP
0001FC000000
0001FF800380
0001FFF00FC0
0001FFFC1FC0
0001FFFE7FE0
0001FFFFFF80
000007FFFE00
000001FFF800
0000007FF000
000000FFF800
000001FFFC00
000007FFFC00
00001FFBFE00
00000FE1FF00
00000F80FF00
00000600FF80
000004007F80
000000003F80
000000003FC0
000000003FC0
000000001FC0
000000001FE0
0001FF801FE0
000FFFE01FE0
003FFFF80FE0
00FFFFFC0FE0
01FFFFFF0FE0
03FFFFFF8FE0
07FFF9FF8FE0
0FFF001FCFF0
0FFC0007EFF0
1FF80003EFF0
1FF00001FFF0
3FE00000FFF0
3FC000007FF0
7FC000007FF0
7F8000003FF0
7F8000003FF0
FF8000001FF0
FF0000001FF0
FF0000001FF0
FF0000001FF0
FF0000000FF0
FF0000000FF0
FF0000000FF0
FE0000000FF0
FE0000000FF0
FE0000000FF0
FF0000000FE0
FF0000000FE0
FF0000001FE0
FF0000001FE0
FF0000001FE0
7F0000001FE0
7F8000003FC0
7F8000003FC0
7FC000003FC0
3FC000007F80
3FE00000FF80
1FE00000FF00
1FF00001FF00
0FF80003FE00
07FE000FFE00
07FFC03FFC00
03FFFFFFF800
01FFFFFFF000
007FFFFFE000
003FFFFF8000
000FFFFE0000
0003FFF80000
00001F000000
ENDCHAR
STARTCHAR 00F1
ENCODING 241
SWIDTH 607 0
DWIDTH 54 0
BBX 41 65 7 0
BITMAP
000FC00F8000
003FF00F8000
007FF80F8000
007FFE0F8000
00FFFFBF0000
00FCFFFF0000
00F83FFE0000
00F00FFE0000
01F007FC0000
01F001F00000
000000000000
000000000000
000000000000
000000000000
000000000000
000000000000
000000000000
00001FF80000
FE00FFFE0000
FE03FFFF8000
FE07FFFFE000
FE0FFFFFF000
FE1FFFFFF800
FE3FFFFFF800
FE7F007FFC00
FE7C000FFE00
FEF00007FE00
FFE00003FF00
FFC00001FF00
FFC00000FF00
FF800000FF80
FF8000007F80
FF0000007F80
FF0000007F80
FF0000007F80
FE0000003F80
FE0000003F80
FE0000003F80
FE0000003F80
FE0000003F80
FE0000003F80
FE0000003F80
FE0000003F80
FE0000003F80
FE0000003F80
FE0000003F80
FE0000003F80
FE0000003F80
FE0000003F80
FE0000003F80
FE0000003F80
FE0000003F80
FE0000003F80
FE0000003F80
FE0000003F80
FE0000003F80
FE0000003F80
FE0000003F80
FE0000003F80
FE0000003F80
FE0000003F80
FE0000003F80
FE0000003F80
FE0000003F80
FE0000003F80
ENDCHAR
STARTCHAR 00F2
ENCODING 242
SWIDTH 585 0
DWIDTH 52 0
BBX 43 70 5 -1
BITMAP
00FF00000000
00FF00000000
007F80000000
003FC0000000
003FC0000000
001FE0000000
000FE0000000
0007F0000000
0007F0000000
0003F8000000
0001F8000000
0001FC000000
0000FC000000
00007E000000
00007F000000
00003F000000
000000000000
000000000000
000000000000
000000000000
000000000000
0000FFE00000
0007FFFC0000
001FFFFF0000
007FFFFFC000
00FFFFFFE000
01FFFFFFF000
03FFF3FFF800
07FF001FFC00
0FFC0007FE00
1FF80003FE00
1FF00001FF00
3FE00000FF80
3FC000007F80
7FC000007F80
7F8000003FC0
7F8000003FC0
FF0000001FC0
FF0000001FE0
FF0000001FE0
FF0000001FE0
FE0000001FE0
FE0000000FE0
FE0000000FE0
FE0000000FE0
FE0000000FE0
FE0000000FE0
FE0000000FE0
FE0000001FE0
FE0000001FE0
FF0000001FE0
FF0000001FE0
FF0000001FC0
7F8000003FC0
7F8000003FC0
7F8000007FC0
3FC000007F80
3FE00000FF80
1FE00001FF00
1FF00003FF00
0FFC0007FE00
0FFE000FFC00
07FFC07FFC00
03FFFFFFF800
01FFFFFFF000
00FFFFFFC000
003FFFFF8000
000FFFFE0000
0003FFF80000
00001E000000
ENDCHAR
STARTCHAR 00F3
ENCODING 243
SWIDTH 585 0
DWIDTH 52 0
BBX 43 70 5 -1
BITMAP
0000001FE000
0000003FC000
0000003FC000
0000007F8000
0000007F0000
000000FF0000
000000FE0000
000001FC0000
000001FC0000
000003F80000
000003F00000
000007F00000
00000FE00000
00000FC00000
00001FC00000
00001F800000
000000000000
000000000000
000000000000
000000000000
000000000000
0000FFE00000
0007FFFC0000
001FFFFF0000
007FFFFFC000
00FFFFFFE000
01FFFFFFF000
03FFF3FFF800
07FF001FFC00
0FFC0007FE00
1FF80003FE00
1FF00001FF00
3FE00000FF80
3FC000007F80
7FC000007F80
7F8000003FC0
7F8000003FC0
FF0000001FC0
FF0000001FE0
FF0000001FE0
FF0000001FE0
FE0000001FE0
FE0000000FE0
FE0000000FE0
FE0000000FE0
FE0000000FE0
FE0000000FE0
FE0000000FE0
FE0000001FE0
FE0000001FE0
FF0000001FE0
FF0000001FE0
FF0000001FC0
7F8000003FC0
7F8000003FC0
7F8000007FC0
3FC000007F80
3FE00000FF80
1FE00001FF00
1FF00003FF00
0FFC0007FE00
0FFE000FFC00
07FFC07FFC00
03FFFFFFF800
01FFFFFFF000
00FFFFFFC000
003FFFFF8000
000FFFFE0000
0003FFF80000
00001E000000
ENDCHAR
STARTCHAR 00F4
ENCODING 244
SWIDTH 585 0
DWIDTH 52 0
BBX 43 67 5 -1
BITMAP
00003F800000
00007FC00000
0000FFE00000
0001FFF00000
0003FFF80000
0003FBFC0000
0007F1FC0000
000FE0FE0000
001FC07F0000
003FC07F8000
007F803FC000
00FF001FE000
01FE000FF000
000000000000
000000000000
000000000000
000000000000
000000000000
0000FFE00000
0007FFFC0000
001FFFFF0000
007FFFFFC000
00FFFFFFE000
01FFFFFFF000
03FFF3FFF800
07FF001FFC00
0FFC0007FE00
1FF80003FE00
1FF00001FF00
3FE00000FF80
3FC000007F80
7FC000007F80
7F8000003FC0
7F8000003FC0
FF0000001FC0
FF0000001FE0
FF0000001FE0
FF0000001FE0
FE0000001FE0
FE0000000FE0
FE0000000FE0
FE0000000FE0
FE0000000FE0
FE0000000FE0
FE0000000FE0
FE0000001FE0
FE0000001FE0
FF0000001FE0
FF0000001FE0
FF0000001FC0
7F8000003FC0
7F8000003FC0
7F8000007FC0
3FC000007F80
3FE00000FF80
1FE00001FF00
1FF00003FF00
0FFC0007FE00
0FFE000FFC00
07FFC07FFC00
03FFFFFFF800
01FFFFFFF000
00FFFFFFC000
003FFFFF8000
000FFFFE0000
0003FFF80000
00001E000000
ENDCHAR
STARTCHAR 00F5
ENCODING 245
SWIDTH 585 0
DWIDTH 52 0
BBX 43 66 5 -1
BITMAP
0007E003C000
000FF807C000
001FFC07C000
003FFF07C000
003FFFDFC000
007E7FFF8000
007C1FFF8000
007C07FF0000
007803FE0000
007800780000
000000000000
000000000000
000000000000
000000000000
000000000000
000000000000
000000000000
0000FFE00000
0007FFFC0000
001FFFFF0000
007FFFFFC000
00FFFFFFE000
01FFFFFFF000
03FFF3FFF800
07FF001FFC00
0FFC0007FE00
1FF80003FE00
1FF00001FF00
3FE00000FF80
3FC000007F80
7FC000007F80
7F8000003FC0
7F8000003FC0
FF0000001FC0
FF0000001FE0
FF0000001FE0
FF0000001FE0
FE0000001FE0
FE0000000FE0
FE0000000FE0
FE0000000FE0
FE0000000FE0
FE0000000FE0
FE0000000FE0
FE0000001FE0
FE0000001FE0
FF0000001FE0
FF0000001FE0
FF0000001FC0
7F8000003FC0
7F8000003FC0
7F8000007FC0
3FC000007F80
3FE00000FF80
1FE00001FF00
1FF00003FF00
0FFC0007FE00
0FFE000FFC00
07FFC07FFC00
03FFFFFFF800
01FFFFFFF000
00FFFFFFC000
003FFFFF8000
000FFFFE0000
0003FFF80000
00001E000000
ENDCHAR
STARTCHAR 00F6
ENCODING 246
SWIDTH 585 0
DWIDTH 52 0
BBX 43 66 5 0
BITMAP
003F001F8000
007F803FC000
00FFC03FE000
00FFC07FE000
00FFC07FE000
00FFC07FE000
00FF803FE000
007F803FC000
003F001F8000
000000000000
000000000000
000000000000
000000000000
000000000000
000000000000
000000000000
000000000000
0000FFE00000
0007FFFC0000
001FFFFF0000
007FFFFFC000
00FFFFFFE000
01FFFFFFF000
03FFF3FFF800
07FF001FFC00
0FFC0007FE00
1FF80003FE00
1FF00001FF00
3FE00000FF80
3FC000007F80
7FC000007F80
7F8000003FC0
7F8000003FC0
FF0000001FC0
FF0000001FE0
FF0000001FE0
FF0000001FE0
FE0000001FE0
FE0000000FE0
FE0000000FE0
FE0000000FE0
FE0000000FE0
FE0000000FE0
FE0000000FE0
FE0000001FE0
FE0000001FE0
FF0000001FE0
FF0000001FE0
FF0000001FC0
7F8000003FC0
7F8000003FC0
7F8000007FC0
3FC000007F80
3FE00000FF80
1FE00001FF00
1FF00003FF00
0FFC0007FE00
0FFE000FFC00
07FFC07FFC00
03FFFFFFF800
01FFFFFFF000
00FFFFFFC000
003FFFFF8000
000FFFFE0000
0003FFF80000
00001E000000
ENDCHAR
STARTCHAR 00F7
ENCODING 247
SWIDTH 596 0
DWIDTH 53 0
BBX 35 42 7 7
BITMAP
0001F00000
0003F80000
0007FC0000
000FFC0000
000FFC0000
000FFC0000
000FFC0000
0007FC0000
0007F80000
0003F00000
0000000000
0000000000
0000000000
0000000000
0000000000
0000000000
0000000000
0000000000
FFFFFFFFE0
FFFFFFFFE0
FFFFFFFFE0
FFFFFFFFE0
FFFFFFFFE0
FFFFFFFFE0
FFFFFFFFE0
0000000000
0000000000
0000000000
0000000000
0000000000
0000000000
0000000000
0003F00000
0007F80000
0007FC0000
000FFC0000
000FFC0000
000FFC0000
000FFC0000
0007FC0000
0003F80000
0001E00000
ENDCHAR
STARTCHAR 00F8
ENCODING 248
SWIDTH 585 0
DWIDTH 52 0
BBX 43 56 5 -4
BITMAP
000000003F00
000000007E00
000000007C00
00000000FC00
0000FFE1F800
0007FFFDF800
001FFFFFF000
007FFFFFF000
00FFFFFFE000
01FFFFFFF000
03FFFBFFF800
07FF001FFC00
0FFC001FFE00
1FF8003FFE00
1FF0003FFF00
3FE0007EFF80
3FC0007E7F80
7FC000FC7F80
7F8000FC3FC0
7F8001F83FC0
FF0001F81FC0
FF0003F01FE0
FF0007E01FE0
FF0007E01FE0
FE000FC01FE0
FE000FC00FE0
FE001F800FE0
FE001F800FE0
FE003F000FE0
FE003E000FE0
FE007E000FE0
FE00FC001FE0
FF00FC001FE0
FF01F8001FE0
FF01F8001FE0
FF03F0001FC0
7F83F0003FC0
7F87E0003FC0
7F87C0007FC0
3FCFC0007F80
3FFF8000FF80
1FFF8001FF00
1FFF0003FF00
0FFF0007FE00
07FE000FFC00
07FFC07FF800
03FFFFFFF800
01FFFFFFE000
01FFFFFFC000
03FFFFFF8000
03FFFFFE0000
07E3FFF80000
07E004000000
0FC000000000
0FC000000000
1F8000000000
ENDCHAR
STARTCHAR 00F9
ENCODING 249
SWIDTH 596 0
DWIDTH 53 0
BBX 40 70 7 -1
BITMAP
07F8000000
03FC000000
03FC000000
01FE000000
00FE000000
00FF000000
007F000000
003F800000
003F800000
001FC00000
000FE00000
000FE00000
0007F00000
0003F00000
0003F80000
0001F80000
0000000000
0000000000
0000000000
0000000000
0000000000
0000000000
FE0000007F
FE0000007F
FE0000007F
FE0000007F
FE0000007F
FE0000007F
FE0000007F
FE0000007F
FE0000007F
FE0000007F
FE0000007F
FE0000007F
FE0000007F
FE0000007F
FE0000007F
FE0000007F
FE0000007F
FE0000007F
FE0000007F
FE0000007F
FE0000007F
FE0000007F
FE0000007F
FE0000007F
FE0000007F
FE0000007F
FE0000007F
FE0000007F
FE0000007F
FE0000007F
FF000000FF
FF000000FF
FF000000FF
FF000001FF
FF800001FF
7F800003FF
7FC00003FF
7FE00007FF
3FF0000F7F
3FFC003E7F
1FFF00FE7F
0FFFFFFC7F
0FFFFFF87F
07FFFFF07F
01FFFFE07F
00FFFFC07F
003FFF007F
0007F00000
ENDCHAR
STARTCHAR 00FA
ENCODING 250
SWIDTH 596 0
DWIDTH 53 0
BBX 40 70 7 -1
BITMAP
000000FF00
000000FF00
000001FE00
000001FC00
000003FC00
000007F800
000007F000
00000FF000
00000FE000
00001FC000
00001FC000
00003F8000
00003F0000
00007F0000
00007E0000
0000FC0000
0000000000
0000000000
0000000000
0000000000
0000000000
0000000000
FE0000007F
FE0000007F
FE0000007F
FE0000007F
FE0000007F
FE0000007F
FE0000007F
FE0000007F
FE0000007F
FE0000007F
FE0000007F
FE0000007F
FE0000007F
FE0000007F
FE0000007F
FE0000007F
FE0000007F
FE0000007F
FE0000007F
FE0000007F
FE0000007F
FE0000007F
FE0000007F
FE0000007F
FE0000007F
FE0000007F
FE0000007F
FE0000007F
FE0000007F
FE0000007F
FF000000FF
FF000000FF
FF000000FF
FF000001FF
FF800001FF
7F800003FF
7FC00003FF
7FE00007FF
3FF0000F7F
3FFC003E7F
1FFF00FE7F
0FFFFFFC7F
0FFFFFF87F
07FFFFF07F
01FFFFE07F
00FFFFC07F
003FFF007F
0007F00000
ENDCHAR
STARTCHAR 00FB
ENCODING 251
SWIDTH 596 0
DWIDTH 53 0
BBX 40 67 7 -1
BITMAP
0001FC0000
0003FE0000
0007FF0000
0007FF8000
000FFFC000
001FDFE000
003F8FF000
007F87F800
00FF03F800
01FE01FC00
03FC00FE00
07F800FF00
0FF0007F80
0000000000
0000000000
0000000000
0000000000
0000000000
0000000000
FE0000007F
FE0000007F
FE0000007F
FE0000007F
FE0000007F
FE0000007F
FE0000007F
FE0000007F
FE0000007F
FE0000007F
FE0000007F
FE0000007F
FE0000007F
FE0000007F
FE0000007F
FE0000007F
FE0000007F
FE0000007F
FE0000007F
FE0000007F
FE0000007F
FE0000007F
FE0000007F
FE0000007F
FE0000007F
FE0000007F
FE0000007F
FE0000007F
FE0000007F
FE0000007F
FF000000FF
FF000000FF
FF000000FF
FF000001FF
FF800001FF
7F800003FF
7FC00003FF
7FE00007FF
3FF0000F7F
3FFC003E7F
1FFF00FE7F
0FFFFFFC7F
0FFFFFF87F
07FFFFF07F
01FFFFE07F
00FFFFC07F
003FFF007F
0007F00000
ENDCHAR
STARTCHAR 00FC
ENCODING 252
SWIDTH 596 0
DWIDTH 53 0
BBX 40 67 7 -1
BITMAP
0020001000
01F800FE00
03FC01FF00
07FE01FF00
07FE01FF00
07FE03FF80
07FE01FF00
07FE01FF00
03FC01FE00
01F800FC00
0000000000
0000000000
0000000000
0000000000
0000000000
0000000000
0000000000
0000000000
0000000000
FE0000007F
FE0000007F
FE0000007F
FE0000007F
FE0000007F
FE0000007F
FE0000007F
FE0000007F
FE0000007F
FE0000007F
FE0000007F
FE0000007F
FE0000007F
FE0000007F
FE0000007F
FE0000007F
FE0000007F
FE0000007F
FE0000007F
FE0000007F
FE0000007F
FE0000007F
FE0000007F
FE0000007F
FE0000007F
FE0000007F
FE0000007F
FE0000007F
FE0000007F
FE0000007F
FF000000FF
FF000000FF
FF000000FF
FF000001FF
FF800001FF
7F800003FF
7FC00003FF
7FE00007FF
3FF0000F7F
3FFC003E7F
1FFF00FE7F
0FFFFFFC7F
0FFFFFF87F
07FFFFF07F
01FFFFE07F
00FFFFC07F
003FFF007F
0007F00000
ENDCHAR
STARTCHAR 00FD
ENCODING 253
SWIDTH 528 0
DWIDTH 47 0
BBX 43 87 3 -18
BITMAP
0000003FE000
0000003FC000
0000007F8000
0000007F8000
000000FF0000
000000FE0000
000001FE0000
000001FC0000
000003F80000
000003F80000
000007F00000
00000FE00000
00000FC00000
00001FC00000
00001F800000
00003F000000
000000000000
000000000000
000000000000
000000000000
000000000000
000000000000
FF0000001FE0
FF0000003FC0
FF0000003FC0
7F8000003FC0
7F8000007F80
3FC000007F80
3FC00000FF00
3FC00000FF00
1FE00000FE00
1FE00001FE00
0FE00001FE00
0FF00001FC00
0FF00003FC00
07F00003F800
07F80007F800
03F80007F800
03F80007F000
03FC000FF000
01FC000FE000
01FE000FE000
01FE001FE000
00FE001FC000
00FF003FC000
007F003F8000
007F003F8000
007F807F0000
003F807F0000
003F80FF0000
001FC0FE0000
001FC0FE0000
001FE1FC0000
000FE1FC0000
000FE1FC0000
0007F3F80000
0007F3F80000
0007F7F00000
0003FFF00000
0003FFF00000
0003FFE00000
0001FFE00000
0001FFC00000
0000FFC00000
0000FFC00000
0000FF800000
00007F800000
00007F000000
0000FF000000
0000FE000000
0001FE000000
0001FE000000
0001FC000000
0003FC000000
0003F8000000
0007F8000000
0007F8000000
000FF0000000
001FF0000000
003FE0000000
00FFE0000000
7FFFC0000000
7FFF80000000
7FFF00000000
7FFE00000000
7FFC00000000
7FE000000000
ENDCHAR
STARTCHAR 00FE
ENCODING 254
SWIDTH 618 0
DWIDTH 55 0
BBX 44 88 7 -21
BITMAP
FE0000000000
FE0000000000
FE0000000000
FE0000000000
FE0000000000
FE0000000000
FE0000000000
FE0000000000
FE0000000000
FE0000000000
FE0000000000
FE0000000000
FE0000000000
FE0000000000
FE0000000000
FE0000000000
FE0000000000
FE0000000000
FE0000000000
FE001FF80000
FE00FFFF0000
FE03FFFFC000
FE07FFFFE000
FE0FFFFFF000
FE1FFFFFF800
FE3FFFFFFC00
FE7F001FFE00
FE7C0007FF00
FEF80003FF00
FFF00001FF80
FFE00000FF80
FFC000007FC0
FFC000007FC0
FF8000003FC0
FF8000003FE0
FF8000001FE0
FF0000001FE0
FF0000001FE0
FF0000001FE0
FF0000001FE0
FF0000000FF0
FF0000000FF0
FE0000000FF0
FE0000000FF0
FE0000000FF0
FF0000000FF0
FF0000000FF0
FF0000001FE0
FF0000001FE0
FF0000001FE0
FF0000001FE0
FF8000003FE0
FF8000003FC0
FFC000003FC0
FFC000007FC0
FFE00000FF80
FFF00000FF80
FFF00001FF80
FEFC0003FF00
FE7E000FFE00
FE3FC03FFE00
FE3FFFFFFC00
FE1FFFFFF800
FE0FFFFFF000
FE03FFFFC000
FE01FFFF8000
FE007FFE0000
FE0003E00000
FE0000000000
FE0000000000
FE0000000000
FE0000000000
FE0000000000
FE0000000000
FE0000000000
FE0000000000
FE0000000000
FE0000000000
FE0000000000
FE0000000000
FE0000000000
FE0000000000
FE0000000000
FE0000000000
FE0000000000
FE0000000000
FE0000000000
FE0000000000
ENDCHAR
STARTCHAR 00FF
ENCODING 255
SWIDTH 528 0
DWIDTH 47 0
BBX 43 84 3 -18
BITMAP
000000040000
007E001F8000
00FF003FC000
00FF807FC000
01FF807FE000
01FF807FE000
01FF807FE000
00FF807FC000
00FF003FC000
007E001F8000
000000000000
000000000000
000000000000
000000000000
000000000000
000000000000
000000000000
000000000000
000000000000
FF0000001FE0
FF0000003FC0
FF0000003FC0
7F8000003FC0
7F8000007F80
3FC000007F80
3FC00000FF00
3FC00000FF00
1FE00000FE00
1FE00001FE00
0FE00001FE00
0FF00001FC00
0FF00003FC00
07F00003F800
07F80007F800
03F80007F800
03F80007F000
03FC000FF000
01FC000FE000
01FE000FE000
01FE001FE000
00FE001FC000
00FF003FC000
007F003F8000
007F003F8000
007F807F0000
003F807F0000
003F80FF0000
001FC0FE0000
001FC0FE0000
001FE1FC0000
000FE1FC0000
000FE1FC0000
0007F3F80000
0007F3F80000
0007F7F00000
0003FFF00000
0003FFF00000
0003FFE00000
0001FFE00000
0001FFC00000
0000FFC00000
0000FFC00000
0000FF800000
00007F800000
00007F000000
0000FF000000
0000FE000000
0001FE000000
0001FE000000
0001FC000000
0003FC000000
0003F8000000
0007F8000000
0007F8000000
000FF0000000
001FF0000000
003FE0000000
00FFE0000000
7FFFC0000000
7FFF80000000
7FFF00000000
7FFE00000000
7FFC00000000
7FE000000000
ENDCHAR
STARTCHAR 0100
ENCODING 256
SWIDTH 675 0
DWIDTH 60 0
BBX 54 75 3 0
BITMAP
0003FFFFFF0000
0003FFFFFF0000
0003FFFFFF0000
0003FFFFFF0000
00000000000000
00000000000000
00000000000000
00000000000000
00000000000000
00000000000000
00000000000000
00000000000000
00000000000000
000001FE000000
000001FF000000
000001FF000000
000003FF000000
000003FF800000
000007FF800000
000007FF800000
000007FFC00000
00000FFFC00000
00000FFFE00000
00000FEFE00000
00001FCFE00000
00001FCFF00000
00003FC7F00000
00003F87F00000
00003F83F80000
00007F03F80000
00007F03FC0000
00007F01FC0000
0000FE01FC0000
0000FE01FE0000
0001FE00FE0000
0001FC00FE0000
0001FC00FF0000
0003FC007F0000
0003F8007F8000
0003F8003F8000
0007F8003F8000
0007F0003FC000
000FF0001FC000
000FE0001FE000
000FE0001FE000
001FE0000FE000
001FC0000FF000
001FC00007F000
003FC00007F000
003F800007F800
007F800003F800
007FFFFFFFFC00
007FFFFFFFFC00
00FFFFFFFFFC00
00FFFFFFFFFE00
00FFFFFFFFFE00
01FFFFFFFFFE00
01FC000000FF00
03FC0000007F00
03FC0000007F80
03F80000007F80
07F80000003F80
07F80000003FC0
07F00000003FC0
0FF00000001FC0
0FE00000001FE0
1FE00000001FE0
1FE00000000FF0
1FC00000000FF0
3FC000000007F0
3FC000000007F8
3F8000000007F8
7F8000000003F8
7F8000000003FC
FF0000000003FC
ENDCHAR
STARTCHAR 0101
ENCODING 257
SWIDTH 618 0
DWIDTH 55 0
BBX 44 61 4 -1
BITMAP
003FFFFFF800
003FFFFFF800
003FFFFFF800
003FFFFFF800
000000000000
000000000000
000000000000
000000000000
000000000000
000000000000
000000000000
000000000000
0001FF800000
000FFFF007F0
003FFFFC07F0
007FFFFE07F0
00FFFFFF07F0
01FFFFFF87F0
03FFFFFFC7F0
07FF800FE7F0
0FFE0007E7F0
0FF80001F7F0
1FF00000FFF0
1FF000007FF0
3FE000007FF0
3FC000003FF0
3FC000003FF0
7F8000001FF0
7F8000001FF0
7F8000001FF0
7F8000000FF0
FF0000000FF0
FF0000000FF0
FF0000000FF0
FF0000000FF0
FF0000000FF0
FF0000000FF0
FF0000000FF0
FF0000000FF0
FF0000000FF0
FF0000000FF0
7F0000000FF0
7F8000000FF0
7F8000001FF0
7F8000001FF0
7FC000001FF0
3FC000003FF0
3FE000003FF0
3FE000007FF0
1FF00000FFF0
1FF80001F7F0
0FFC0003E7F0
0FFF0007E7F0
07FFC03FC7F0
03FFFFFF87F0
01FFFFFF07F0
00FFFFFE07F0
007FFFFC07F0
001FFFF807F0
0007FFE007F0
00003C000000
ENDCHAR
STARTCHAR 0102
ENCODING 258
SWIDTH 675 0
DWIDTH 60 0
BBX 54 79 3 0
BITMAP
000FE0001FC000
0007F0001FC000
0007F8003F8000
0003FC007F0000
0001FF03FE0000
0000FFFFFC0000
00007FFFF80000
00001FFFF00000
000007FF800000
00000030000000
00000000000000
00000000000000
00000000000000
00000000000000
00000000000000
00000000000000
00000000000000
000001FE000000
000001FF000000
000001FF000000
000003FF000000
000003FF800000
000007FF800000
000007FF800000
000007FFC00000
00000FFFC00000
00000FFFE00000
00000FEFE00000
00001FCFE00000
00001FCFF00000
00003FC7F00000
00003F87F00000
00003F83F80000
00007F03F80000
00007F03FC0000
00007F01FC0000
0000FE01FC0000
0000FE01FE0000
0001FE00FE0000
0001FC00FE0000
0001FC00FF0000
0003FC007F0000
0003F8007F8000
0003F8003F8000
0007F8003F8000
0007F0003FC000
000FF0001FC000
000FE0001FE000
000FE0001FE000
001FE0000FE000
001FC0000FF000
001FC00007F000
003FC00007F000
003F800007F800
007F800003F800
007FFFFFFFFC00
007FFFFFFFFC00
00FFFFFFFFFC00
00FFFFFFFFFE00
00FFFFFFFFFE00
01FFFFFFFFFE00
01FC000000FF00
03FC0000007F00
03FC0000007F80
03F80000007F80
07F80000003F80
07F80000003FC0
07F00000003FC0
0FF00000001FC0
0FE00000001FE0
1FE00000001FE0
1FE00000000FF0
1FC00000000FF0
3FC000000007F0
3FC000000007F8
3F8000000007F8
7F8000000003F8
7F8000000003FC
FF0000000003FC
ENDCHAR
STARTCHAR 0103
ENCODING 259
SWIDTH 618 0
DWIDTH 55 0
BBX 44 64 4 -1
BITMAP
007E0001FC00
007F0003F800
003F8007F000
001FE01FF000
000FFFFFE000
0007FFFF8000
0003FFFF0000
0000FFFC0000
00001FF00000
000000000000
000000000000
000000000000
000000000000
000000000000
000000000000
0001FF800000
000FFFF007F0
003FFFFC07F0
007FFFFE07F0
00FFFFFF07F0
01FFFFFF87F0
03FFFFFFC7F0
07FF800FE7F0
0FFE0007E7F0
0FF80001F7F0
1FF00000FFF0
1FF000007FF0
3FE000007FF0
3FC000003FF0
3FC000003FF0
7F8000001FF0
7F8000001FF0
7F8000001FF0
7F8000000FF0
FF0000000FF0
FF0000000FF0
FF0000000FF0
FF0000000FF0
FF0000000FF0
FF0000000FF0
FF0000000FF0
FF0000000FF0
FF0000000FF0
FF0000000FF0
7F0000000FF0
7F8000000FF0
7F8000001FF0
7F8000001FF0
7FC000001FF0
3FC000003FF0
3FE000003FF0
3FE000007FF0
1FF00000FFF0
1FF80001F7F0
0FFC0003E7F0
0FFF0007E7F0
07FFC03FC7F0
03FFFFFF87F0
01FFFFFF07F0
00FFFFFE07F0
007FFFFC07F0
001FFFF807F0
0007FFE007F0
00003C000000
ENDCHAR
STARTCHAR 0104
ENCODING 260
SWIDTH 675 0
DWIDTH 60 0
BBX 56 76 3 -14
BITMAP
000001FE000000
000001FF000000
000001FF000000
000003FF000000
000003FF800000
000007FF800000
000007FF800000
000007FFC00000
00000FFFC00000
00000FFFE00000
00000FEFE00000
00001FCFE00000
00001FCFF00000
00003FC7F00000
00003F87F00000
00003F83F80000
00007F03F80000
00007F03FC0000
00007F01FC0000
0000FE01FC0000
0000FE01FE0000
0001FE00FE0000
0001FC00FE0000
0001FC00FF0000
0003FC007F0000
0003F8007F8000
0003F8003F8000
0007F8003F8000
0007F0003FC000
000FF0001FC000
000FE0001FE000
000FE0001FE000
001FE0000FE000
001FC0000FF000
001FC00007F000
003FC00007F000
003F800007F800
007F800003F800
007FFFFFFFFC00
007FFFFFFFFC00
00FFFFFFFFFC00
00FFFFFFFFFE00
00FFFFFFFFFE00
01FFFFFFFFFE00
01FC000000FF00
03FC0000007F00
03FC0000007F80
03F80000007F80
07F80000003F80
07F80000003FC0
07F00000003FC0
0FF00000001FC0
0FE00000001FE0
1FE00000001FE0
1FE00000000FF0
1FC00000000FF0
3FC000000007F0
3FC000000007F8
3F8000000007F8
7F8000000003F8
7F8000000003FC
FF0000000003FC
000000000007F0
00000000000FE0
00000000000FC0
00000000001F80
00000000001F00
00000000001F00
00000000001F00
00000000001F00
00000000001F80
00000000001FC0
00000000001FFF
00000000000FFF
000000000007FF
000000000001FF
ENDCHAR
STARTCHAR 0105
ENCODING 261
SWIDTH 618 0
DWIDTH 55 0
BBX 48 62 4 -14
BITMAP
0001FF800000
000FFFF007F0
003FFFFC07F0
007FFFFE07F0
00FFFFFF07F0
01FFFFFF87F0
03FFFFFFC7F0
07FF800FE7F0
0FFE0007E7F0
0FF80001F7F0
1FF00000FFF0
1FF000007FF0
3FE000007FF0
3FC000003FF0
3FC000003FF0
7F8000001FF0
7F8000001FF0
7F8000001FF0
7F8000000FF0
FF0000000FF0
FF0000000FF0
FF0000000FF0
FF0000000FF0
FF0000000FF0
FF0000000FF0
FF0000000FF0
FF0000000FF0
FF0000000FF0
FF0000000FF0
7F0000000FF0
7F8000000FF0
7F8000001FF0
7F8000001FF0
7FC000001FF0
3FC000003FF0
3FE000003FF0
3FE000007FF0
1FF00000FFF0
1FF80001F7F0
0FFC0003E7F0
0FFF0007E7F0
07FFC03FC7F0
03FFFFFF87F0
01FFFFFF07F0
00FFFFFE07F0
007FFFFC07F0
001FFFF807F0
0007FFE007F0
00003C0007F0
000000000FC0
000000001F80
000000001F00
000000003F00
000000003E00
000000003E00
000000003F00
000000003F00
000000003FC1
000000001FFF
000000000FFF
0000000007FF
0000000003FF
ENDCHAR
STARTCHAR 0106
ENCODING 262
SWIDTH 708 0
DWIDTH 63 0
BBX 54 85 5 -1
BITMAP
00000000FF0000
00000000FF0000
00000001FE0000
00000001FC0000
00000003FC0000
00000007F80000
00000007F00000
0000000FF00000
0000000FE00000
0000001FC00000
0000001FC00000
0000003F800000
0000003F000000
0000007F000000
0000007E000000
00000000000000
00000000000000
00000000000000
00000000000000
00000000000000
00000038000000
00000FFFF00000
00007FFFFE0000
0001FFFFFF8000
0007FFFFFFE000
000FFFFFFFF000
003FFFFFFFF800
007FFFE3FFFC00
00FFF8001FFE00
01FFE00007FF00
03FF800001FF80
03FF000000FFC0
07FE0000007FC0
0FFC0000003FE0
0FF80000001FF0
1FF00000000FF0
1FF00000000FF8
1FE000000007F8
3FE000000007F8
3FC000000003FC
3FC000000003FC
7F8000000001FC
7F800000000000
7F800000000000
7F800000000000
FF800000000000
FF000000000000
FF000000000000
FF000000000000
FF000000000000
FF000000000000
FF000000000000
FF000000000000
FF000000000000
FF000000000000
FF000000000000
FF000000000000
FF000000000000
FF000000000000
FF800000000000
7F800000000000
7F800000000000
7F800000000000
7F800000000000
7FC000000003FC
3FC000000003FC
3FE000000007F8
1FE000000007F8
1FF00000000FF0
1FF00000000FF0
0FF80000001FE0
0FFC0000003FE0
07FE0000007FC0
03FF000000FFC0
03FF800001FF80
01FFE00007FF00
00FFF8001FFE00
007FFFE7FFFC00
003FFFFFFFF800
001FFFFFFFF000
0007FFFFFFE000
0001FFFFFF8000
00007FFFFE0000
00001FFFF00000
0000003C000000
ENDCHAR
STARTCHAR 0107
ENCODING 263
SWIDTH 573 0
DWIDTH 51 0
BBX 42 70 5 -1
BITMAP
0000001FE000
0000001FE000
0000003FC000
0000003F8000
0000007F8000
000000FF0000
000000FE0000
000001FE0000
000001FC0000
000003F80000
000003F80000
000007F00000
000007E00000
00000FE00000
00000FC00000
00001F800000
000000000000
000000000000
000000000000
000000000000
000000000000
0000FFE00000
0007FFFC0000
001FFFFF0000
007FFFFFC000
00FFFFFFE000
01FFFFFFF000
03FFF9FFF800
07FF001FFC00
0FFC0007FE00
1FF80003FE00
1FF00001FF00
3FE00000FF00
3FC000007F80
7FC000007F80
7F8000003F80
7F8000003FC0
FF0000003FC0
FF0000001FC0
FF0000000000
FF0000000000
FF0000000000
FE0000000000
FE0000000000
FE0000000000
FE0000000000
FE0000000000
FE0000000000
FE0000000000
FF0000000000
FF0000000000
FF0000001FC0
FF0000001FC0
7F8000003FC0
7F8000003FC0
7F8000003F80
3FC000007F80
3FE000007F80
1FE00000FF00
1FF00001FF00
0FF80003FE00
0FFE0007FC00
07FF803FFC00
03FFFFFFF800
01FFFFFFF000
00FFFFFFE000
003FFFFF8000
000FFFFF0000
0003FFF80000
00000E800000
ENDCHAR
STARTCHAR 010A
ENCODING 266
SWIDTH 708 0
DWIDTH 63 0
BBX 54 82 5 -1
BITMAP
00000078000000
000001FC000000
000001FE000000
000003FF000000
000003FF000000
000003FF000000
000003FF000000
000003FE000000
000001FE000000
000000F8000000
00000000000000
00000000000000
00000000000000
00000000000000
00000000000000
00000000000000
00000000000000
00000038000000
00000FFFF00000
00007FFFFE0000
0001FFFFFF8000
0007FFFFFFE000
000FFFFFFFF000
003FFFFFFFF800
007FFFE3FFFC00
00FFF8001FFE00
01FFE00007FF00
03FF800001FF80
03FF000000FFC0
07FE0000007FC0
0FFC0000003FE0
0FF80000001FF0
1FF00000000FF0
1FF00000000FF8
1FE000000007F8
3FE000000007F8
3FC000000003FC
3FC000000003FC
7F8000000001FC
7F800000000000
7F800000000000
7F800000000000
FF800000000000
FF000000000000
FF000000000000
FF000000000000
FF000000000000
FF000000000000
FF000000000000
FF000000000000
FF000000000000
FF000000000000
FF000000000000
FF000000000000
FF000000000000
FF000000000000
FF800000000000
7F800000000000
7F800000000000
7F800000000000
7F800000000000
7FC000000003FC
3FC000000003FC
3FE000000007F8
1FE000000007F8
1FF00000000FF0
1FF00000000FF0
0FF80000001FE0
0FFC0000003FE0
07FE0000007FC0
03FF000000FFC0
03FF800001FF80
01FFE00007FF00
00FFF8001FFE00
007FFFE7FFFC00
003FFFFFFFF800
001FFFFFFFF000
0007FFFFFFE000
0001FFFFFF8000
00007FFFFE0000
00001FFFF00000
0000003C000000
ENDCHAR
STARTCHAR 010B
ENCODING 267
SWIDTH 573 0
DWIDTH 51 0
BBX 42 67 5 -1
BITMAP
000004000000
00001F800000
00003FC00000
00007FC00000
00007FE00000
00007FE00000
00007FE00000
00007FC00000
00003FC00000
00001F800000
000000000000
000000000000
000000000000
000000000000
000000000000
000000000000
000000000000
000000000000
0000FFE00000
0007FFFC0000
001FFFFF0000
007FFFFFC000
00FFFFFFE000
01FFFFFFF000
03FFF9FFF800
07FF001FFC00
0FFC0007FE00
1FF80003FE00
1FF00001FF00
3FE00000FF00
3FC000007F80
7FC000007F80
7F8000003F80
7F8000003FC0
FF0000003FC0
FF0000001FC0
FF0000000000
FF0000000000
FF0000000000
FE0000000000
FE0000000000
FE0000000000
FE0000000000
FE0000000000
FE0000000000
FE0000000000
FF0000000000
FF0000000000
FF0000001FC0
FF0000001FC0
7F8000003FC0
7F8000003FC0
7F8000003F80
3FC000007F80
3FE000007F80
1FE00000FF00
1FF00001FF00
0FF80003FE00
0FFE0007FC00
07FF803FFC00
03FFFFFFF800
01FFFFFFF000
00FFFFFFE000
003FFFFF8000
000FFFFF0000
0003FFF80000
00000E800000
ENDCHAR
STARTCHAR 010C
ENCODING 268
SWIDTH 708 0
DWIDTH 63 0
BBX 54 82 5 -1
BITMAP
000FF0003F8000
0007F8007F8000
0003FC00FF0000
0001FE01FE0000
0000FF03FC0000
00007F87F80000
00003F8FF00000
00001FDFE00000
00000FFFC00000
000007FF800000
000007FF000000
000003FE000000
000001FE000000
00000000000000
00000000000000
00000000000000
00000000000000
00000038000000
00000FFFF00000
00007FFFFE0000
0001FFFFFF8000
0007FFFFFFE000
000FFFFFFFF000
003FFFFFFFF800
007FFFE3FFFC00
00FFF8001FFE00
01FFE00007FF00
03FF800001FF80
03FF000000FFC0
07FE0000007FC0
0FFC0000003FE0
0FF80000001FF0
1FF00000000FF0
1FF00000000FF8
1FE000000007F8
3FE000000007F8
3FC000000003FC
3FC000000003FC
7F8000000001FC
7F800000000000
7F800000000000
7F800000000000
FF800000000000
FF000000000000
FF000000000000
FF000000000000
FF000000000000
FF000000000000
FF000000000000
FF000000000000
FF000000000000
FF000000000000
FF000000000000
FF000000000000
FF000000000000
FF000000000000
FF800000000000
7F800000000000
7F800000000000
7F800000000000
7F800000000000
7FC000000003FC
3FC000000003FC
3FE000000007F8
1FE000000007F8
1FF00000000FF0
1FF00000000FF0
0FF80000001FE0
0FFC0000003FE0
07FE0000007FC0
03FF000000FFC0
03FF800001FF80
01FFE00007FF00
00FFF8001FFE00
007FFFE7FFFC00
003FFFFFFFF800
001FFFFFFFF000
0007FFFFFFE000
0001FFFFFF8000
00007FFFFE0000
00001FFFF00000
0000003C000000
ENDCHAR
STARTCHAR 010D
ENCODING 269
SWIDTH 573 0
DWIDTH 51 0
BBX 42 67 5 -1
BITMAP
01FC0007F800
00FE000FF000
007F001FE000
003F803FC000
003FC07F8000
001FE0FF0000
000FF1FE0000
0007FBFC0000
0003FFF80000
0001FFF00000
0000FFE00000
00007FE00000
00003FC00000
000000000000
000000000000
000000000000
000000000000
000000000000
0000FFE00000
0007FFFC0000
001FFFFF0000
007FFFFFC000
00FFFFFFE000
01FFFFFFF000
03FFF9FFF800
07FF001FFC00
0FFC0007FE00
1FF80003FE00
1FF00001FF00
3FE00000FF00
3FC000007F80
7FC000007F80
7F8000003F80
7F8000003FC0
FF0000003FC0
FF0000001FC0
FF0000000000
FF0000000000
FF0000000000
FE0000000000
FE0000000000
FE0000000000
FE0000000000
FE0000000000
FE0000000000
FE0000000000
FF0000000000
FF0000000000
FF0000001FC0
FF0000001FC0
7F8000003FC0
7F8000003FC0
7F8000003F80
3FC000007F80
3FE000007F80
1FE00000FF00
1FF00001FF00
0FF80003FE00
0FFE0007FC00
07FF803FFC00
03FFFFFFF800
01FFFFFFF000
00FFFFFFE000
003FFFFF8000
000FFFFF0000
0003FFF80000
00000E800000
ENDCHAR
STARTCHAR 010E
ENCODING 270
SWIDTH 686 0
DWIDTH 61 0
BBX 50 81 7 0
BITMAP
00FF0007F80000
007F800FF00000
003FC01FE00000
001FC01FC00000
000FE03F800000
0007F07F000000
0003F8FF000000
0003FDFE000000
0001FFFC000000
0000FFF8000000
00007FF0000000
00003FE0000000
00001FC0000000
00000000000000
00000000000000
00000000000000
00000000000000
00000000000000
00000000000000
FFFFFFF8000000
FFFFFFFF800000
FFFFFFFFE00000
FFFFFFFFF80000
FFFFFFFFFC0000
FFFFFFFFFF0000
FFFFFFFFFF8000
FE00000FFFC000
FE000003FFE000
FE000000FFF000
FE0000003FF000
FE0000001FF800
FE0000000FFC00
FE00000007FC00
FE00000003FE00
FE00000003FE00
FE00000001FF00
FE00000001FF00
FE00000000FF00
FE00000000FF80
FE000000007F80
FE000000007F80
FE000000007F80
FE000000007FC0
FE000000003FC0
FE000000003FC0
FE000000003FC0
FE000000003FC0
FE000000003FC0
FE000000003FC0
FE000000003FC0
FE000000003FC0
FE000000003FC0
FE000000003FC0
FE000000003FC0
FE000000003FC0
FE000000003FC0
FE000000007FC0
FE000000007FC0
FE000000007F80
FE000000007F80
FE00000000FF80
FE00000000FF80
FE00000000FF00
FE00000001FF00
FE00000001FF00
FE00000003FE00
FE00000007FE00
FE00000007FC00
FE0000000FFC00
FE0000001FF800
FE0000007FF000
FE000000FFF000
FE000007FFE000
FE00003FFFC000
FFFFFFFFFF8000
FFFFFFFFFE0000
FFFFFFFFFC0000
FFFFFFFFF80000
FFFFFFFFE00000
FFFFFFFF000000
FFFFFFF0000000
ENDCHAR
STARTCHAR 010F
ENCODING 271
SWIDTH 731 0
DWIDTH 65 0
BBX 60 71 4 -1
BITMAP
0000000000000400
0000000000003FC0
0000000000007FE0
0000000007F07FE0
0000000007F0FFF0
0000000007F0FFF0
0000000007F0FFF0
0000000007F07FF0
0000000007F07FF0
0000000007F03FF0
0000000007F001F0
0000000007F000F0
0000000007F000F0
0000000007F000F0
0000000007F000F0
0000000007F001E0
0000000007F001E0
0000000007F003E0
0000000007F007C0
0000000007F00F80
0000000007F03F00
0000000007F03E00
0001FF8007F03800
000FFFF007F02000
003FFFFC07F00000
007FFFFE07F00000
00FFFFFF07F00000
01FFFFFF87F00000
03FFFFFFC7F00000
07FF800FE7F00000
0FFE0003E7F00000
0FFC0001F7F00000
1FF80000FFF00000
1FF000007FF00000
3FE000007FF00000
3FE000003FF00000
3FC000001FF00000
7FC000001FF00000
7F8000001FF00000
7F8000000FF00000
7F8000000FF00000
7F8000000FF00000
7F0000000FF00000
FF0000000FF00000
FF0000000FF00000
FF00000007F00000
FF00000007F00000
FF0000000FF00000
FF0000000FF00000
FF0000000FF00000
7F0000000FF00000
7F8000000FF00000
7F8000000FF00000
7F8000000FF00000
7F8000001FF00000
3FC000001FF00000
3FC000003FF00000
3FE000003FF00000
1FE000007FF00000
1FF00000FFF00000
1FF80000F7F00000
0FFC0003E7F00000
07FF0007E7F00000
07FFC03FC7F00000
03FFFFFF87F00000
01FFFFFF07F00000
00FFFFFE07F00000
007FFFFC07F00000
001FFFF807F00000
0007FFE007F00000
00007E0000000000
ENDCHAR
STARTCHAR 0110
ENCODING 272
SWIDTH 708 0
DWIDTH 63 0
BBX 56 62 4 0
BITMAP
07FFFFFF800000
07FFFFFFF80000
07FFFFFFFF0000
07FFFFFFFFC000
07FFFFFFFFE000
07FFFFFFFFF800
07FFFFFFFFFC00
07F80000FFFE00
07F800001FFF00
07F8000003FF80
07F8000001FFC0
07F8000000FFC0
07F80000007FE0
07F80000003FF0
07F80000001FF0
07F80000000FF8
07F800000007F8
07F800000007FC
07F800000003FC
07F800000003FC
07F800000003FC
07F800000001FE
07F800000001FE
07F800000001FE
07F800000001FE
07F800000001FE
07F800000001FE
07F800000000FF
FFFFFF800000FF
FFFFFF800000FF
FFFFFF800000FF
FFFFFF800000FF
FFFFFF800000FF
07F800000000FF
07F800000001FF
07F800000001FE
07F800000001FE
07F800000001FE
07F800000001FE
07F800000001FE
07F800000001FE
07F800000003FC
07F800000003FC
07F800000007FC
07F800000007F8
07F80000000FF8
07F80000000FF8
07F80000001FF0
07F80000003FF0
07F80000007FE0
07F8000000FFC0
07F8000001FFC0
07F8000007FF80
07F800001FFF00
07F80003FFFE00
07FFFFFFFFFC00
07FFFFFFFFF000
07FFFFFFFFE000
07FFFFFFFF8000
07FFFFFFFE0000
07FFFFFFF80000
07FFFFFF000000
ENDCHAR
STARTCHAR 0111
ENCODING 273
SWIDTH 618 0
DWIDTH 55 0
BBX 51 68 4 -1
BITMAP
0000000007F000
0000000007F000
0000000007F000
0000000007F000
0000000007F000
0000000007F000
0000000007F000
0000000007F000
000001FFFFFFE0
000001FFFFFFE0
000001FFFFFFE0
000001FFFFFFE0
000001FFFFFFE0
0000000007F000
0000000007F000
0000000007F000
0000000007F000
0000000007F000
0000000007F000
0001FF8007F000
000FFFF007F000
003FFFFC07F000
007FFFFE07F000
00FFFFFF07F000
01FFFFFF87F000
03FFFFFFC7F000
07FF800FE7F000
0FFE0003E7F000
0FFC0001F7F000
1FF80000FFF000
1FF000007FF000
3FE000007FF000
3FE000003FF000
3FC000001FF000
7FC000001FF000
7F8000001FF000
7F8000000FF000
7F8000000FF000
7F8000000FF000
7F0000000FF000
FF0000000FF000
FF0000000FF000
FF00000007F000
FF00000007F000
FF0000000FF000
FF0000000FF000
FF0000000FF000
7F0000000FF000
7F8000000FF000
7F8000000FF000
7F8000000FF000
7F8000001FF000
3FC000001FF000
3FC000003FF000
3FE000003FF000
1FE000007FF000
1FF00000FFF000
1FF80000F7F000
0FFC0003E7F000
07FF0007E7F000
07FFC03FC7F000
03FFFFFF87F000
01FFFFFF07F000
00FFFFFE07F000
007FFFFC07F000
001FFFF807F000
0007FFE007F000
00007E00000000
ENDCHAR
STARTCHAR 0112
ENCODING 274
SWIDTH 562 0
DWIDTH 50 0
BBX 38 75 7 0
BITMAP
07FFFFFF00
07FFFFFF00
07FFFFFF00
07FFFFFF00
0000000000
0000000000
0000000000
0000000000
0000000000
0000000000
0000000000
0000000000
0000000000
FFFFFFFFFC
FFFFFFFFFC
FFFFFFFFFC
FFFFFFFFFC
FFFFFFFFFC
FFFFFFFFFC
FFFFFFFFFC
FE00000000
FE00000000
FE00000000
FE00000000
FE00000000
FE00000000
FE00000000
FE00000000
FE00000000
FE00000000
FE00000000
FE00000000
FE00000000
FE00000000
FE00000000
FE00000000
FE00000000
FE00000000
FE00000000
FE00000000
FFFFFFFFC0
FFFFFFFFC0
FFFFFFFFC0
FFFFFFFFC0
FFFFFFFFC0
FFFFFFFFC0
FE00000000
FE00000000
FE00000000
FE00000000
FE00000000
FE00000000
FE00000000
FE00000000
FE00000000
FE00000000
FE00000000
FE00000000
FE00000000
FE00000000
FE00000000
FE00000000
FE00000000
FE00000000
FE00000000
FE00000000
FE00000000
FE00000000
FFFFFFFFFC
FFFFFFFFFC
FFFFFFFFFC
FFFFFFFFFC
FFFFFFFFFC
FFFFFFFFFC
FFFFFFFFFC
ENDCHAR
STARTCHAR 0113
ENCODING 275
SWIDTH 573 0
DWIDTH 51 0
BBX 42 61 5 -1
BITMAP
00FFFFFFE000
00FFFFFFE000
00FFFFFFE000
00FFFFFFE000
000000000000
000000000000
000000000000
000000000000
000000000000
000000000000
000000000000
000000000000
0000FFE00000
0007FFFC0000
001FFFFF0000
007FFFFFC000
00FFFFFFE000
01FFFFFFF000
03FF807FF800
07FE000FFC00
0FF80003FC00
1FF00001FE00
1FE00000FE00
3FC00000FF00
3FC000007F00
7F8000007F80
7F8000003F80
7F0000003F80
FF0000003F80
FF0000003FC0
FF0000003FC0
FE0000001FC0
FE0000001FC0
FFFFFFFFFFC0
FFFFFFFFFFC0
FFFFFFFFFFC0
FFFFFFFFFFC0
FFFFFFFFFFC0
FE0000000000
FE0000000000
FE0000000000
FE0000000000
FF0000000000
FF0000000000
7F0000000000
7F0000000000
7F8000003F80
3FC000007F80
3FC00000FF80
1FE00000FF00
1FF00001FF00
0FF80003FE00
0FFE000FFC00
07FF803FF800
03FFFFFFF800
01FFFFFFF000
00FFFFFFC000
003FFFFF8000
001FFFFE0000
0003FFF80000
00003E000000
ENDCHAR
STARTCHAR 0116
ENCODING 278
SWIDTH 562 0
DWIDTH 50 0
BBX 38 81 7 0
BITMAP
0000780000
0001FC0000
0003FE0000
0003FE0000
0003FF0000
0003FF0000
0003FE0000
0003FE0000
0001FC0000
0000F80000
0000000000
0000000000
0000000000
0000000000
0000000000
0000000000
0000000000
0000000000
0000000000
FFFFFFFFFC
FFFFFFFFFC
FFFFFFFFFC
FFFFFFFFFC
FFFFFFFFFC
FFFFFFFFFC
FFFFFFFFFC
FE00000000
FE00000000
FE00000000
FE00000000
FE00000000
FE00000000
FE00000000
FE00000000
FE00000000
FE00000000
FE00000000
FE00000000
FE00000000
FE00000000
FE00000000
FE00000000
FE00000000
FE00000000
FE00000000
FE00000000
FFFFFFFFC0
FFFFFFFFC0
FFFFFFFFC0
FFFFFFFFC0
FFFFFFFFC0
FFFFFFFFC0
FE00000000
FE00000000
FE00000000
FE00000000
FE00000000
FE00000000
FE00000000
FE00000000
FE00000000
FE00000000
FE00000000
FE00000000
FE00000000
FE00000000
FE00000000
FE00000000
FE00000000
FE00000000
FE00000000
FE00000000
FE00000000
FE00000000
FFFFFFFFFC
FFFFFFFFFC
FFFFFFFFFC
FFFFFFFFFC
FFFFFFFFFC
FFFFFFFFFC
FFFFFFFFFC
ENDCHAR
STARTCHAR 0117
ENCODING 279
SWIDTH 573 0
DWIDTH 51 0
BBX 42 66 5 0
BITMAP
00003F000000
00007F800000
00007FC00000
0000FFC00000
0000FFC00000
00007FC00000
00007FC00000
00007F800000
00003F000000
000000000000
000000000000
000000000000
000000000000
000000000000
000000000000
000000000000
000000000000
0000FFE00000
0007FFFC0000
001FFFFF0000
007FFFFFC000
00FFFFFFE000
01FFFFFFF000
03FF807FF800
07FE000FFC00
0FF80003FC00
1FF00001FE00
1FE00000FE00
3FC00000FF00
3FC000007F00
7F8000007F80
7F8000003F80
7F0000003F80
FF0000003F80
FF0000003FC0
FF0000003FC0
FE0000001FC0
FE0000001FC0
FFFFFFFFFFC0
FFFFFFFFFFC0
FFFFFFFFFFC0
FFFFFFFFFFC0
FFFFFFFFFFC0
FE0000000000
FE0000000000
FE0000000000
FE0000000000
FF0000000000
FF0000000000
7F0000000000
7F0000000000
7F8000003F80
3FC000007F80
3FC00000FF80
1FE00000FF00
1FF00001FF00
0FF80003FE00
0FFE000FFC00
07FF803FF800
03FFFFFFF800
01FFFFFFF000
00FFFFFFC000
003FFFFF8000
001FFFFE0000
0003FFF80000
00003E000000
ENDCHAR
STARTCHAR 0118
ENCODING 280
SWIDTH 562 0
DWIDTH 50 0
BBX 41 76 7 -14
BITMAP
FFFFFFFFFC00
FFFFFFFFFC00
FFFFFFFFFC00
FFFFFFFFFC00
FFFFFFFFFC00
FFFFFFFFFC00
FFFFFFFFFC00
FE0000000000
FE0000000000
FE0000000000
FE0000000000
FE0000000000
FE0000000000
FE0000000000
FE0000000000
FE0000000000
FE0000000000
FE0000000000
FE0000000000
FE0000000000
FE0000000000
FE0000000000
FE0000000000
FE0000000000
FE0000000000
FE0000000000
FE0000000000
FFFFFFFFC000
FFFFFFFFC000
FFFFFFFFC000
FFFFFFFFC000
FFFFFFFFC000
FFFFFFFFC000
FE0000000000
FE0000000000
FE0000000000
FE0000000000
FE0000000000
FE0000000000
FE0000000000
FE0000000000
FE0000000000
FE0000000000
FE0000000000
FE0000000000
FE0000000000
FE0000000000
FE0000000000
FE0000000000
FE0000000000
FE0000000000
FE0000000000
FE0000000000
FE0000000000
FE0000000000
FFFFFFFFFC00
FFFFFFFFFC00
FFFFFFFFFC00
FFFFFFFFFC00
FFFFFFFFFC00
FFFFFFFFFC00
FFFFFFFFFC00
00000003F800
00000007F000
00000007E000
0000000FC000
0000000F8000
0000000F8000
0000000F8000
0000000F8000
0000000FC000
0000000FF000
00000007FF80
00000007FF80
00000003FF80
00000000FF80
ENDCHAR
STARTCHAR 0119
ENCODING 281
SWIDTH 573 0
DWIDTH 51 0
BBX 42 63 5 -15
BITMAP
0000FFE00000
0007FFFC0000
001FFFFF0000
007FFFFFC000
00FFFFFFE000
01FFFFFFF000
03FF807FF800
07FE000FFC00
0FF80003FC00
1FF00001FE00
1FE00000FE00
3FC00000FF00
3FC000007F00
7F8000007F80
7F8000003F80
7F0000003F80
FF0000003F80
FF0000003FC0
FF0000003FC0
FE0000001FC0
FE0000001FC0
FFFFFFFFFFC0
FFFFFFFFFFC0
FFFFFFFFFFC0
FFFFFFFFFFC0
FFFFFFFFFFC0
FE0000000000
FE0000000000
FE0000000000
FE0000000000
FF0000000000
FF0000000000
7F0000000000
7F0000000000
7F8000003F80
3FC000007F80
3FC00000FF80
1FE00000FF00
1FF00001FF00
0FF80003FE00
0FFE000FFC00
07FF803FF800
03FFFFFFF800
01FFFFFFF000
00FFFFFFC000
003FFFFF8000
000FFFFE0000
0003FFF80000
00003F800000
00007E000000
0000FC000000
0001F8000000
0001F0000000
0001F0000000
0003F0000000
0003F0000000
0001F8000000
0001FC000000
0001FFF00000
0000FFF00000
00007FF00000
00003FF00000
000007E00000
ENDCHAR
STARTCHAR 011A
ENCODING 282
SWIDTH 562 0
DWIDTH 50 0
BBX 38 81 7 0
BITMAP
0FF0003F80
07F8007F00
03FC00FF00
01FE01FE00
00FF03FC00
007F07F800
003F8FF000
001FDFE000
001FFFC000
000FFF8000
0007FF0000
0003FE0000
0001FC0000
0000000000
0000000000
0000000000
0000000000
0000000000
0000000000
FFFFFFFFFC
FFFFFFFFFC
FFFFFFFFFC
FFFFFFFFFC
FFFFFFFFFC
FFFFFFFFFC
FFFFFFFFFC
FE00000000
FE00000000
FE00000000
FE00000000
FE00000000
FE00000000
FE00000000
FE00000000
FE00000000
FE00000000
FE00000000
FE00000000
FE00000000
FE00000000
FE00000000
FE00000000
FE00000000
FE00000000
FE00000000
FE00000000
FFFFFFFFC0
FFFFFFFFC0
FFFFFFFFC0
FFFFFFFFC0
FFFFFFFFC0
FFFFFFFFC0
FE00000000
FE00000000
FE00000000
FE00000000
FE00000000
FE00000000
FE00000000
FE00000000
FE00000000
FE00000000
FE00000000
FE00000000
FE00000000
FE00000000
FE00000000
FE00000000
FE00000000
FE00000000
FE00000000
FE00000000
FE00000000
FE00000000
FFFFFFFFFC
FFFFFFFFFC
FFFFFFFFFC
FFFFFFFFFC
FFFFFFFFFC
FFFFFFFFFC
FFFFFFFFFC
ENDCHAR
STARTCHAR 011B
ENCODING 283
SWIDTH 573 0
DWIDTH 51 0
BBX 42 67 5 -1
BITMAP
01FC0007F000
00FE000FE000
00FF001FE000
007F803FC000
003FC07F8000
001FE0FF0000
000FF1FE0000
0007FBFC0000
0003FFF80000
0001FFF00000
0000FFE00000
00007FC00000
00007FC00000
000000000000
000000000000
000000000000
000000000000
000000000000
0000FFE00000
0007FFFC0000
001FFFFF0000
007FFFFFC000
00FFFFFFE000
01FFFFFFF000
03FF807FF800
07FE000FFC00
0FF80003FC00
1FF00001FE00
1FE00000FE00
3FC00000FF00
3FC000007F00
7F8000007F80
7F8000003F80
7F0000003F80
FF0000003F80
FF0000003FC0
FF0000003FC0
FE0000001FC0
FE0000001FC0
FFFFFFFFFFC0
FFFFFFFFFFC0
FFFFFFFFFFC0
FFFFFFFFFFC0
FFFFFFFFFFC0
FE0000000000
FE0000000000
FE0000000000
FE0000000000
FF0000000000
FF0000000000
7F0000000000
7F0000000000
7F8000003F80
3FC000007F80
3FC00000FF80
1FE00000FF00
1FF00001FF00
0FF80003FE00
0FFE000FFC00
07FF803FF800
03FFFFFFF800
01FFFFFFF000
00FFFFFFC000
003FFFFF8000
001FFFFE0000
0003FFF80000
00003E000000
ENDCHAR
STARTCHAR 011E
ENCODING 286
SWIDTH 708 0
DWIDTH 63 0
BBX 53 80 5 -1
BITMAP
000FE0000FC000
0007F0001FC000
0003F8003F8000
0003FC007F0000
0001FF03FE0000
0000FFFFFC0000
00007FFFF80000
00001FFFF00000
000007FFC00000
00000038000000
00000000000000
00000000000000
00000000000000
00000000000000
00000000000000
00000034000000
00001FFFF00000
0000FFFFFC0000
0003FFFFFF8000
0007FFFFFFC000
001FFFFFFFE000
003FFFFFFFF800
007FFFEFFFFC00
00FFF8003FFE00
01FFC00007FF00
03FF800003FF00
03FE000000FF80
07FC0000007FC0
0FF80000003FC0
0FF80000003FE0
1FF00000001FE0
1FE00000000FF0
3FE00000000FF0
3FC00000000FF8
3FC000000007F8
7F800000000000
7F800000000000
7F800000000000
7F800000000000
FF000000000000
FF000000000000
FF000000000000
FF000000000000
FF000000000000
FF000000000000
FF000000000000
FF000000000000
FF000007FFFFF8
FF000007FFFFF8
FF000007FFFFF8
FF000007FFFFF8
FF000007FFFFF8
FF000007FFFFF8
FF0000000003F8
FF0000000003F8
FF0000000003F8
7F0000000003F8
7F8000000003F8
7F8000000003F8
7F8000000007F8
3FC000000007F8
3FC000000007F8
3FC00000000FF8
1FE00000000FF8
1FF00000001FF8
0FF00000001FF8
0FF80000003FF8
07FC0000007FF8
07FE000000FFF8
03FF000001FDF8
01FFC00003F9F8
00FFE0000FF9F8
007FFC007FF1F8
003FFFFFFFE1F8
001FFFFFFFC1F8
000FFFFFFF81F8
0003FFFFFE01F8
0000FFFFF801F8
00003FFFE001F8
00000078000000
ENDCHAR
STARTCHAR 011F
ENCODING 287
SWIDTH 618 0
DWIDTH 55 0
BBX 44 82 5 -19
BITMAP
01FC0003F800
00FE0007F000
007F000FE000
003FC03FC000
001FFFFF8000
000FFFFF0000
0007FFFE0000
0001FFF80000
00003FC00000
000000000000
000000000000
000000000000
000000000000
000000000000
000000000000
0003FF800000
001FFFE00FF0
007FFFF80FF0
00FFFFFC0FF0
01FFFFFE0FF0
03FFFFFF0FF0
07FFF9FF8FF0
0FFF001FCFF0
1FFC0007CFF0
1FF80003EFF0
3FF00001FFF0
3FE00000FFF0
7FC000007FF0
7FC000007FF0
7F8000003FF0
FF8000003FF0
FF8000001FF0
FF0000001FF0
FF0000001FF0
FF0000001FF0
FF0000000FF0
FF0000000FF0
FF0000000FF0
FF0000000FF0
FF0000000FF0
FF0000000FF0
FF0000001FF0
FF0000001FF0
FF0000001FF0
FF0000001FF0
FF8000001FF0
FF8000003FF0
7F8000003FF0
7FC000007FF0
7FC000007FF0
3FE00000FFF0
3FF00001FFF0
1FF80003EFF0
1FFC0007EFF0
0FFF001FCFF0
07FFF0FF8FF0
03FFFFFF0FF0
01FFFFFE0FF0
00FFFFFC0FF0
007FFFF80FF0
001FFFE00FF0
0003FF000FF0
000000000FF0
000000000FE0
000000000FE0
000000001FE0
000000001FE0
000000001FE0
000000003FC0
000000003FC0
000000007FC0
00000000FF80
00000001FF80
00000007FF00
0001803FFE00
0001FFFFFC00
0001FFFFF800
0001FFFFF000
0001FFFFE000
0001FFFF8000
0001FFFE0000
00000FE00000
ENDCHAR
STARTCHAR 0120
ENCODING 288
SWIDTH 708 0
DWIDTH 63 0
BBX 53 82 5 -1
BITMAP
00000078000000
000000FE000000
000001FF000000
000001FF000000
000003FF000000
000003FF000000
000003FF000000
000001FF000000
000000FE000000
0000007C000000
00000000000000
00000000000000
00000000000000
00000000000000
00000000000000
00000000000000
00000000000000
00000034000000
00001FFFF00000
0000FFFFFC0000
0003FFFFFF8000
0007FFFFFFC000
001FFFFFFFE000
003FFFFFFFF800
007FFFEFFFFC00
00FFF8003FFE00
01FFC00007FF00
03FF800003FF00
03FE000000FF80
07FC0000007FC0
0FF80000003FC0
0FF80000003FE0
1FF00000001FE0
1FE00000000FF0
3FE00000000FF0
3FC00000000FF8
3FC000000007F8
7F800000000000
7F800000000000
7F800000000000
7F800000000000
FF000000000000
FF000000000000
FF000000000000
FF000000000000
FF000000000000
FF000000000000
FF000000000000
FF000000000000
FF000007FFFFF8
FF000007FFFFF8
FF000007FFFFF8
FF000007FFFFF8
FF000007FFFFF8
FF000007FFFFF8
FF0000000003F8
FF0000000003F8
FF0000000003F8
7F0000000003F8
7F8000000003F8
7F8000000003F8
7F8000000007F8
3FC000000007F8
3FC000000007F8
3FC00000000FF8
1FE00000000FF8
1FF00000001FF8
0FF00000001FF8
0FF80000003FF8
07FC0000007FF8
07FE000000FFF8
03FF000001FDF8
01FFC00003F9F8
00FFE0000FF9F8
007FFC007FF1F8
003FFFFFFFE1F8
001FFFFFFFC1F8
000FFFFFFF81F8
0003FFFFFE01F8
0000FFFFF801F8
00003FFFE001F8
00000078000000
ENDCHAR
STARTCHAR 0121
ENCODING 289
SWIDTH 618 0
DWIDTH 55 0
BBX 44 85 5 -19
BITMAP
000002000000
00001F800000
00003FC00000
00007FE00000
00007FE00000
00007FE00000
00007FE00000
00007FE00000
00003FC00000
00001F800000
000000000000
000000000000
000000000000
000000000000
000000000000
000000000000
000000000000
000000000000
0003FF800000
001FFFE00FF0
007FFFF80FF0
00FFFFFC0FF0
01FFFFFE0FF0
03FFFFFF0FF0
07FFF9FF8FF0
0FFF001FCFF0
1FFC0007CFF0
1FF80003EFF0
3FF00001FFF0
3FE00000FFF0
7FC000007FF0
7FC000007FF0
7F8000003FF0
FF8000003FF0
FF8000001FF0
FF0000001FF0
FF0000001FF0
FF0000001FF0
FF0000000FF0
FF0000000FF0
FF0000000FF0
FF0000000FF0
FF0000000FF0
FF0000000FF0
FF0000001FF0
FF0000001FF0
FF0000001FF0
FF0000001FF0
FF8000001FF0
FF8000003FF0
7F8000003FF0
7FC000007FF0
7FC000007FF0
3FE00000FFF0
3FF00001FFF0
1FF80003EFF0
1FFC0007EFF0
0FFF001FCFF0
07FFF0FF8FF0
03FFFFFF0FF0
01FFFFFE0FF0
00FFFFFC0FF0
007FFFF80FF0
001FFFE00FF0
0003FF000FF0
000000000FF0
000000000FE0
000000000FE0
000000001FE0
000000001FE0
000000001FE0
000000003FC0
000000003FC0
000000007FC0
00000000FF80
00000001FF80
00000007FF00
0001803FFE00
0001FFFFFC00
0001FFFFF800
0001FFFFF000
0001FFFFE000
0001FFFF8000
0001FFFE0000
00000FE00000
ENDCHAR
STARTCHAR 0126
ENCODING 294
SWIDTH 686 0
DWIDTH 61 0
BBX 57 62 2 0
BITMAP
07F800000007F000
07F800000007F000
07F800000007F000
07F800000007F000
07F800000007F000
07F800000007F000
07F800000007F000
07F800000007F000
07F800000007F000
07F800000007F000
FFFFFFFFFFFFFF80
FFFFFFFFFFFFFF80
FFFFFFFFFFFFFF80
FFFFFFFFFFFFFF80
FFFFFFFFFFFFFF80
FFFFFFFFFFFFFF80
07F800000007F000
07F800000007F000
07F800000007F000
07F800000007F000
07F800000007F000
07F800000007F000
07F800000007F000
07F800000007F000
07F800000007F000
07F800000007F000
07F800000007F000
07F800000007F000
07FFFFFFFFFFF000
07FFFFFFFFFFF000
07FFFFFFFFFFF000
07FFFFFFFFFFF000
07FFFFFFFFFFF000
07FFFFFFFFFFF000
07F800000007F000
07F800000007F000
07F800000007F000
07F800000007F000
07F800000007F000
07F800000007F000
07F800000007F000
07F800000007F000
07F800000007F000
07F800000007F000
07F800000007F000
07F800000007F000
07F800000007F000
07F800000007F000
07F800000007F000
07F800000007F000
07F800000007F000
07F800000007F000
07F800000007F000
07F800000007F000
07F800000007F000
07F800000007F000
07F800000007F000
07F800000007F000
07F800000007F000
07F800000007F000
07F800000007F000
07F800000007F000
ENDCHAR
STARTCHAR 0127
ENCODING 295
SWIDTH 596 0
DWIDTH 53 0
BBX 48 67 1 0
BITMAP
03FC00000000
03FC00000000
03FC00000000
03FC00000000
03FC00000000
03FC00000000
03FC00000000
03FC00000000
FFFFFFF00000
FFFFFFF00000
FFFFFFF00000
FFFFFFF00000
FFFFFFF00000
03FC00000000
03FC00000000
03FC00000000
03FC00000000
03FC00000000
03FC00000000
03FC001FF800
03FC00FFFF00
03FC03FFFFC0
03FC0FFFFFE0
03FC1FFFFFF0
03FC3FFFFFF8
03FC7FFFFFF8
03FCFE003FFC
03FCF8000FFC
03FDF00007FC
03FFE00003FE
03FFC00003FE
03FF800001FE
03FF000001FE
03FF000000FF
03FE000000FF
03FE000000FF
03FE000000FF
03FE000000FF
03FC000000FF
03FC000000FF
03FC000000FF
03FC000000FF
03FC000000FF
03FC000000FF
03FC000000FF
03FC000000FF
03FC000000FF
03FC000000FF
03FC000000FF
03FC000000FF
03FC000000FF
03FC000000FF
03FC000000FF
03FC000000FF
03FC000000FF
03FC000000FF
03FC000000FF
03FC000000FF
03FC000000FF
03FC000000FF
03FC000000FF
03FC000000FF
03FC000000FF
03FC000000FF
03FC000000FF
03FC000000FF
03FC000000FF
ENDCHAR
STARTCHAR 0128
ENCODING 296
SWIDTH 236 0
DWIDTH 21 0
BBX 25 80 -2 0
BITMAP
0FE00780
1FF80780
3FFC0F80
7FFF0F80
7FFFFF80
FC3FFF00
F81FFF00
F807FE00
F803FC00
00000000
00000000
00000000
00000000
00000000
00000000
00000000
00000000
00000000
007F8000
007F8000
007F8000
007F8000
007F8000
007F8000
007F8000
007F8000
007F8000
007F8000
007F8000
007F8000
007F8000
007F8000
007F8000
007F8000
007F8000
007F8000
007F8000
007F8000
007F8000
007F8000
007F8000
007F8000
007F8000
007F8000
007F8000
007F8000
007F8000
007F8000
007F8000
007F8000
007F8000
007F8000
007F8000
007F8000
007F8000
007F8000
007F8000
007F8000
007F8000
007F8000
007F8000
007F8000
007F8000
007F8000
007F8000
007F8000
007F8000
007F8000
007F8000
007F8000
007F8000
007F8000
007F8000
007F8000
007F8000
007F8000
007F8000
007F8000
007F8000
007F8000
ENDCHAR
STARTCHAR 0129
ENCODING 297
SWIDTH 247 0
DWIDTH 22 0
BBX 26 65 -2 0
BITMAP
07E007C0
1FF007C0
3FFC07C0
3FFE0FC0
7FFFDF80
7E7FFF80
7C1FFF00
F80FFF00
F803FE00
F800F800
00000000
00000000
00000000
00000000
00000000
00000000
00000000
00000000
007F8000
007F8000
007F8000
007F8000
007F8000
007F8000
007F8000
007F8000
007F8000
007F8000
007F8000
007F8000
007F8000
007F8000
007F8000
007F8000
007F8000
007F8000
007F8000
007F8000
007F8000
007F8000
007F8000
007F8000
007F8000
007F8000
007F8000
007F8000
007F8000
007F8000
007F8000
007F8000
007F8000
007F8000
007F8000
007F8000
007F8000
007F8000
007F8000
007F8000
007F8000
007F8000
007F8000
007F8000
007F8000
007F8000
007F8000
ENDCHAR
STARTCHAR 012A
ENCODING 298
SWIDTH 236 0
DWIDTH 21 0
BBX 26 75 -2 0
BITMAP
FFFFFFC0
FFFFFFC0
FFFFFFC0
FFFFFFC0
00000000
00000000
00000000
00000000
00000000
00000000
00000000
00000000
00000000
007F8000
007F8000
007F8000
007F8000
007F8000
007F8000
007F8000
007F8000
007F8000
007F8000
007F8000
007F8000
007F8000
007F8000
007F8000
007F8000
007F8000
007F8000
007F8000
007F8000
007F8000
007F8000
007F8000
007F8000
007F8000
007F8000
007F8000
007F8000
007F8000
007F8000
007F8000
007F8000
007F8000
007F8000
007F8000
007F8000
007F8000
007F8000
007F8000
007F8000
007F8000
007F8000
007F8000
007F8000
007F8000
007F8000
007F8000
007F8000
007F8000
007F8000
007F8000
007F8000
007F8000
007F8000
007F8000
007F8000
007F8000
007F8000
007F8000
007F8000
007F8000
007F8000
ENDCHAR
STARTCHAR 012B
ENCODING 299
SWIDTH 247 0
DWIDTH 22 0
BBX 26 60 -2 0
BITMAP
FFFFFFC0
FFFFFFC0
FFFFFFC0
FFFFFFC0
00000000
00000000
00000000
00000000
00000000
00000000
00000000
00000000
00000000
007F8000
007F8000
007F8000
007F8000
007F8000
007F8000
007F8000
007F8000
007F8000
007F8000
007F8000
007F8000
007F8000
007F8000
007F8000
007F8000
007F8000
007F8000
007F8000
007F8000
007F8000
007F8000
007F8000
007F8000
007F8000
007F8000
007F8000
007F8000
007F8000
007F8000
007F8000
007F8000
007F8000
007F8000
007F8000
007F8000
007F8000
007F8000
007F8000
007F8000
007F8000
007F8000
007F8000
007F8000
007F8000
007F8000
007F8000
ENDCHAR
STARTCHAR 012E
ENCODING 302
SWIDTH 236 0
DWIDTH 21 0
BBX 14 76 4 -14
BITMAP
1FE0
1FE0
1FE0
1FE0
1FE0
1FE0
1FE0
1FE0
1FE0
1FE0
1FE0
1FE0
1FE0
1FE0
1FE0
1FE0
1FE0
1FE0
1FE0
1FE0
1FE0
1FE0
1FE0
1FE0
1FE0
1FE0
1FE0
1FE0
1FE0
1FE0
1FE0
1FE0
1FE0
1FE0
1FE0
1FE0
1FE0
1FE0
1FE0
1FE0
1FE0
1FE0
1FE0
1FE0
1FE0
1FE0
1FE0
1FE0
1FE0
1FE0
1FE0
1FE0
1FE0
1FE0
1FE0
1FE0
1FE0
1FE0
1FE0
1FE0
1FE0
1FE0
1FC0
3F80
7E00
7E00
7C00
FC00
FC00
FC00
FE00
7F04
7FFC
3FFC
1FFC
07FC
ENDCHAR
STARTCHAR 012F
ENCODING 303
SWIDTH 247 0
DWIDTH 22 0
BBX 13 80 5 -14
BITMAP
0200
1F80
3FC0
7FE0
7FE0
7FE0
7FE0
7FE0
3FC0
1F80
0000
0000
0000
0000
0000
0000
0000
0000
0000
3FC0
3FC0
3FC0
3FC0
3FC0
3FC0
3FC0
3FC0
3FC0
3FC0
3FC0
3FC0
3FC0
3FC0
3FC0
3FC0
3FC0
3FC0
3FC0
3FC0
3FC0
3FC0
3FC0
3FC0
3FC0
3FC0
3FC0
3FC0
3FC0
3FC0
3FC0
3FC0
3FC0
3FC0
3FC0
3FC0
3FC0
3FC0
3FC0
3FC0
3FC0
3FC0
3FC0
3FC0
3FC0
3FC0
3FC0
3F80
7F00
7E00
FC00
F800
F800
F800
F800
FC00
FE00
FFF8
7FF8
3FF8
0FF8
ENDCHAR
STARTCHAR 0130
ENCODING 304
SWIDTH 236 0
DWIDTH 21 0
BBX 10 81 6 0
BITMAP
1E00
7F00
FF80
FFC0
FFC0
FFC0
FFC0
FF80
7F00
3E00
0000
0000
0000
0000
0000
0000
0000
0000
0000
7F80
7F80
7F80
7F80
7F80
7F80
7F80
7F80
7F80
7F80
7F80
7F80
7F80
7F80
7F80
7F80
7F80
7F80
7F80
7F80
7F80
7F80
7F80
7F80
7F80
7F80
7F80
7F80
7F80
7F80
7F80
7F80
7F80
7F80
7F80
7F80
7F80
7F80
7F80
7F80
7F80
7F80
7F80
7F80
7F80
7F80
7F80
7F80
7F80
7F80
7F80
7F80
7F80
7F80
7F80
7F80
7F80
7F80
7F80
7F80
7F80
7F80
ENDCHAR
STARTCHAR 0131
ENCODING 305
SWIDTH 247 0
DWIDTH 22 0
BBX 8 47 7 0
BITMAP
FF
FF
FF
FF
FF
FF
FF
FF
FF
FF
FF
FF
FF
FF
FF
FF
FF
FF
FF
FF
FF
FF
FF
FF
FF
FF
FF
FF
FF
FF
FF
FF
FF
FF
FF
FF
FF
FF
FF
FF
FF
FF
FF
FF
FF
FF
FF
ENDCHAR
STARTCHAR 0139
ENCODING 313
SWIDTH 528 0
DWIDTH 47 0
BBX 36 84 7 0
BITMAP
007F800000
00FF000000
00FF000000
01FE000000
01FC000000
03FC000000
03F8000000
07F0000000
0FE0000000
0FE0000000
1FC0000000
1F80000000
3F80000000
3F00000000
7E00000000
0000000000
0000000000
0000000000
0000000000
0000000000
0000000000
0000000000
FE00000000
FE00000000
FE00000000
FE00000000
FE00000000
FE00000000
FE00000000
FE00000000
FE00000000
FE00000000
FE00000000
FE00000000
FE00000000
FE00000000
FE00000000
FE00000000
FE00000000
FE00000000
FE00000000
FE00000000
FE00000000
FE00000000
FE00000000
FE00000000
FE00000000
FE00000000
FE00000000
FE00000000
FE00000000
FE00000000
FE00000000
FE00000000
FE00000000
FE00000000
FE00000000
FE00000000
FE00000000
FE00000000
FE00000000
FE00000000
FE00000000
FE00000000
FE00000000
FE00000000
FE00000000
FE00000000
FE00000000
FE00000000
FE00000000
FE00000000
FE00000000
FE00000000
FE00000000
FE00000000
FE00000000
FFFFFFFFF0
FFFFFFFFF0
FFFFFFFFF0
FFFFFFFFF0
FFFFFFFFF0
FFFFFFFFF0
FFFFFFFFF0
ENDCHAR
STARTCHAR 013A
ENCODING 314
SWIDTH 303 0
DWIDTH 27 0
BBX 18 89 7 0
BITMAP
003FC0
007F80
00FF00
00FF00
01FE00
01FC00
03FC00
03F800
07F000
07F000
0FE000
0FC000
1FC000
3F8000
3F0000
7F0000
000000
000000
000000
000000
000000
000000
FF0000
FF0000
FF0000
FF0000
FF0000
FF0000
FF0000
FF0000
FF0000
FF0000
FF0000
FF0000
FF0000
FF0000
FF0000
FF0000
FF0000
FF0000
FF0000
FF0000
FF0000
FF0000
FF0000
FF0000
FF0000
FF0000
FF0000
FF0000
FF0000
FF0000
FF0000
FF0000
FF0000
FF0000
FF0000
FF0000
FF0000
FF0000
FF0000
FF0000
FF0000
FF0000
FF0000
FF0000
FF0000
FF0000
FF0000
FF0000
FF0000
FF0000
FF0000
FF0000
FF0000
FF0000
FF0000
FF0000
FF0000
FF0000
FF0000
FF8000
FF8000
7FF080
7FFF80
3FFF80
3FFF80
0FFF80
07FF80
ENDCHAR
STARTCHAR 013D
ENCODING 317
SWIDTH 528 0
DWIDTH 47 0
BBX 47 81 -4 0
BITMAP
FF0007F80000
7F800FF00000
3F801FE00000
1FC01FC00000
0FE03F800000
0FF07F000000
07F8FF000000
03FDFE000000
01FFFC000000
00FFF8000000
007FF0000000
003FE0000000
001FC0000000
000000000000
000000000000
000000000000
000000000000
000000000000
000000000000
001FC0000000
001FC0000000
001FC0000000
001FC0000000
001FC0000000
001FC0000000
001FC0000000
001FC0000000
001FC0000000
001FC0000000
001FC0000000
001FC0000000
001FC0000000
001FC0000000
001FC0000000
001FC0000000
001FC0000000
001FC0000000
001FC0000000
001FC0000000
001FC0000000
001FC0000000
001FC0000000
001FC0000000
001FC0000000
001FC0000000
001FC0000000
001FC0000000
001FC0000000
001FC0000000
001FC0000000
001FC0000000
001FC0000000
001FC0000000
001FC0000000
001FC0000000
001FC0000000
001FC0000000
001FC0000000
001FC0000000
001FC0000000
001FC0000000
001FC0000000
001FC0000000
001FC0000000
001FC0000000
001FC0000000
001FC0000000
001FC0000000
001FC0000000
001FC0000000
001FC0000000
001FC0000000
001FC0000000
001FC0000000
001FFFFFFFFE
001FFFFFFFFE
001FFFFFFFFE
001FFFFFFFFE
001FFFFFFFFE
001FFFFFFFFE
001FFFFFFFFE
ENDCHAR
STARTCHAR 013E
ENCODING 318
SWIDTH 348 0
DWIDTH 31 0
BBX 23 70 7 0
BITMAP
0000E0
0007F8
000FFC
FF0FFE
FF0FFE
FF1FFE
FF0FFE
FF0FFE
FF0FFE
FF07FE
FF003E
FF001E
FF001E
FF001E
FF001E
FF001E
FF003C
FF003C
FF0078
FF01F0
FF03E0
FF03C0
FF0380
FF0000
FF0000
FF0000
FF0000
FF0000
FF0000
FF0000
FF0000
FF0000
FF0000
FF0000
FF0000
FF0000
FF0000
FF0000
FF0000
FF0000
FF0000
FF0000
FF0000
FF0000
FF0000
FF0000
FF0000
FF0000
FF0000
FF0000
FF0000
FF0000
FF0000
FF0000
FF0000
FF0000
FF0000
FF0000
FF0000
FF0000
FF0000
FF0000
FF8000
FF8000
7FF080
7FFF80
3FFF80
3FFF80
0FFF80
07FF80
ENDCHAR
STARTCHAR 0143
ENCODING 323
SWIDTH 708 0
DWIDTH 63 0
BBX 50 84 7 0
BITMAP
00000003FC0000
00000007F80000
00000007F80000
0000000FF00000
0000000FE00000
0000001FE00000
0000001FC00000
0000003F800000
0000003F800000
0000007F000000
000000FE000000
000000FE000000
000001FC000000
000001F8000000
000003F8000000
00000000000000
00000000000000
00000000000000
00000000000000
00000000000000
00000000000000
00000000000000
FF800000003FC0
FF800000003FC0
FFC00000003FC0
FFE00000003FC0
FFE00000003FC0
FFF00000003FC0
FFF80000003FC0
FFF80000003FC0
FFFC0000003FC0
FFFE0000003FC0
FFFE0000003FC0
FFFF0000003FC0
FFFF8000003FC0
FEFF8000003FC0
FE7FC000003FC0
FE7FE000003FC0
FE3FE000003FC0
FE1FF000003FC0
FE1FF800003FC0
FE0FF800003FC0
FE07FC00003FC0
FE07FE00003FC0
FE03FE00003FC0
FE01FF00003FC0
FE01FF80003FC0
FE00FF80003FC0
FE007FC0003FC0
FE003FE0003FC0
FE003FE0003FC0
FE001FF0003FC0
FE000FF8003FC0
FE000FF8003FC0
FE0007FC003FC0
FE0003FE003FC0
FE0003FE003FC0
FE0001FF003FC0
FE0000FF803FC0
FE0000FF803FC0
FE00007FC03FC0
FE00003FE03FC0
FE00003FE03FC0
FE00001FF03FC0
FE00000FF83FC0
FE00000FF83FC0
FE000007FC3FC0
FE000003FE3FC0
FE000003FE3FC0
FE000001FF3FC0
FE000000FFBFC0
FE000000FFBFC0
FE0000007FFFC0
FE0000003FFFC0
FE0000003FFFC0
FE0000001FFFC0
FE0000000FFFC0
FE0000000FFFC0
FE00000007FFC0
FE00000003FFC0
FE00000003FFC0
FE00000001FFC0
FE00000000FFC0
FE00000000FFC0
ENDCHAR
STARTCHAR 0144
ENCODING 324
SWIDTH 607 0
DWIDTH 54 0
BBX 41 69 7 0
BITMAP
0000003FC000
0000007F8000
0000007F8000
000000FF0000
000000FE0000
000001FC0000
000003FC0000
000003F80000
000007F00000
000007F00000
00000FE00000
00000FC00000
00001FC00000
00001F800000
00003F000000
00003F000000
000000000000
000000000000
000000000000
000000000000
000000000000
00001FF80000
FE00FFFE0000
FE03FFFF8000
FE07FFFFE000
FE0FFFFFF000
FE1FFFFFF800
FE3FFFFFF800
FE7F007FFC00
FE7C000FFE00
FEF00007FE00
FFE00003FF00
FFC00001FF00
FFC00000FF00
FF800000FF80
FF8000007F80
FF0000007F80
FF0000007F80
FF0000007F80
FE0000003F80
FE0000003F80
FE0000003F80
FE0000003F80
FE0000003F80
FE0000003F80
FE0000003F80
FE0000003F80
FE0000003F80
FE0000003F80
FE0000003F80
FE0000003F80
FE0000003F80
FE0000003F80
FE0000003F80
FE0000003F80
FE0000003F80
FE0000003F80
FE0000003F80
FE0000003F80
FE0000003F80
FE0000003F80
FE0000003F80
FE0000003F80
FE0000003F80
FE0000003F80
FE0000003F80
FE0000003F80
FE0000003F80
FE0000003F80
ENDCHAR
STARTCHAR 0147
ENCODING 327
SWIDTH 708 0
DWIDTH 63 0
BBX 50 81 7 0
BITMAP
003FC001FE0000
001FE001FC0000
000FF003F80000
0007F007F00000
0003F80FF00000
0001FC1FE00000
0000FE3FC00000
0000FF7F800000
00007FFF000000
00003FFE000000
00001FFC000000
00000FF8000000
000007F0000000
00000000000000
00000000000000
00000000000000
00000000000000
00000000000000
00000000000000
FF800000003FC0
FF800000003FC0
FFC00000003FC0
FFE00000003FC0
FFE00000003FC0
FFF00000003FC0
FFF80000003FC0
FFF80000003FC0
FFFC0000003FC0
FFFE0000003FC0
FFFE0000003FC0
FFFF0000003FC0
FFFF8000003FC0
FEFF8000003FC0
FE7FC000003FC0
FE7FE000003FC0
FE3FE000003FC0
FE1FF000003FC0
FE1FF800003FC0
FE0FF800003FC0
FE07FC00003FC0
FE07FE00003FC0
FE03FE00003FC0
FE01FF00003FC0
FE01FF80003FC0
FE00FF80003FC0
FE007FC0003FC0
FE003FE0003FC0
FE003FE0003FC0
FE001FF0003FC0
FE000FF8003FC0
FE000FF8003FC0
FE0007FC003FC0
FE0003FE003FC0
FE0003FE003FC0
FE0001FF003FC0
FE0000FF803FC0
FE0000FF803FC0
FE00007FC03FC0
FE00003FE03FC0
FE00003FE03FC0
FE00001FF03FC0
FE00000FF83FC0
FE00000FF83FC0
FE000007FC3FC0
FE000003FE3FC0
FE000003FE3FC0
FE000001FF3FC0
FE000000FFBFC0
FE000000FFBFC0
FE0000007FFFC0
FE0000003FFFC0
FE0000003FFFC0
FE0000001FFFC0
FE0000000FFFC0
FE0000000FFFC0
FE00000007FFC0
FE00000003FFC0
FE00000003FFC0
FE00000001FFC0
FE00000000FFC0
FE00000000FFC0
ENDCHAR
ENDFONT
